<?xml version="1.0" encoding="utf-8" standalone="no"?>
<!DOCTYPE svg PUBLIC "-//W3C//DTD SVG 1.1//EN"
  "http://www.w3.org/Graphics/SVG/1.1/DTD/svg11.dtd">
<svg xmlns:xlink="http://www.w3.org/1999/xlink" width="792pt" height="288pt" viewBox="0 0 792 288" xmlns="http://www.w3.org/2000/svg" version="1.1">
 <metadata>
  <rdf:RDF xmlns:dc="http://purl.org/dc/elements/1.1/" xmlns:cc="http://creativecommons.org/ns#" xmlns:rdf="http://www.w3.org/1999/02/22-rdf-syntax-ns#">
   <cc:Work>
    <dc:type rdf:resource="http://purl.org/dc/dcmitype/StillImage"/>
    <dc:date>2026-09-07T14:47:16.538921</dc:date>
    <dc:format>image/svg+xml</dc:format>
    <dc:creator>
     <cc:Agent>
      <dc:title>Matplotlib v3.11.1, https://matplotlib.org/</dc:title>
     </cc:Agent>
    </dc:creator>
   </cc:Work>
  </rdf:RDF>
 </metadata>
 <defs>
  <style type="text/css">*{stroke-linejoin: round; stroke-linecap: butt}</style>
 </defs>
 <g id="figure_1">
  <g id="patch_1">
   <path d="M 0 288 
L 792 288 
L 792 0 
L 0 0 
z
" style="fill: #ffffff"/>
  </g>
  <g id="axes_1">
   <g id="patch_2">
    <path d="M 59.88 245.877656 
L 781.2 245.877656 
L 781.2 10.8 
L 59.88 10.8 
z
" style="fill: #ffffff"/>
   </g>
   <g id="patch_3">
    <path d="M 113.177533 245.877656 
L 113.3779 245.877656 
L 113.3779 10.8 
L 113.177533 10.8 
z
" clip-path="url(#p5a70e69491)" style="fill: #1f77b4; opacity: 0.08"/>
   </g>
   <g id="patch_4">
    <path d="M 113.578267 245.877656 
L 113.578267 245.877656 
L 113.578267 10.8 
L 113.578267 10.8 
z
" clip-path="url(#p5a70e69491)" style="fill: #1f77b4; opacity: 0.08"/>
   </g>
   <g id="patch_5">
    <path d="M 113.778633 245.877656 
L 113.979 245.877656 
L 113.979 10.8 
L 113.778633 10.8 
z
" clip-path="url(#p5a70e69491)" style="fill: #1f77b4; opacity: 0.08"/>
   </g>
   <g id="patch_6">
    <path d="M 129.0065 245.877656 
L 129.206867 245.877656 
L 129.206867 10.8 
L 129.0065 10.8 
z
" clip-path="url(#p5a70e69491)" style="fill: #1f77b4; opacity: 0.08"/>
   </g>
   <g id="patch_7">
    <path d="M 129.407233 245.877656 
L 189.316867 245.877656 
L 189.316867 10.8 
L 129.407233 10.8 
z
" clip-path="url(#p5a70e69491)" style="fill: #1f77b4; opacity: 0.08"/>
   </g>
   <g id="matplotlib.axis_1">
    <g id="xtick_1">
     <g id="line2d_1">
      <path d="M 95.946 245.877656 
L 95.946 10.8 
" clip-path="url(#p5a70e69491)" style="fill: none; stroke: #b0b0b0; stroke-opacity: 0.3; stroke-width: 0.8; stroke-linecap: square"/>
     </g>
     <g id="line2d_2">
      <defs>
       <path id="m9d04090023" d="M 0 0 
L 0 3.5 
" style="stroke: #000000; stroke-width: 0.8"/>
      </defs>
      <g>
       <use xlink:href="#m9d04090023" x="95.946" y="245.877656" style="stroke: #000000; stroke-width: 0.8"/>
      </g>
     </g>
     <g id="text_1">
      <!-- 14:20 -->
      <g transform="translate(81.536625 260.475312) scale(0.1 -0.1)">
       <defs>
        <path id="DejaVuSans-14" d="M 794 531 
L 1825 531 
L 1825 4091 
L 703 3866 
L 703 4441 
L 1819 4666 
L 2450 4666 
L 2450 531 
L 3481 531 
L 3481 0 
L 794 0 
L 794 531 
z
" transform="scale(0.015625)"/>
        <path id="DejaVuSans-17" d="M 2419 4116 
L 825 1625 
L 2419 1625 
L 2419 4116 
z
M 2253 4666 
L 3047 4666 
L 3047 1625 
L 3713 1625 
L 3713 1100 
L 3047 1100 
L 3047 0 
L 2419 0 
L 2419 1100 
L 313 1100 
L 313 1709 
L 2253 4666 
z
" transform="scale(0.015625)"/>
        <path id="DejaVuSans-1d" d="M 750 794 
L 1409 794 
L 1409 0 
L 750 0 
L 750 794 
z
M 750 3309 
L 1409 3309 
L 1409 2516 
L 750 2516 
L 750 3309 
z
" transform="scale(0.015625)"/>
        <path id="DejaVuSans-15" d="M 1228 531 
L 3431 531 
L 3431 0 
L 469 0 
L 469 531 
Q 828 903 1448 1529 
Q 2069 2156 2228 2338 
Q 2531 2678 2651 2914 
Q 2772 3150 2772 3378 
Q 2772 3750 2511 3984 
Q 2250 4219 1831 4219 
Q 1534 4219 1204 4116 
Q 875 4013 500 3803 
L 500 4441 
Q 881 4594 1212 4672 
Q 1544 4750 1819 4750 
Q 2544 4750 2975 4387 
Q 3406 4025 3406 3419 
Q 3406 3131 3298 2873 
Q 3191 2616 2906 2266 
Q 2828 2175 2409 1742 
Q 1991 1309 1228 531 
z
" transform="scale(0.015625)"/>
        <path id="DejaVuSans-13" d="M 2034 4250 
Q 1547 4250 1301 3770 
Q 1056 3291 1056 2328 
Q 1056 1369 1301 889 
Q 1547 409 2034 409 
Q 2525 409 2770 889 
Q 3016 1369 3016 2328 
Q 3016 3291 2770 3770 
Q 2525 4250 2034 4250 
z
M 2034 4750 
Q 2819 4750 3233 4129 
Q 3647 3509 3647 2328 
Q 3647 1150 3233 529 
Q 2819 -91 2034 -91 
Q 1250 -91 836 529 
Q 422 1150 422 2328 
Q 422 3509 836 4129 
Q 1250 4750 2034 4750 
z
" transform="scale(0.015625)"/>
       </defs>
       <use xlink:href="#DejaVuSans-14"/>
       <use xlink:href="#DejaVuSans-17" transform="translate(63.625 0)"/>
       <use xlink:href="#DejaVuSans-1d" transform="translate(127.25 0)"/>
       <use xlink:href="#DejaVuSans-15" transform="translate(160.9375 0)"/>
       <use xlink:href="#DejaVuSans-13" transform="translate(224.5625 0)"/>
      </g>
     </g>
    </g>
    <g id="xtick_2">
     <g id="line2d_3">
      <path d="M 216.166 245.877656 
L 216.166 10.8 
" clip-path="url(#p5a70e69491)" style="fill: none; stroke: #b0b0b0; stroke-opacity: 0.3; stroke-width: 0.8; stroke-linecap: square"/>
     </g>
     <g id="line2d_4">
      <g>
       <use xlink:href="#m9d04090023" x="216.166" y="245.877656" style="stroke: #000000; stroke-width: 0.8"/>
      </g>
     </g>
     <g id="text_2">
      <!-- 14:30 -->
      <g transform="translate(201.756625 260.475312) scale(0.1 -0.1)">
       <defs>
        <path id="DejaVuSans-16" d="M 2597 2516 
Q 3050 2419 3304 2112 
Q 3559 1806 3559 1356 
Q 3559 666 3084 287 
Q 2609 -91 1734 -91 
Q 1441 -91 1130 -33 
Q 819 25 488 141 
L 488 750 
Q 750 597 1062 519 
Q 1375 441 1716 441 
Q 2309 441 2620 675 
Q 2931 909 2931 1356 
Q 2931 1769 2642 2001 
Q 2353 2234 1838 2234 
L 1294 2234 
L 1294 2753 
L 1863 2753 
Q 2328 2753 2575 2939 
Q 2822 3125 2822 3475 
Q 2822 3834 2567 4026 
Q 2313 4219 1838 4219 
Q 1578 4219 1281 4162 
Q 984 4106 628 3988 
L 628 4550 
Q 988 4650 1302 4700 
Q 1616 4750 1894 4750 
Q 2613 4750 3031 4423 
Q 3450 4097 3450 3541 
Q 3450 3153 3228 2886 
Q 3006 2619 2597 2516 
z
" transform="scale(0.015625)"/>
       </defs>
       <use xlink:href="#DejaVuSans-14"/>
       <use xlink:href="#DejaVuSans-17" transform="translate(63.625 0)"/>
       <use xlink:href="#DejaVuSans-1d" transform="translate(127.25 0)"/>
       <use xlink:href="#DejaVuSans-16" transform="translate(160.9375 0)"/>
       <use xlink:href="#DejaVuSans-13" transform="translate(224.5625 0)"/>
      </g>
     </g>
    </g>
    <g id="xtick_3">
     <g id="line2d_5">
      <path d="M 336.386 245.877656 
L 336.386 10.8 
" clip-path="url(#p5a70e69491)" style="fill: none; stroke: #b0b0b0; stroke-opacity: 0.3; stroke-width: 0.8; stroke-linecap: square"/>
     </g>
     <g id="line2d_6">
      <g>
       <use xlink:href="#m9d04090023" x="336.386" y="245.877656" style="stroke: #000000; stroke-width: 0.8"/>
      </g>
     </g>
     <g id="text_3">
      <!-- 14:40 -->
      <g transform="translate(321.976625 260.475312) scale(0.1 -0.1)">
       <use xlink:href="#DejaVuSans-14"/>
       <use xlink:href="#DejaVuSans-17" transform="translate(63.625 0)"/>
       <use xlink:href="#DejaVuSans-1d" transform="translate(127.25 0)"/>
       <use xlink:href="#DejaVuSans-17" transform="translate(160.9375 0)"/>
       <use xlink:href="#DejaVuSans-13" transform="translate(224.5625 0)"/>
      </g>
     </g>
    </g>
    <g id="xtick_4">
     <g id="line2d_7">
      <path d="M 456.606 245.877656 
L 456.606 10.8 
" clip-path="url(#p5a70e69491)" style="fill: none; stroke: #b0b0b0; stroke-opacity: 0.3; stroke-width: 0.8; stroke-linecap: square"/>
     </g>
     <g id="line2d_8">
      <g>
       <use xlink:href="#m9d04090023" x="456.606" y="245.877656" style="stroke: #000000; stroke-width: 0.8"/>
      </g>
     </g>
     <g id="text_4">
      <!-- 14:50 -->
      <g transform="translate(442.196625 260.475312) scale(0.1 -0.1)">
       <defs>
        <path id="DejaVuSans-18" d="M 691 4666 
L 3169 4666 
L 3169 4134 
L 1269 4134 
L 1269 2991 
Q 1406 3038 1543 3061 
Q 1681 3084 1819 3084 
Q 2600 3084 3056 2656 
Q 3513 2228 3513 1497 
Q 3513 744 3044 326 
Q 2575 -91 1722 -91 
Q 1428 -91 1123 -41 
Q 819 9 494 109 
L 494 744 
Q 775 591 1075 516 
Q 1375 441 1709 441 
Q 2250 441 2565 725 
Q 2881 1009 2881 1497 
Q 2881 1984 2565 2268 
Q 2250 2553 1709 2553 
Q 1456 2553 1204 2497 
Q 953 2441 691 2322 
L 691 4666 
z
" transform="scale(0.015625)"/>
       </defs>
       <use xlink:href="#DejaVuSans-14"/>
       <use xlink:href="#DejaVuSans-17" transform="translate(63.625 0)"/>
       <use xlink:href="#DejaVuSans-1d" transform="translate(127.25 0)"/>
       <use xlink:href="#DejaVuSans-18" transform="translate(160.9375 0)"/>
       <use xlink:href="#DejaVuSans-13" transform="translate(224.5625 0)"/>
      </g>
     </g>
    </g>
    <g id="xtick_5">
     <g id="line2d_9">
      <path d="M 576.826 245.877656 
L 576.826 10.8 
" clip-path="url(#p5a70e69491)" style="fill: none; stroke: #b0b0b0; stroke-opacity: 0.3; stroke-width: 0.8; stroke-linecap: square"/>
     </g>
     <g id="line2d_10">
      <g>
       <use xlink:href="#m9d04090023" x="576.826" y="245.877656" style="stroke: #000000; stroke-width: 0.8"/>
      </g>
     </g>
     <g id="text_5">
      <!-- 15:00 -->
      <g transform="translate(562.416625 260.475312) scale(0.1 -0.1)">
       <use xlink:href="#DejaVuSans-14"/>
       <use xlink:href="#DejaVuSans-18" transform="translate(63.625 0)"/>
       <use xlink:href="#DejaVuSans-1d" transform="translate(127.25 0)"/>
       <use xlink:href="#DejaVuSans-13" transform="translate(160.9375 0)"/>
       <use xlink:href="#DejaVuSans-13" transform="translate(224.5625 0)"/>
      </g>
     </g>
    </g>
    <g id="xtick_6">
     <g id="line2d_11">
      <path d="M 697.046 245.877656 
L 697.046 10.8 
" clip-path="url(#p5a70e69491)" style="fill: none; stroke: #b0b0b0; stroke-opacity: 0.3; stroke-width: 0.8; stroke-linecap: square"/>
     </g>
     <g id="line2d_12">
      <g>
       <use xlink:href="#m9d04090023" x="697.046" y="245.877656" style="stroke: #000000; stroke-width: 0.8"/>
      </g>
     </g>
     <g id="text_6">
      <!-- 15:10 -->
      <g transform="translate(682.636625 260.475312) scale(0.1 -0.1)">
       <use xlink:href="#DejaVuSans-14"/>
       <use xlink:href="#DejaVuSans-18" transform="translate(63.625 0)"/>
       <use xlink:href="#DejaVuSans-1d" transform="translate(127.25 0)"/>
       <use xlink:href="#DejaVuSans-14" transform="translate(160.9375 0)"/>
       <use xlink:href="#DejaVuSans-13" transform="translate(224.5625 0)"/>
      </g>
     </g>
    </g>
    <g id="text_7">
     <!-- time -->
     <g transform="translate(409.243906 274.476094) scale(0.1 -0.1)">
      <defs>
       <path id="DejaVuSans-57" d="M 1172 4494 
L 1172 3500 
L 2356 3500 
L 2356 3053 
L 1172 3053 
L 1172 1153 
Q 1172 725 1289 603 
Q 1406 481 1766 481 
L 2356 481 
L 2356 0 
L 1766 0 
Q 1100 0 847 248 
Q 594 497 594 1153 
L 594 3053 
L 172 3053 
L 172 3500 
L 594 3500 
L 594 4494 
L 1172 4494 
z
" transform="scale(0.015625)"/>
       <path id="DejaVuSans-4c" d="M 603 3500 
L 1178 3500 
L 1178 0 
L 603 0 
L 603 3500 
z
M 603 4863 
L 1178 4863 
L 1178 4134 
L 603 4134 
L 603 4863 
z
" transform="scale(0.015625)"/>
       <path id="DejaVuSans-50" d="M 3328 2828 
Q 3544 3216 3844 3400 
Q 4144 3584 4550 3584 
Q 5097 3584 5394 3201 
Q 5691 2819 5691 2113 
L 5691 0 
L 5113 0 
L 5113 2094 
Q 5113 2597 4934 2840 
Q 4756 3084 4391 3084 
Q 3944 3084 3684 2787 
Q 3425 2491 3425 1978 
L 3425 0 
L 2847 0 
L 2847 2094 
Q 2847 2600 2669 2842 
Q 2491 3084 2119 3084 
Q 1678 3084 1418 2786 
Q 1159 2488 1159 1978 
L 1159 0 
L 581 0 
L 581 3500 
L 1159 3500 
L 1159 2956 
Q 1356 3278 1631 3431 
Q 1906 3584 2284 3584 
Q 2666 3584 2933 3390 
Q 3200 3197 3328 2828 
z
" transform="scale(0.015625)"/>
       <path id="DejaVuSans-48" d="M 3597 1894 
L 3597 1613 
L 953 1613 
Q 991 1019 1311 708 
Q 1631 397 2203 397 
Q 2534 397 2845 478 
Q 3156 559 3463 722 
L 3463 178 
Q 3153 47 2828 -22 
Q 2503 -91 2169 -91 
Q 1331 -91 842 396 
Q 353 884 353 1716 
Q 353 2575 817 3079 
Q 1281 3584 2069 3584 
Q 2775 3584 3186 3129 
Q 3597 2675 3597 1894 
z
M 3022 2063 
Q 3016 2534 2758 2815 
Q 2500 3097 2075 3097 
Q 1594 3097 1305 2825 
Q 1016 2553 972 2059 
L 3022 2063 
z
" transform="scale(0.015625)"/>
      </defs>
      <use xlink:href="#DejaVuSans-57"/>
      <use xlink:href="#DejaVuSans-4c" transform="translate(39.203125 0)"/>
      <use xlink:href="#DejaVuSans-50" transform="translate(66.984375 0)"/>
      <use xlink:href="#DejaVuSans-48" transform="translate(164.390625 0)"/>
     </g>
    </g>
   </g>
   <g id="matplotlib.axis_2">
    <g id="ytick_1">
     <g id="line2d_13">
      <path d="M 59.88 225.859899 
L 781.2 225.859899 
" clip-path="url(#p5a70e69491)" style="fill: none; stroke: #b0b0b0; stroke-opacity: 0.3; stroke-width: 0.8; stroke-linecap: square"/>
     </g>
     <g id="line2d_14">
      <defs>
       <path id="m6fc56d44ec" d="M 0 0 
L -3.5 0 
" style="stroke: #000000; stroke-width: 0.8"/>
      </defs>
      <g>
       <use xlink:href="#m6fc56d44ec" x="59.88" y="225.859899" style="stroke: #000000; stroke-width: 0.8"/>
      </g>
     </g>
     <g id="text_8">
      <!-- −100 -->
      <g transform="translate(25.412813 229.658727) scale(0.1 -0.1)">
       <defs>
        <path id="DejaVuSans-c9c" d="M 678 2272 
L 4684 2272 
L 4684 1741 
L 678 1741 
L 678 2272 
z
" transform="scale(0.015625)"/>
       </defs>
       <use xlink:href="#DejaVuSans-c9c"/>
       <use xlink:href="#DejaVuSans-14" transform="translate(83.796875 0)"/>
       <use xlink:href="#DejaVuSans-13" transform="translate(147.421875 0)"/>
       <use xlink:href="#DejaVuSans-13" transform="translate(211.046875 0)"/>
      </g>
     </g>
    </g>
    <g id="ytick_2">
     <g id="line2d_15">
      <path d="M 59.88 175.227021 
L 781.2 175.227021 
" clip-path="url(#p5a70e69491)" style="fill: none; stroke: #b0b0b0; stroke-opacity: 0.3; stroke-width: 0.8; stroke-linecap: square"/>
     </g>
     <g id="line2d_16">
      <g>
       <use xlink:href="#m6fc56d44ec" x="59.88" y="175.227021" style="stroke: #000000; stroke-width: 0.8"/>
      </g>
     </g>
     <g id="text_9">
      <!-- −50 -->
      <g transform="translate(31.775313 179.025849) scale(0.1 -0.1)">
       <use xlink:href="#DejaVuSans-c9c"/>
       <use xlink:href="#DejaVuSans-18" transform="translate(83.796875 0)"/>
       <use xlink:href="#DejaVuSans-13" transform="translate(147.421875 0)"/>
      </g>
     </g>
    </g>
    <g id="ytick_3">
     <g id="line2d_17">
      <path d="M 59.88 124.594142 
L 781.2 124.594142 
" clip-path="url(#p5a70e69491)" style="fill: none; stroke: #b0b0b0; stroke-opacity: 0.3; stroke-width: 0.8; stroke-linecap: square"/>
     </g>
     <g id="line2d_18">
      <g>
       <use xlink:href="#m6fc56d44ec" x="59.88" y="124.594142" style="stroke: #000000; stroke-width: 0.8"/>
      </g>
     </g>
     <g id="text_10">
      <!-- 0 -->
      <g transform="translate(46.5175 128.39297) scale(0.1 -0.1)">
       <use xlink:href="#DejaVuSans-13"/>
      </g>
     </g>
    </g>
    <g id="ytick_4">
     <g id="line2d_19">
      <path d="M 59.88 73.961263 
L 781.2 73.961263 
" clip-path="url(#p5a70e69491)" style="fill: none; stroke: #b0b0b0; stroke-opacity: 0.3; stroke-width: 0.8; stroke-linecap: square"/>
     </g>
     <g id="line2d_20">
      <g>
       <use xlink:href="#m6fc56d44ec" x="59.88" y="73.961263" style="stroke: #000000; stroke-width: 0.8"/>
      </g>
     </g>
     <g id="text_11">
      <!-- 50 -->
      <g transform="translate(40.155 77.760092) scale(0.1 -0.1)">
       <use xlink:href="#DejaVuSans-18"/>
       <use xlink:href="#DejaVuSans-13" transform="translate(63.625 0)"/>
      </g>
     </g>
    </g>
    <g id="ytick_5">
     <g id="line2d_21">
      <path d="M 59.88 23.328385 
L 781.2 23.328385 
" clip-path="url(#p5a70e69491)" style="fill: none; stroke: #b0b0b0; stroke-opacity: 0.3; stroke-width: 0.8; stroke-linecap: square"/>
     </g>
     <g id="line2d_22">
      <g>
       <use xlink:href="#m6fc56d44ec" x="59.88" y="23.328385" style="stroke: #000000; stroke-width: 0.8"/>
      </g>
     </g>
     <g id="text_12">
      <!-- 100 -->
      <g transform="translate(33.7925 27.127213) scale(0.1 -0.1)">
       <use xlink:href="#DejaVuSans-14"/>
       <use xlink:href="#DejaVuSans-13" transform="translate(63.625 0)"/>
       <use xlink:href="#DejaVuSans-13" transform="translate(127.25 0)"/>
      </g>
     </g>
    </g>
    <g id="text_13">
     <!-- grams -->
     <g transform="translate(19.010469 144.107578) rotate(-90) scale(0.1 -0.1)">
      <defs>
       <path id="DejaVuSans-4a" d="M 2906 1791 
Q 2906 2416 2648 2759 
Q 2391 3103 1925 3103 
Q 1463 3103 1205 2759 
Q 947 2416 947 1791 
Q 947 1169 1205 825 
Q 1463 481 1925 481 
Q 2391 481 2648 825 
Q 2906 1169 2906 1791 
z
M 3481 434 
Q 3481 -459 3084 -895 
Q 2688 -1331 1869 -1331 
Q 1566 -1331 1297 -1286 
Q 1028 -1241 775 -1147 
L 775 -588 
Q 1028 -725 1275 -790 
Q 1522 -856 1778 -856 
Q 2344 -856 2625 -561 
Q 2906 -266 2906 331 
L 2906 616 
Q 2728 306 2450 153 
Q 2172 0 1784 0 
Q 1141 0 747 490 
Q 353 981 353 1791 
Q 353 2603 747 3093 
Q 1141 3584 1784 3584 
Q 2172 3584 2450 3431 
Q 2728 3278 2906 2969 
L 2906 3500 
L 3481 3500 
L 3481 434 
z
" transform="scale(0.015625)"/>
       <path id="DejaVuSans-55" d="M 2631 2963 
Q 2534 3019 2420 3045 
Q 2306 3072 2169 3072 
Q 1681 3072 1420 2755 
Q 1159 2438 1159 1844 
L 1159 0 
L 581 0 
L 581 3500 
L 1159 3500 
L 1159 2956 
Q 1341 3275 1631 3429 
Q 1922 3584 2338 3584 
Q 2397 3584 2469 3576 
Q 2541 3569 2628 3553 
L 2631 2963 
z
" transform="scale(0.015625)"/>
       <path id="DejaVuSans-44" d="M 2194 1759 
Q 1497 1759 1228 1600 
Q 959 1441 959 1056 
Q 959 750 1161 570 
Q 1363 391 1709 391 
Q 2188 391 2477 730 
Q 2766 1069 2766 1631 
L 2766 1759 
L 2194 1759 
z
M 3341 1997 
L 3341 0 
L 2766 0 
L 2766 531 
Q 2569 213 2275 61 
Q 1981 -91 1556 -91 
Q 1019 -91 701 211 
Q 384 513 384 1019 
Q 384 1609 779 1909 
Q 1175 2209 1959 2209 
L 2766 2209 
L 2766 2266 
Q 2766 2663 2505 2880 
Q 2244 3097 1772 3097 
Q 1472 3097 1187 3025 
Q 903 2953 641 2809 
L 641 3341 
Q 956 3463 1253 3523 
Q 1550 3584 1831 3584 
Q 2591 3584 2966 3190 
Q 3341 2797 3341 1997 
z
" transform="scale(0.015625)"/>
       <path id="DejaVuSans-56" d="M 2834 3397 
L 2834 2853 
Q 2591 2978 2328 3040 
Q 2066 3103 1784 3103 
Q 1356 3103 1142 2972 
Q 928 2841 928 2578 
Q 928 2378 1081 2264 
Q 1234 2150 1697 2047 
L 1894 2003 
Q 2506 1872 2764 1633 
Q 3022 1394 3022 966 
Q 3022 478 2636 193 
Q 2250 -91 1575 -91 
Q 1294 -91 989 -36 
Q 684 19 347 128 
L 347 722 
Q 666 556 975 473 
Q 1284 391 1588 391 
Q 1994 391 2212 530 
Q 2431 669 2431 922 
Q 2431 1156 2273 1281 
Q 2116 1406 1581 1522 
L 1381 1569 
Q 847 1681 609 1914 
Q 372 2147 372 2553 
Q 372 3047 722 3315 
Q 1072 3584 1716 3584 
Q 2034 3584 2315 3537 
Q 2597 3491 2834 3397 
z
" transform="scale(0.015625)"/>
      </defs>
      <use xlink:href="#DejaVuSans-4a"/>
      <use xlink:href="#DejaVuSans-55" transform="translate(63.484375 0)"/>
      <use xlink:href="#DejaVuSans-44" transform="translate(104.59375 0)"/>
      <use xlink:href="#DejaVuSans-50" transform="translate(165.875 0)"/>
      <use xlink:href="#DejaVuSans-56" transform="translate(263.28125 0)"/>
     </g>
    </g>
   </g>
   <g id="line2d_23">
    <path d="M 59.88 124.594142 
L 60.080367 124.48275 
L 68.495767 124.48275 
L 68.696133 124.148573 
L 68.8965 124.219459 
L 69.4976 123.935915 
L 69.898333 123.915661 
L 70.299067 123.429586 
L 70.499433 123.865029 
L 70.6998 123.318193 
L 70.900167 123.551105 
L 71.100533 123.034649 
L 71.3009 123.135915 
L 71.501267 124.027054 
L 71.701633 123.875155 
L 71.902 124.03718 
L 72.102367 123.621991 
L 72.302733 123.480219 
L 72.5031 124.057434 
L 72.703467 123.773889 
L 72.903833 124.442243 
L 73.304567 123.146042 
L 73.504933 123.530852 
L 73.7053 123.530852 
L 73.905667 123.267561 
L 74.106033 123.277687 
L 74.3064 123.723257 
L 74.506767 123.257434 
L 74.707133 123.834649 
L 74.9075 123.257434 
L 75.107867 124.42199 
L 75.308233 123.885282 
L 75.708967 124.12832 
L 75.909333 123.794143 
L 76.1097 124.665028 
L 76.310067 124.047307 
L 76.510433 124.259965 
L 76.7108 124.148573 
L 76.911167 124.300471 
L 77.111533 124.148573 
L 77.3119 124.290345 
L 77.512267 123.885282 
L 77.712633 122.963763 
L 77.913 124.108066 
L 78.113367 123.885282 
L 78.313733 123.378953 
L 78.5141 123.378953 
L 78.714467 123.237181 
L 78.914833 123.865029 
L 79.1152 123.156168 
L 79.315567 124.594142 
L 79.515933 124.199206 
L 79.916667 124.209332 
L 80.117033 124.634648 
L 80.3174 124.118193 
L 80.718133 124.219459 
L 80.9185 124.06756 
L 81.118867 123.753636 
L 81.319233 124.594142 
L 81.5196 123.946041 
L 81.719967 124.087813 
L 81.920333 123.753636 
L 82.1207 123.905535 
L 82.321067 123.804269 
L 82.7218 124.12832 
L 83.122533 123.257434 
L 83.3229 123.68275 
L 83.523267 123.429586 
L 83.723633 123.794143 
L 84.124367 123.368826 
L 84.324733 124.594142 
L 84.5251 124.148573 
L 84.725467 124.391611 
L 85.1262 124.442243 
L 85.326567 124.189079 
L 85.526933 124.290345 
L 85.7273 124.006801 
L 85.927667 124.553636 
L 86.128033 124.48275 
L 86.528767 123.834649 
L 86.729133 123.946041 
L 86.9295 123.763763 
L 87.129867 124.401737 
L 87.330233 123.561231 
L 87.5306 124.108066 
L 87.730967 123.68275 
L 87.931333 124.118193 
L 88.1317 124.03718 
L 88.332067 124.300471 
L 88.532433 123.662497 
L 88.7328 124.219459 
L 88.933167 124.330851 
L 89.133533 123.986547 
L 89.3339 124.614395 
L 89.534267 124.158699 
L 89.935 123.956168 
L 90.135367 123.470092 
L 90.335733 123.520725 
L 90.5361 124.077687 
L 90.736467 123.956168 
L 90.936833 124.047307 
L 91.1372 123.885282 
L 91.337567 124.199206 
L 91.537933 123.885282 
L 91.7383 123.277687 
L 91.938667 123.591611 
L 92.3394 123.29794 
L 92.539767 123.621991 
L 92.740133 122.872624 
L 92.9405 124.108066 
L 93.140867 123.763763 
L 93.341233 124.178952 
L 93.5416 124.239712 
L 93.942333 124.735914 
L 94.1427 124.340978 
L 94.343067 123.581484 
L 94.543433 124.290345 
L 94.944167 123.996674 
L 95.144533 123.530852 
L 95.3449 123.530852 
L 95.545267 123.662497 
L 95.745633 123.368826 
L 96.146367 123.378953 
L 96.346733 124.381484 
L 96.5471 124.442243 
L 96.747467 125.110597 
L 96.947833 124.654901 
L 97.1482 123.459966 
L 97.7493 124.45237 
L 97.949667 124.057434 
L 98.150033 124.006801 
L 98.3504 124.513129 
L 98.751133 123.74351 
L 98.9515 123.510598 
L 99.151867 123.905535 
L 99.5526 123.885282 
L 99.752967 124.087813 
L 99.953333 123.956168 
L 100.354067 123.146042 
L 100.554433 123.480219 
L 100.7548 123.176421 
L 100.955167 123.74351 
L 101.155533 123.672624 
L 101.756633 124.290345 
L 101.957 124.42199 
L 102.157367 123.925788 
L 102.357733 124.09794 
L 102.5581 124.746041 
L 102.758467 124.178952 
L 103.1592 124.12832 
L 103.359567 124.401737 
L 103.559933 123.875155 
L 103.7603 123.956168 
L 103.960667 124.158699 
L 104.161033 123.429586 
L 104.561767 123.986547 
L 104.762133 123.449839 
L 104.9625 123.824522 
L 105.162867 123.429586 
L 105.363233 123.996674 
L 105.5636 124.189079 
L 105.763967 123.925788 
L 105.964333 122.872624 
L 106.1647 123.115662 
L 106.365067 123.632117 
L 106.565433 123.824522 
L 106.7658 123.125789 
L 106.966167 123.237181 
L 107.166533 123.621991 
L 107.3669 123.611864 
L 107.567267 123.71313 
L 107.767633 124.401737 
L 108.168367 123.621991 
L 108.368733 124.401737 
L 108.5691 124.543509 
L 109.370567 123.794143 
L 109.7713 124.219459 
L 110.172033 123.703003 
L 110.3724 123.925788 
L 110.572767 123.642244 
L 110.773133 124.077687 
L 110.9735 123.875155 
L 111.173867 123.834649 
L 111.374233 123.986547 
L 111.5746 123.530852 
L 111.774967 124.259965 
L 111.975333 123.642244 
L 112.1757 124.158699 
L 112.576433 123.287814 
L 112.7768 123.642244 
L 112.977167 125.404268 
L 113.177533 133.434643 
L 113.3779 132.604263 
L 113.578267 130.528315 
L 113.778633 126.204268 
L 113.979 126.416926 
L 114.780467 130.821986 
L 114.980833 129.181481 
L 115.1812 129.738442 
L 115.381567 128.300469 
L 115.7823 127.237178 
L 116.3834 129.140975 
L 116.583767 128.88781 
L 116.784133 129.809329 
L 116.9845 129.961227 
L 117.184867 129.434645 
L 117.385233 128.53338 
L 117.5856 127.02452 
L 117.785967 128.361228 
L 118.1867 126.852368 
L 118.587433 127.935912 
L 118.7878 126.973887 
L 118.988167 124.138446 
L 119.188533 124.48275 
L 119.589267 121.971359 
L 119.789633 121.981485 
L 119.99 122.315662 
L 120.5911 121.161233 
L 120.791467 124.108066 
L 120.991833 124.189079 
L 121.1922 120.118196 
L 121.392567 120.3106 
L 121.7933 121.52579 
L 121.993667 121.14098 
L 122.194033 121.708068 
L 122.3944 120.69541 
L 122.795133 121.100473 
L 122.9955 121.171359 
L 123.195867 121.1106 
L 123.396233 120.624524 
L 123.5966 120.624524 
L 123.796967 120.330854 
L 123.997333 120.938448 
L 124.398067 120.40174 
L 124.598433 120.908068 
L 124.7988 120.158702 
L 125.3999 120.462499 
L 125.600267 121.373891 
L 125.800633 120.482752 
L 126.001 120.452373 
L 126.401733 121.039714 
L 126.6021 120.735917 
L 126.802467 120.209335 
L 127.002833 120.158702 
L 127.2032 120.665031 
L 127.603933 120.614398 
L 127.8043 120.037183 
L 128.4054 120.482752 
L 128.605767 120.34098 
L 128.806133 119.854905 
L 129.0065 22.416993 
L 129.206867 22.163829 
L 129.407233 22.113196 
L 129.6076 22.214461 
L 129.6076 22.346107 
L 129.807967 22.548638 
L 130.008333 22.275221 
L 130.2087 21.779019 
L 130.8098 22.224588 
L 131.210533 21.991677 
L 131.4109 22.194208 
L 131.611267 21.870158 
L 131.811633 22.315727 
L 132.012 21.728386 
L 132.212367 22.386613 
L 132.412733 22.558765 
L 132.6131 22.072689 
L 133.013833 22.42712 
L 133.2142 22.113196 
L 133.414567 22.295474 
L 133.614933 21.860031 
L 133.8153 22.285347 
L 134.216033 22.204335 
L 134.4164 21.809398 
L 134.817133 21.941044 
L 135.0175 22.356234 
L 135.217867 22.356234 
L 135.418233 22.133449 
L 135.6186 22.143575 
L 135.818967 22.04231 
L 136.019333 22.265094 
L 136.2197 22.254968 
L 136.420067 22.487879 
L 136.8208 22.477752 
L 137.021167 22.194208 
L 137.221533 22.295474 
L 137.4219 22.224588 
L 137.822633 22.386613 
L 138.023 22.143575 
L 138.223367 21.505601 
L 138.423733 22.822056 
L 138.6241 22.052436 
L 138.824467 22.224588 
L 139.425567 22.275221 
L 139.625933 22.761297 
L 139.8263 22.123322 
L 140.026667 22.811929 
L 140.4274 21.819525 
L 140.627767 22.447373 
L 140.828133 22.153702 
L 141.0285 22.467626 
L 141.429233 22.325854 
L 141.6296 21.971424 
L 141.829967 21.941044 
L 142.2307 22.224588 
L 142.431067 21.829652 
L 142.631433 22.467626 
L 142.8318 22.356234 
L 143.032167 22.376487 
L 143.232533 22.022057 
L 143.4329 22.39674 
L 143.633267 22.356234 
L 143.833633 22.062563 
L 144.034 22.548638 
L 144.234367 21.860031 
L 144.434733 21.920791 
L 144.6351 21.566361 
L 144.835467 22.346107 
L 145.035833 22.123322 
L 145.2362 22.33598 
L 145.436567 22.204335 
L 145.636933 22.548638 
L 145.8373 22.568892 
L 146.037667 22.173955 
L 146.238033 22.467626 
L 146.4384 22.022057 
L 146.839133 22.579018 
L 147.0395 22.295474 
L 147.239867 22.33598 
L 147.440233 22.730917 
L 147.6406 22.619524 
L 147.840967 22.680284 
L 148.041333 21.860031 
L 148.2417 21.768892 
L 148.442067 22.315727 
L 148.642433 22.36636 
L 148.8428 22.224588 
L 149.043167 21.900538 
L 149.243533 22.356234 
L 149.4439 22.01193 
L 149.644267 22.457499 
L 149.844633 22.092943 
L 150.045 22.609398 
L 150.245367 22.477752 
L 150.445733 21.768892 
L 150.6461 22.285347 
L 150.846467 22.457499 
L 151.046833 22.36636 
L 151.2472 22.477752 
L 151.647933 21.556234 
L 151.8483 21.606867 
L 152.048667 22.285347 
L 152.4494 22.052436 
L 152.649767 22.143575 
L 152.850133 22.04231 
L 153.0505 22.660031 
L 153.250867 22.224588 
L 153.6516 22.092943 
L 153.851967 22.244841 
L 154.2527 21.637247 
L 154.453067 21.839778 
L 154.8538 22.548638 
L 155.054167 21.98155 
L 155.4549 21.860031 
L 155.655267 22.173955 
L 155.855633 22.092943 
L 156.056 22.406866 
L 156.456733 21.860031 
L 156.6571 22.133449 
L 156.857467 22.194208 
L 157.2582 21.829652 
L 157.658933 22.609398 
L 157.8593 22.690411 
L 158.059667 22.204335 
L 158.260033 22.234715 
L 158.4604 22.447373 
L 158.660767 22.001803 
L 158.861133 22.305601 
L 159.0615 22.356234 
L 159.261867 22.832183 
L 159.462233 22.356234 
L 159.6626 22.872689 
L 159.862967 21.860031 
L 160.063333 21.779019 
L 160.464067 22.558765 
L 160.664433 22.528385 
L 160.8648 21.809398 
L 161.065167 22.082816 
L 161.265533 22.143575 
L 161.4659 22.001803 
L 161.666267 21.616993 
L 161.866633 22.457499 
L 162.267367 21.941044 
L 162.467733 22.39674 
L 162.6681 22.113196 
L 163.068833 22.224588 
L 163.2692 21.546107 
L 163.8703 22.265094 
L 164.070667 22.04231 
L 164.271033 22.437246 
L 164.671767 21.930917 
L 165.0725 22.39674 
L 165.272867 22.214461 
L 165.473233 22.801803 
L 165.6736 21.961297 
L 165.873967 22.285347 
L 166.2747 21.485348 
L 166.475067 22.062563 
L 166.8758 22.133449 
L 167.076167 22.548638 
L 167.276533 22.194208 
L 167.677267 22.204335 
L 167.877633 21.930917 
L 168.278367 22.467626 
L 168.478733 22.305601 
L 168.6791 22.538512 
L 169.079833 22.04231 
L 169.2802 22.052436 
L 169.480567 22.528385 
L 170.081667 22.39674 
L 170.282033 21.728386 
L 170.883133 22.973955 
L 171.0835 22.113196 
L 171.283867 22.265094 
L 171.484233 21.880284 
L 172.085333 22.406866 
L 172.2857 22.730917 
L 172.486067 22.447373 
L 172.686433 22.487879 
L 172.8868 22.275221 
L 173.087167 22.660031 
L 173.287533 22.710664 
L 173.4879 21.98155 
L 173.888633 22.548638 
L 174.089 22.194208 
L 174.289367 22.619524 
L 174.489733 22.568892 
L 174.6901 22.72079 
L 174.890467 21.728386 
L 175.2912 21.839778 
L 175.491567 22.538512 
L 175.691933 22.487879 
L 175.8923 22.984081 
L 176.092667 22.649904 
L 176.293033 22.670157 
L 176.4934 22.001803 
L 176.693767 22.680284 
L 176.894133 22.518259 
L 177.294867 21.95117 
L 177.495233 22.133449 
L 177.6956 22.487879 
L 178.096333 21.809398 
L 178.2967 22.052436 
L 178.497067 23.115727 
L 178.697433 22.204335 
L 179.298533 22.285347 
L 179.699267 22.234715 
L 179.899633 21.98155 
L 180.300367 22.022057 
L 180.500733 22.649904 
L 180.7011 22.153702 
L 180.901467 22.204335 
L 181.101833 22.001803 
L 181.3022 22.254968 
L 181.702933 22.244841 
L 181.9033 21.779019 
L 182.103667 22.680284 
L 182.304033 22.690411 
L 182.5044 22.153702 
L 182.905133 22.933448 
L 183.1055 22.244841 
L 183.305867 22.022057 
L 183.506233 22.710664 
L 183.7066 21.961297 
L 184.107333 22.872689 
L 184.3077 21.698006 
L 184.508067 22.204335 
L 184.708433 22.204335 
L 184.9088 21.6575 
L 185.109167 22.254968 
L 185.309533 22.416993 
L 185.710267 21.930917 
L 185.910633 22.092943 
L 186.111 21.728386 
L 186.511733 22.42712 
L 186.7121 21.870158 
L 186.912467 22.406866 
L 187.112833 22.548638 
L 187.3132 22.943575 
L 187.513567 22.052436 
L 187.713933 21.920791 
L 187.9143 22.508132 
L 188.114667 21.718259 
L 188.315033 22.032183 
L 188.5154 21.95117 
L 188.715767 22.254968 
L 188.916133 21.758766 
L 189.1165 21.637247 
L 189.316867 22.184082 
L 189.517233 124.614395 
L 189.917967 124.229585 
L 190.719433 124.553636 
L 190.9198 124.290345 
L 191.721267 123.915661 
L 191.921633 124.503003 
L 192.522733 124.270092 
L 192.7231 124.330851 
L 192.923467 123.895408 
L 193.123833 124.8068 
L 193.3242 124.280218 
L 193.724933 124.270092 
L 193.9253 124.270092 
L 194.125667 123.895408 
L 194.5264 124.12832 
L 194.726767 123.915661 
L 195.1275 124.199206 
L 195.528233 124.178952 
L 195.7286 123.996674 
L 195.928967 124.138446 
L 196.129333 124.634648 
L 196.530067 124.725788 
L 196.730433 124.259965 
L 196.9308 124.148573 
L 197.131167 125.140977 
L 197.5319 124.259965 
L 197.732267 123.996674 
L 197.932633 124.219459 
L 198.133 123.976421 
L 198.533733 124.391611 
L 198.7341 124.523256 
L 199.134833 124.371357 
L 199.3352 123.966294 
L 199.535567 124.766294 
L 199.9363 124.543509 
L 200.136667 124.695408 
L 200.337033 124.300471 
L 200.5374 124.320724 
L 200.737767 124.523256 
L 200.938133 123.986547 
L 201.338867 123.794143 
L 201.539233 124.189079 
L 202.140333 124.219459 
L 202.3407 123.875155 
L 202.541067 124.513129 
L 203.142167 124.533383 
L 203.342533 123.601738 
L 203.5429 124.665028 
L 203.743267 123.844775 
L 204.144 124.503003 
L 204.344367 124.432117 
L 204.544733 124.746041 
L 204.7451 124.168826 
L 204.945467 124.340978 
L 205.145833 124.270092 
L 205.3462 124.503003 
L 205.746933 124.09794 
L 205.9473 124.553636 
L 206.147667 124.42199 
L 206.348033 123.784016 
L 206.5484 124.401737 
L 206.949133 124.462497 
L 207.1495 124.077687 
L 207.349867 124.756167 
L 208.151333 124.118193 
L 208.552067 124.462497 
L 208.752433 124.12832 
L 208.9528 124.644775 
L 209.153167 124.108066 
L 209.353533 124.462497 
L 209.754267 124.563762 
L 209.954633 124.168826 
L 210.355367 124.45237 
L 210.7561 124.523256 
L 210.956467 124.796674 
L 211.3572 124.06756 
L 211.557567 124.533383 
L 211.757933 124.300471 
L 211.9583 124.300471 
L 212.158667 124.108066 
L 212.359033 124.330851 
L 212.5594 124.816927 
L 212.759767 124.320724 
L 212.960133 124.86756 
L 213.1605 124.42199 
L 213.360867 124.381484 
L 213.561233 124.8068 
L 213.7616 124.735914 
L 213.961967 123.996674 
L 214.162333 124.401737 
L 214.3627 124.280218 
L 215.164167 124.340978 
L 215.364533 124.270092 
L 215.5649 124.432117 
L 215.765267 124.229585 
L 215.965633 124.361231 
L 216.166 124.138446 
L 216.366367 124.553636 
L 216.566733 124.03718 
L 216.7671 124.077687 
L 217.167833 124.614395 
L 217.3682 124.533383 
L 217.568567 123.996674 
L 217.9693 123.875155 
L 218.169667 124.077687 
L 218.5704 124.06756 
L 218.770767 124.371357 
L 218.971133 124.189079 
L 219.371867 124.604269 
L 219.572233 124.006801 
L 219.7726 124.725788 
L 219.972967 124.300471 
L 220.173333 124.746041 
L 220.3737 124.320724 
L 220.574067 124.584015 
L 221.175167 124.189079 
L 221.375533 124.644775 
L 221.5759 124.148573 
L 221.776267 124.634648 
L 221.976633 124.239712 
L 222.177 124.563762 
L 222.377367 124.189079 
L 222.577733 124.756167 
L 222.7781 124.158699 
L 222.978467 124.685281 
L 223.178833 124.442243 
L 223.3792 124.513129 
L 223.579567 124.219459 
L 223.9803 124.199206 
L 224.180667 124.634648 
L 224.5814 124.118193 
L 224.781767 124.594142 
L 224.982133 124.057434 
L 225.1825 124.361231 
L 225.382867 124.371357 
L 225.583233 124.239712 
L 225.7836 124.543509 
L 225.983967 124.006801 
L 226.184333 123.956168 
L 226.3847 124.087813 
L 226.585067 124.614395 
L 226.785433 124.624522 
L 227.186167 124.118193 
L 227.386533 124.027054 
L 227.5869 124.725788 
L 227.787267 124.057434 
L 227.987633 124.584015 
L 228.188 124.675155 
L 228.388367 124.290345 
L 229.189833 124.553636 
L 229.3902 124.695408 
L 229.9913 124.209332 
L 230.191667 124.766294 
L 230.392033 123.834649 
L 230.5924 124.83718 
L 231.1935 124.047307 
L 231.393867 124.472623 
L 231.594233 124.138446 
L 231.7946 124.614395 
L 231.994967 124.330851 
L 232.9968 124.158699 
L 233.197167 124.634648 
L 233.397533 124.270092 
L 233.5979 124.270092 
L 233.798267 124.604269 
L 233.998633 124.027054 
L 234.199 124.563762 
L 234.399367 124.584015 
L 234.599733 124.219459 
L 234.8001 124.270092 
L 235.000467 123.763763 
L 235.200833 124.816927 
L 235.4012 124.108066 
L 235.601567 124.199206 
L 235.801933 123.966294 
L 236.403033 124.45237 
L 236.6034 124.330851 
L 236.803767 124.351104 
L 237.004133 123.814396 
L 237.2045 124.371357 
L 237.404867 124.138446 
L 237.605233 124.138446 
L 237.8056 124.503003 
L 238.005967 124.371357 
L 238.4067 124.42199 
L 238.607067 124.148573 
L 238.807433 124.695408 
L 239.0078 124.533383 
L 239.208167 123.824522 
L 239.408533 123.824522 
L 239.6089 124.523256 
L 239.809267 124.229585 
L 240.009633 124.371357 
L 240.21 124.108066 
L 240.610733 124.624522 
L 241.011467 123.976421 
L 241.211833 123.956168 
L 241.612567 124.361231 
L 242.0133 124.006801 
L 242.213667 124.229585 
L 242.414033 123.986547 
L 242.6144 124.087813 
L 242.814767 124.604269 
L 243.2155 124.047307 
L 243.8166 124.462497 
L 244.016967 123.986547 
L 244.217333 124.492876 
L 244.4177 124.158699 
L 244.618067 124.178952 
L 244.818433 123.986547 
L 245.0188 124.340978 
L 245.219167 124.118193 
L 245.6199 125.070091 
L 245.820267 124.45237 
L 246.020633 124.796674 
L 246.221 124.239712 
L 246.421367 124.594142 
L 246.621733 123.875155 
L 246.8221 124.189079 
L 247.022467 124.270092 
L 247.222833 123.935915 
L 247.4232 124.178952 
L 247.623567 124.006801 
L 247.823933 124.027054 
L 248.0243 124.239712 
L 248.224667 124.148573 
L 248.425033 124.432117 
L 248.6254 124.12832 
L 248.825767 124.239712 
L 249.026133 124.077687 
L 249.2265 124.077687 
L 249.426867 124.300471 
L 249.627233 124.270092 
L 249.8276 124.624522 
L 250.027967 124.027054 
L 250.228333 124.189079 
L 250.4287 123.621991 
L 250.629067 123.723257 
L 250.829433 124.584015 
L 251.6309 123.844775 
L 251.831267 123.885282 
L 252.031633 124.057434 
L 252.232 124.45237 
L 252.432367 125.22199 
L 252.632733 124.978952 
L 252.8331 124.351104 
L 253.033467 124.604269 
L 253.233833 124.006801 
L 253.4342 123.946041 
L 253.634567 124.462497 
L 253.834933 124.543509 
L 254.0353 124.45237 
L 254.235667 124.584015 
L 254.436033 124.381484 
L 254.6364 124.614395 
L 254.836767 124.330851 
L 255.037133 124.270092 
L 255.2375 124.654901 
L 255.437867 124.42199 
L 255.638233 124.411864 
L 255.8386 124.675155 
L 256.038967 124.118193 
L 256.239333 123.925788 
L 256.4397 124.310598 
L 256.640067 124.958699 
L 257.0408 124.118193 
L 257.241167 124.756167 
L 257.441533 124.016927 
L 257.6419 124.573889 
L 257.842267 124.624522 
L 258.042633 124.340978 
L 258.243 124.584015 
L 258.443367 124.280218 
L 258.643733 124.654901 
L 259.4452 124.432117 
L 259.645567 123.946041 
L 259.845933 124.48275 
L 260.0463 124.553636 
L 260.246667 124.199206 
L 260.447033 124.290345 
L 260.6474 123.946041 
L 261.048133 124.259965 
L 261.2485 123.784016 
L 261.448867 124.06756 
L 261.649233 123.74351 
L 261.8496 125.049838 
L 262.049967 125.059965 
L 262.4507 124.138446 
L 262.651067 124.614395 
L 262.851433 123.946041 
L 263.0518 124.766294 
L 263.452533 123.703003 
L 263.6529 124.45237 
L 263.853267 123.986547 
L 264.053633 124.239712 
L 264.254 124.219459 
L 264.454367 123.986547 
L 264.8551 124.624522 
L 265.055467 124.229585 
L 265.4562 124.199206 
L 265.856933 124.695408 
L 266.0573 124.584015 
L 266.257667 124.178952 
L 266.458033 124.138446 
L 266.6584 124.685281 
L 266.858767 123.68275 
L 267.059133 124.199206 
L 267.2595 123.865029 
L 267.8606 124.553636 
L 268.261333 124.118193 
L 268.4617 124.270092 
L 268.662067 124.239712 
L 268.862433 124.634648 
L 269.0628 124.604269 
L 269.263167 124.958699 
L 269.463533 124.756167 
L 269.6639 124.178952 
L 270.064633 125.039711 
L 270.265 124.077687 
L 270.665733 124.016927 
L 270.8661 123.895408 
L 271.066467 124.300471 
L 271.4672 124.249838 
L 271.867933 123.996674 
L 272.0683 124.725788 
L 272.268667 124.330851 
L 272.469033 124.725788 
L 272.6694 124.09794 
L 273.070133 124.361231 
L 273.2705 123.905535 
L 273.470867 124.462497 
L 273.671233 124.118193 
L 273.8716 124.594142 
L 274.071967 124.573889 
L 274.4727 123.956168 
L 274.673067 124.300471 
L 274.873433 124.027054 
L 275.274167 124.361231 
L 275.474533 124.300471 
L 275.6749 124.665028 
L 275.875267 124.290345 
L 276.075633 124.330851 
L 276.476367 124.09794 
L 276.476367 124.09794 
" clip-path="url(#p5a70e69491)" style="fill: none; stroke: #1f77b4; stroke-linecap: square"/>
   </g>
   <g id="line2d_24">
    <path d="M 59.88 124.594142 
L 71.3009 124.594142 
L 71.501267 125.639098 
L 74.9075 125.753093 
L 75.107867 126.769551 
L 79.1152 126.834148 
L 79.315567 127.882904 
L 84.124367 127.934202 
L 84.324733 128.969659 
L 92.740133 129.003857 
L 92.9405 130.043114 
L 96.146367 130.103911 
L 96.346733 131.131768 
L 101.155533 131.175466 
L 101.3559 132.205223 
L 103.7603 132.260321 
L 107.3669 132.260321 
L 107.567267 133.305277 
L 111.774967 133.360375 
L 114.379733 133.295777 
L 114.780467 133.22358 
L 115.1812 133.149484 
L 115.982667 132.929093 
L 118.7878 132.929093 
L 118.988167 129.976617 
L 119.789633 130.075412 
L 120.5911 130.257805 
L 120.791467 132.668804 
L 121.392567 132.769499 
L 122.795133 133.094386 
L 189.316867 133.094386 
L 189.517233 235.167609 
L 276.476367 235.192308 
L 276.476367 235.192308 
" clip-path="url(#p5a70e69491)" style="fill: none; stroke: #ff7f0e; stroke-linecap: square"/>
   </g>
   <g id="line2d_25">
    <path d="M 59.88 124.594142 
L 60.080367 124.533383 
L 69.4976 124.391611 
L 72.102367 124.016927 
L 72.903833 123.946041 
L 75.5086 123.905535 
L 77.111533 124.087813 
L 78.113367 124.12832 
L 89.133533 124.219459 
L 90.135367 124.270092 
L 93.140867 124.178952 
L 94.543433 124.06756 
L 95.545267 124.03718 
L 96.5471 123.986547 
L 97.348567 123.946041 
L 97.949667 123.966294 
L 99.151867 123.976421 
L 102.157367 124.047307 
L 103.1592 124.03718 
L 103.960667 124.12832 
L 104.9625 124.118193 
L 107.3669 124.148573 
L 108.5691 124.108066 
L 110.172033 124.168826 
L 112.977167 124.199206 
L 113.177533 124.594142 
L 113.979 124.594142 
L 114.179367 124.351104 
L 114.379733 123.844775 
L 114.5801 123.844775 
L 114.780467 123.419459 
L 114.980833 123.348573 
L 115.581933 123.530852 
L 116.183033 123.561231 
L 117.385233 123.662497 
L 119.789633 123.196675 
L 120.991833 122.690346 
L 121.592933 122.153637 
L 122.795133 121.566296 
L 123.396233 121.576422 
L 125.600267 122.467561 
L 126.001 122.842244 
L 126.802467 123.29794 
L 127.403567 123.692877 
L 127.8043 124.148573 
L 128.605767 124.199206 
L 128.806133 124.229585 
L 129.0065 124.594142 
L 189.517233 124.533383 
L 190.3187 124.411864 
L 191.5209 124.391611 
L 192.7231 124.371357 
L 252.432367 124.290345 
L 253.233833 124.270092 
L 276.476367 124.330851 
L 276.476367 124.330851 
" clip-path="url(#p5a70e69491)" style="fill: none; stroke: #ff0000; stroke-linecap: square"/>
   </g>
   <g id="line2d_26">
    <path d="M 59.88 119.530854 
L 60.080367 119.419462 
L 68.495767 119.338449 
L 68.696133 119.176424 
L 69.4976 119.115665 
L 71.100533 118.710602 
L 72.302733 118.285285 
L 74.506767 118.011868 
L 77.111533 118.518197 
L 77.712633 118.599209 
L 78.113367 118.589083 
L 78.714467 118.528323 
L 80.718133 118.437184 
L 83.924 118.518197 
L 84.725467 118.609336 
L 86.3284 118.659969 
L 86.729133 118.599209 
L 87.330233 118.659969 
L 87.931333 118.639715 
L 88.532433 118.751108 
L 89.133533 118.791614 
L 89.935 118.882753 
L 92.740133 118.811867 
L 93.942333 118.619462 
L 94.7438 118.487817 
L 96.5471 118.325792 
L 97.348567 118.244779 
L 97.7493 118.234652 
L 98.751133 118.335918 
L 99.352233 118.305538 
L 100.554433 118.335918 
L 101.3559 118.427057 
L 101.756633 118.406804 
L 103.359567 118.497943 
L 103.960667 118.599209 
L 104.561767 118.548576 
L 106.565433 118.649842 
L 107.968 118.629589 
L 108.368733 118.548576 
L 110.3724 118.670095 
L 111.774967 118.629589 
L 112.1757 118.710602 
L 112.576433 118.761234 
L 112.977167 118.740981 
L 113.177533 119.530854 
L 113.979 119.530854 
L 114.179367 119.054905 
L 114.379733 118.032121 
L 114.5801 118.032121 
L 114.780467 117.181489 
L 114.980833 117.039717 
L 115.381567 117.373894 
L 117.5856 117.606805 
L 119.3889 117.201742 
L 119.99 116.563767 
L 120.991833 115.723262 
L 121.592933 114.649845 
L 122.795133 113.465035 
L 123.195867 113.434656 
L 123.5966 113.627061 
L 125.199533 114.821996 
L 125.600267 115.277692 
L 126.001 116.027059 
L 126.6021 116.685286 
L 127.403567 117.728324 
L 127.603933 118.376425 
L 127.8043 118.639715 
L 128.205033 118.629589 
L 128.806133 118.801741 
L 129.0065 119.530854 
L 189.316867 119.530854 
L 189.917967 119.125791 
L 191.120167 119.166297 
L 191.921633 119.054905 
L 250.4287 118.963766 
L 251.230167 118.913133 
L 254.436033 118.852374 
L 258.8441 118.933386 
L 259.4452 119.024525 
L 260.6474 119.014399 
L 266.0573 118.83212 
L 269.864267 118.92326 
L 276.476367 119.014399 
L 276.476367 119.014399 
" clip-path="url(#p5a70e69491)" style="fill: none; stroke: #008000; stroke-linecap: square"/>
   </g>
   <g id="line2d_27">
    <path d="M 59.88 119.530854 
L 781.2 119.530854 
" clip-path="url(#p5a70e69491)" style="fill: none; stroke-dasharray: 5.55,2.4; stroke-dashoffset: 0; stroke: #808080; stroke-opacity: 0.7; stroke-width: 1.5"/>
   </g>
   <g id="line2d_28">
    <path d="M 59.88 121.049841 
L 781.2 121.049841 
" clip-path="url(#p5a70e69491)" style="fill: none; stroke-dasharray: 5.55,2.4; stroke-dashoffset: 0; stroke: #008000; stroke-opacity: 0.7; stroke-width: 1.5"/>
   </g>
   <g id="line2d_29">
    <path d="M 189.517233 245.877656 
L 189.517233 10.8 
" clip-path="url(#p5a70e69491)" style="fill: none; stroke-dasharray: 1.5,2.475; stroke-dashoffset: 0; stroke: #1f77b4; stroke-opacity: 0.8; stroke-width: 1.5"/>
   </g>
   <g id="patch_8">
    <path d="M 59.88 245.877656 
L 59.88 10.8 
" style="fill: none; stroke: #000000; stroke-width: 0.8; stroke-linejoin: miter; stroke-linecap: square"/>
   </g>
   <g id="patch_9">
    <path d="M 781.2 245.877656 
L 781.2 10.8 
" style="fill: none; stroke: #000000; stroke-width: 0.8; stroke-linejoin: miter; stroke-linecap: square"/>
   </g>
   <g id="patch_10">
    <path d="M 59.88 245.877656 
L 781.2 245.877656 
" style="fill: none; stroke: #000000; stroke-width: 0.8; stroke-linejoin: miter; stroke-linecap: square"/>
   </g>
   <g id="patch_11">
    <path d="M 59.88 10.8 
L 781.2 10.8 
" style="fill: none; stroke: #000000; stroke-width: 0.8; stroke-linejoin: miter; stroke-linecap: square"/>
   </g>
   <g id="legend_1">
    <g id="patch_12">
     <path d="M 659.203125 108.804688 
L 774.2 108.804688 
Q 776.2 108.804688 776.2 106.804688 
L 776.2 17.8 
Q 776.2 15.8 774.2 15.8 
L 659.203125 15.8 
Q 657.203125 15.8 657.203125 17.8 
L 657.203125 106.804688 
Q 657.203125 108.804688 659.203125 108.804688 
z
" style="fill: #ffffff; opacity: 0.4; stroke: #cccccc; stroke-linejoin: miter"/>
    </g>
    <g id="line2d_30">
     <path d="M 661.203125 23.898438 
L 671.203125 23.898438 
L 681.203125 23.898438 
" style="fill: none; stroke: #1f77b4; stroke-linecap: square"/>
    </g>
    <g id="text_14">
     <!-- weight -->
     <g transform="translate(689.203125 27.398438) scale(0.1 -0.1)">
      <defs>
       <path id="DejaVuSans-5a" d="M 269 3500 
L 844 3500 
L 1563 769 
L 2278 3500 
L 2956 3500 
L 3675 769 
L 4391 3500 
L 4966 3500 
L 4050 0 
L 3372 0 
L 2619 2869 
L 1863 0 
L 1184 0 
L 269 3500 
z
" transform="scale(0.015625)"/>
       <path id="DejaVuSans-4b" d="M 3513 2113 
L 3513 0 
L 2938 0 
L 2938 2094 
Q 2938 2591 2744 2837 
Q 2550 3084 2163 3084 
Q 1697 3084 1428 2787 
Q 1159 2491 1159 1978 
L 1159 0 
L 581 0 
L 581 4863 
L 1159 4863 
L 1159 2956 
Q 1366 3272 1645 3428 
Q 1925 3584 2291 3584 
Q 2894 3584 3203 3211 
Q 3513 2838 3513 2113 
z
" transform="scale(0.015625)"/>
      </defs>
      <use xlink:href="#DejaVuSans-5a"/>
      <use xlink:href="#DejaVuSans-48" transform="translate(81.78125 0)"/>
      <use xlink:href="#DejaVuSans-4c" transform="translate(143.3125 0)"/>
      <use xlink:href="#DejaVuSans-4a" transform="translate(171.09375 0)"/>
      <use xlink:href="#DejaVuSans-4b" transform="translate(234.578125 0)"/>
      <use xlink:href="#DejaVuSans-57" transform="translate(297.953125 0)"/>
     </g>
    </g>
    <g id="line2d_31">
     <path d="M 661.203125 38.899219 
L 671.203125 38.899219 
L 681.203125 38.899219 
" style="fill: none; stroke: #ff7f0e; stroke-linecap: square"/>
    </g>
    <g id="text_15">
     <!-- offset drift (g) -->
     <g transform="translate(689.203125 42.399219) scale(0.1 -0.1)">
      <defs>
       <path id="DejaVuSans-52" d="M 1959 3097 
Q 1497 3097 1228 2736 
Q 959 2375 959 1747 
Q 959 1119 1226 758 
Q 1494 397 1959 397 
Q 2419 397 2687 759 
Q 2956 1122 2956 1747 
Q 2956 2369 2687 2733 
Q 2419 3097 1959 3097 
z
M 1959 3584 
Q 2709 3584 3137 3096 
Q 3566 2609 3566 1747 
Q 3566 888 3137 398 
Q 2709 -91 1959 -91 
Q 1206 -91 779 398 
Q 353 888 353 1747 
Q 353 2609 779 3096 
Q 1206 3584 1959 3584 
z
" transform="scale(0.015625)"/>
       <path id="DejaVuSans-13ae" d="M 4531 4863 
L 4531 4384 
L 3981 4384 
Q 3672 4384 3551 4259 
Q 3431 4134 3431 3809 
L 3431 3500 
L 4378 3500 
L 4378 3053 
L 3431 3053 
L 3431 0 
L 2853 0 
L 2853 3053 
L 1275 3053 
L 1275 0 
L 697 0 
L 697 3053 
L 147 3053 
L 147 3500 
L 697 3500 
L 697 3744 
Q 697 4328 969 4595 
Q 1241 4863 1831 4863 
L 2375 4863 
L 2375 4384 
L 1825 4384 
Q 1516 4384 1394 4259 
Q 1275 4134 1275 3809 
L 1275 3500 
L 2853 3500 
L 2853 3744 
Q 2853 4328 3125 4595 
Q 3397 4863 3988 4863 
L 4531 4863 
z
" transform="scale(0.015625)"/>
       <path id="DejaVuSans-3" transform="scale(0.015625)"/>
       <path id="DejaVuSans-47" d="M 2906 2969 
L 2906 4863 
L 3481 4863 
L 3481 0 
L 2906 0 
L 2906 525 
Q 2725 213 2448 61 
Q 2172 -91 1784 -91 
Q 1150 -91 751 415 
Q 353 922 353 1747 
Q 353 2572 751 3078 
Q 1150 3584 1784 3584 
Q 2172 3584 2448 3432 
Q 2725 3281 2906 2969 
z
M 947 1747 
Q 947 1113 1208 752 
Q 1469 391 1925 391 
Q 2381 391 2643 752 
Q 2906 1113 2906 1747 
Q 2906 2381 2643 2742 
Q 2381 3103 1925 3103 
Q 1469 3103 1208 2742 
Q 947 2381 947 1747 
z
" transform="scale(0.015625)"/>
       <path id="DejaVuSans-49" d="M 2375 4863 
L 2375 4384 
L 1825 4384 
Q 1516 4384 1395 4259 
Q 1275 4134 1275 3809 
L 1275 3500 
L 2222 3500 
L 2222 3053 
L 1275 3053 
L 1275 0 
L 697 0 
L 697 3053 
L 147 3053 
L 147 3500 
L 697 3500 
L 697 3744 
Q 697 4328 969 4595 
Q 1241 4863 1831 4863 
L 2375 4863 
z
" transform="scale(0.015625)"/>
       <path id="DejaVuSans-b" d="M 1984 4856 
Q 1566 4138 1362 3434 
Q 1159 2731 1159 2009 
Q 1159 1288 1364 580 
Q 1569 -128 1984 -844 
L 1484 -844 
Q 1016 -109 783 600 
Q 550 1309 550 2009 
Q 550 2706 781 3412 
Q 1013 4119 1484 4856 
L 1984 4856 
z
" transform="scale(0.015625)"/>
       <path id="DejaVuSans-c" d="M 513 4856 
L 1013 4856 
Q 1481 4119 1714 3412 
Q 1947 2706 1947 2009 
Q 1947 1309 1714 600 
Q 1481 -109 1013 -844 
L 513 -844 
Q 928 -128 1133 580 
Q 1338 1288 1338 2009 
Q 1338 2731 1133 3434 
Q 928 4138 513 4856 
z
" transform="scale(0.015625)"/>
      </defs>
      <use xlink:href="#DejaVuSans-52"/>
      <use xlink:href="#DejaVuSans-13ae" transform="translate(61.1875 0)"/>
      <use xlink:href="#DejaVuSans-56" transform="translate(130.078125 0)"/>
      <use xlink:href="#DejaVuSans-48" transform="translate(182.171875 0)"/>
      <use xlink:href="#DejaVuSans-57" transform="translate(243.703125 0)"/>
      <use xlink:href="#DejaVuSans-3" transform="translate(282.90625 0)"/>
      <use xlink:href="#DejaVuSans-47" transform="translate(314.6875 0)"/>
      <use xlink:href="#DejaVuSans-55" transform="translate(378.171875 0)"/>
      <use xlink:href="#DejaVuSans-4c" transform="translate(419.28125 0)"/>
      <use xlink:href="#DejaVuSans-49" transform="translate(447.0625 0)"/>
      <use xlink:href="#DejaVuSans-57" transform="translate(480.515625 0)"/>
      <use xlink:href="#DejaVuSans-3" transform="translate(519.71875 0)"/>
      <use xlink:href="#DejaVuSans-b" transform="translate(551.5 0)"/>
      <use xlink:href="#DejaVuSans-4a" transform="translate(590.515625 0)"/>
      <use xlink:href="#DejaVuSans-c" transform="translate(654 0)"/>
     </g>
    </g>
    <g id="line2d_32">
     <path d="M 661.203125 53.9 
L 671.203125 53.9 
L 681.203125 53.9 
" style="fill: none; stroke: #ff0000; stroke-linecap: square"/>
    </g>
    <g id="text_16">
     <!-- sigma -->
     <g transform="translate(689.203125 57.4) scale(0.1 -0.1)">
      <use xlink:href="#DejaVuSans-56"/>
      <use xlink:href="#DejaVuSans-4c" transform="translate(52.09375 0)"/>
      <use xlink:href="#DejaVuSans-4a" transform="translate(79.875 0)"/>
      <use xlink:href="#DejaVuSans-50" transform="translate(143.359375 0)"/>
      <use xlink:href="#DejaVuSans-44" transform="translate(240.765625 0)"/>
     </g>
    </g>
    <g id="line2d_33">
     <path d="M 661.203125 68.900781 
L 671.203125 68.900781 
L 681.203125 68.900781 
" style="fill: none; stroke: #008000; stroke-linecap: square"/>
    </g>
    <g id="text_17">
     <!-- threshold -->
     <g transform="translate(689.203125 72.400781) scale(0.1 -0.1)">
      <defs>
       <path id="DejaVuSans-4f" d="M 603 4863 
L 1178 4863 
L 1178 0 
L 603 0 
L 603 4863 
z
" transform="scale(0.015625)"/>
      </defs>
      <use xlink:href="#DejaVuSans-57"/>
      <use xlink:href="#DejaVuSans-4b" transform="translate(39.203125 0)"/>
      <use xlink:href="#DejaVuSans-55" transform="translate(102.578125 0)"/>
      <use xlink:href="#DejaVuSans-48" transform="translate(141.484375 0)"/>
      <use xlink:href="#DejaVuSans-56" transform="translate(203.015625 0)"/>
      <use xlink:href="#DejaVuSans-4b" transform="translate(255.109375 0)"/>
      <use xlink:href="#DejaVuSans-52" transform="translate(318.484375 0)"/>
      <use xlink:href="#DejaVuSans-4f" transform="translate(379.671875 0)"/>
      <use xlink:href="#DejaVuSans-47" transform="translate(407.453125 0)"/>
     </g>
    </g>
    <g id="line2d_34">
     <path d="M 661.203125 83.901563 
L 671.203125 83.901563 
L 681.203125 83.901563 
" style="fill: none; stroke-dasharray: 5.55,2.4; stroke-dashoffset: 0; stroke: #808080; stroke-opacity: 0.7; stroke-width: 1.5"/>
    </g>
    <g id="text_18">
     <!-- weightThreshold -->
     <g transform="translate(689.203125 87.401563) scale(0.1 -0.1)">
      <defs>
       <path id="DejaVuSans-37" d="M -19 4666 
L 3928 4666 
L 3928 4134 
L 2272 4134 
L 2272 0 
L 1638 0 
L 1638 4134 
L -19 4134 
L -19 4666 
z
" transform="scale(0.015625)"/>
      </defs>
      <use xlink:href="#DejaVuSans-5a"/>
      <use xlink:href="#DejaVuSans-48" transform="translate(81.78125 0)"/>
      <use xlink:href="#DejaVuSans-4c" transform="translate(143.3125 0)"/>
      <use xlink:href="#DejaVuSans-4a" transform="translate(171.09375 0)"/>
      <use xlink:href="#DejaVuSans-4b" transform="translate(234.578125 0)"/>
      <use xlink:href="#DejaVuSans-57" transform="translate(297.953125 0)"/>
      <use xlink:href="#DejaVuSans-37" transform="translate(337.15625 0)"/>
      <use xlink:href="#DejaVuSans-4b" transform="translate(398.234375 0)"/>
      <use xlink:href="#DejaVuSans-55" transform="translate(461.609375 0)"/>
      <use xlink:href="#DejaVuSans-48" transform="translate(500.515625 0)"/>
      <use xlink:href="#DejaVuSans-56" transform="translate(562.046875 0)"/>
      <use xlink:href="#DejaVuSans-4b" transform="translate(614.140625 0)"/>
      <use xlink:href="#DejaVuSans-52" transform="translate(677.515625 0)"/>
      <use xlink:href="#DejaVuSans-4f" transform="translate(738.703125 0)"/>
      <use xlink:href="#DejaVuSans-47" transform="translate(766.484375 0)"/>
     </g>
    </g>
    <g id="line2d_35">
     <path d="M 661.203125 98.902344 
L 671.203125 98.902344 
L 681.203125 98.902344 
" style="fill: none; stroke-dasharray: 5.55,2.4; stroke-dashoffset: 0; stroke: #008000; stroke-opacity: 0.7; stroke-width: 1.5"/>
    </g>
    <g id="text_19">
     <!-- threshold_off -->
     <g transform="translate(689.203125 102.402344) scale(0.1 -0.1)">
      <defs>
       <path id="DejaVuSans-42" d="M 3263 -1063 
L 3263 -1509 
L -63 -1509 
L -63 -1063 
L 3263 -1063 
z
" transform="scale(0.015625)"/>
      </defs>
      <use xlink:href="#DejaVuSans-57"/>
      <use xlink:href="#DejaVuSans-4b" transform="translate(39.203125 0)"/>
      <use xlink:href="#DejaVuSans-55" transform="translate(102.578125 0)"/>
      <use xlink:href="#DejaVuSans-48" transform="translate(141.484375 0)"/>
      <use xlink:href="#DejaVuSans-56" transform="translate(203.015625 0)"/>
      <use xlink:href="#DejaVuSans-4b" transform="translate(255.109375 0)"/>
      <use xlink:href="#DejaVuSans-52" transform="translate(318.484375 0)"/>
      <use xlink:href="#DejaVuSans-4f" transform="translate(379.671875 0)"/>
      <use xlink:href="#DejaVuSans-47" transform="translate(407.453125 0)"/>
      <use xlink:href="#DejaVuSans-42" transform="translate(470.9375 0)"/>
      <use xlink:href="#DejaVuSans-52" transform="translate(520.9375 0)"/>
      <use xlink:href="#DejaVuSans-13ae" transform="translate(582.125 0)"/>
     </g>
    </g>
   </g>
  </g>
 </g>
 <defs>
  <clipPath id="p5a70e69491">
   <rect x="59.88" y="10.8" width="721.32" height="235.077656"/>
  </clipPath>
 </defs>
</svg>
