<?xml version="1.0" encoding="utf-8" standalone="no"?>
<!DOCTYPE svg PUBLIC "-//W3C//DTD SVG 1.1//EN"
  "http://www.w3.org/Graphics/SVG/1.1/DTD/svg11.dtd">
<svg xmlns:xlink="http://www.w3.org/1999/xlink" width="792pt" height="288pt" viewBox="0 0 792 288" xmlns="http://www.w3.org/2000/svg" version="1.1">
 <metadata>
  <rdf:RDF xmlns:dc="http://purl.org/dc/elements/1.1/" xmlns:cc="http://creativecommons.org/ns#" xmlns:rdf="http://www.w3.org/1999/02/22-rdf-syntax-ns#">
   <cc:Work>
    <dc:type rdf:resource="http://purl.org/dc/dcmitype/StillImage"/>
    <dc:date>2026-08-25T22:24:35.297129</dc:date>
    <dc:format>image/svg+xml</dc:format>
    <dc:creator>
     <cc:Agent>
      <dc:title>Matplotlib v3.11.1, https://matplotlib.org/</dc:title>
     </cc:Agent>
    </dc:creator>
   </cc:Work>
  </rdf:RDF>
 </metadata>
 <defs>
  <style type="text/css">*{stroke-linejoin: round; stroke-linecap: butt}</style>
 </defs>
 <g id="figure_1">
  <g id="patch_1">
   <path d="M 0 288 
L 792 288 
L 792 0 
L 0 0 
z
" style="fill: #ffffff"/>
  </g>
  <g id="axes_1">
   <g id="patch_2">
    <path d="M 46.92 245.877656 
L 781.2 245.877656 
L 781.2 10.8 
L 46.92 10.8 
z
" style="fill: #ffffff"/>
   </g>
   <g id="patch_3">
    <path d="M 125.2432 245.877656 
L 125.2432 245.877656 
L 125.2432 10.8 
L 125.2432 10.8 
z
" clip-path="url(#p8bc54108d1)" style="fill: #1f77b4; opacity: 0.08"/>
   </g>
   <g id="patch_4">
    <path d="M 125.447167 245.877656 
L 127.894767 245.877656 
L 127.894767 10.8 
L 125.447167 10.8 
z
" clip-path="url(#p8bc54108d1)" style="fill: #1f77b4; opacity: 0.08"/>
   </g>
   <g id="patch_5">
    <path d="M 127.894767 245.877656 
L 128.3027 245.877656 
L 128.3027 10.8 
L 127.894767 10.8 
z
" clip-path="url(#p8bc54108d1)" style="fill: #1f77b4; opacity: 0.08"/>
   </g>
   <g id="patch_6">
    <path d="M 138.297067 245.877656 
L 138.501033 245.877656 
L 138.501033 10.8 
L 138.297067 10.8 
z
" clip-path="url(#p8bc54108d1)" style="fill: #1f77b4; opacity: 0.08"/>
   </g>
   <g id="patch_7">
    <path d="M 138.705 245.877656 
L 140.948633 245.877656 
L 140.948633 10.8 
L 138.705 10.8 
z
" clip-path="url(#p8bc54108d1)" style="fill: #1f77b4; opacity: 0.08"/>
   </g>
   <g id="patch_8">
    <path d="M 141.1526 245.877656 
L 141.356567 245.877656 
L 141.356567 10.8 
L 141.1526 10.8 
z
" clip-path="url(#p8bc54108d1)" style="fill: #1f77b4; opacity: 0.08"/>
   </g>
   <g id="matplotlib.axis_1">
    <g id="xtick_1">
     <g id="line2d_1">
      <path d="M 115.248833 245.877656 
L 115.248833 10.8 
" clip-path="url(#p8bc54108d1)" style="fill: none; stroke: #b0b0b0; stroke-opacity: 0.3; stroke-width: 0.8; stroke-linecap: square"/>
     </g>
     <g id="line2d_2">
      <defs>
       <path id="maae85046c4" d="M 0 0 
L 0 3.5 
" style="stroke: #000000; stroke-width: 0.8"/>
      </defs>
      <g>
       <use xlink:href="#maae85046c4" x="115.248833" y="245.877656" style="stroke: #000000; stroke-width: 0.8"/>
      </g>
     </g>
     <g id="text_1">
      <!-- 21:00 -->
      <g transform="translate(100.839458 260.475312) scale(0.1 -0.1)">
       <defs>
        <path id="DejaVuSans-15" d="M 1228 531 
L 3431 531 
L 3431 0 
L 469 0 
L 469 531 
Q 828 903 1448 1529 
Q 2069 2156 2228 2338 
Q 2531 2678 2651 2914 
Q 2772 3150 2772 3378 
Q 2772 3750 2511 3984 
Q 2250 4219 1831 4219 
Q 1534 4219 1204 4116 
Q 875 4013 500 3803 
L 500 4441 
Q 881 4594 1212 4672 
Q 1544 4750 1819 4750 
Q 2544 4750 2975 4387 
Q 3406 4025 3406 3419 
Q 3406 3131 3298 2873 
Q 3191 2616 2906 2266 
Q 2828 2175 2409 1742 
Q 1991 1309 1228 531 
z
" transform="scale(0.015625)"/>
        <path id="DejaVuSans-14" d="M 794 531 
L 1825 531 
L 1825 4091 
L 703 3866 
L 703 4441 
L 1819 4666 
L 2450 4666 
L 2450 531 
L 3481 531 
L 3481 0 
L 794 0 
L 794 531 
z
" transform="scale(0.015625)"/>
        <path id="DejaVuSans-1d" d="M 750 794 
L 1409 794 
L 1409 0 
L 750 0 
L 750 794 
z
M 750 3309 
L 1409 3309 
L 1409 2516 
L 750 2516 
L 750 3309 
z
" transform="scale(0.015625)"/>
        <path id="DejaVuSans-13" d="M 2034 4250 
Q 1547 4250 1301 3770 
Q 1056 3291 1056 2328 
Q 1056 1369 1301 889 
Q 1547 409 2034 409 
Q 2525 409 2770 889 
Q 3016 1369 3016 2328 
Q 3016 3291 2770 3770 
Q 2525 4250 2034 4250 
z
M 2034 4750 
Q 2819 4750 3233 4129 
Q 3647 3509 3647 2328 
Q 3647 1150 3233 529 
Q 2819 -91 2034 -91 
Q 1250 -91 836 529 
Q 422 1150 422 2328 
Q 422 3509 836 4129 
Q 1250 4750 2034 4750 
z
" transform="scale(0.015625)"/>
       </defs>
       <use xlink:href="#DejaVuSans-15"/>
       <use xlink:href="#DejaVuSans-14" transform="translate(63.625 0)"/>
       <use xlink:href="#DejaVuSans-1d" transform="translate(127.25 0)"/>
       <use xlink:href="#DejaVuSans-13" transform="translate(160.9375 0)"/>
       <use xlink:href="#DejaVuSans-13" transform="translate(224.5625 0)"/>
      </g>
     </g>
    </g>
    <g id="xtick_2">
     <g id="line2d_3">
      <path d="M 237.628833 245.877656 
L 237.628833 10.8 
" clip-path="url(#p8bc54108d1)" style="fill: none; stroke: #b0b0b0; stroke-opacity: 0.3; stroke-width: 0.8; stroke-linecap: square"/>
     </g>
     <g id="line2d_4">
      <g>
       <use xlink:href="#maae85046c4" x="237.628833" y="245.877656" style="stroke: #000000; stroke-width: 0.8"/>
      </g>
     </g>
     <g id="text_2">
      <!-- 21:10 -->
      <g transform="translate(223.219458 260.475312) scale(0.1 -0.1)">
       <use xlink:href="#DejaVuSans-15"/>
       <use xlink:href="#DejaVuSans-14" transform="translate(63.625 0)"/>
       <use xlink:href="#DejaVuSans-1d" transform="translate(127.25 0)"/>
       <use xlink:href="#DejaVuSans-14" transform="translate(160.9375 0)"/>
       <use xlink:href="#DejaVuSans-13" transform="translate(224.5625 0)"/>
      </g>
     </g>
    </g>
    <g id="xtick_3">
     <g id="line2d_5">
      <path d="M 360.008833 245.877656 
L 360.008833 10.8 
" clip-path="url(#p8bc54108d1)" style="fill: none; stroke: #b0b0b0; stroke-opacity: 0.3; stroke-width: 0.8; stroke-linecap: square"/>
     </g>
     <g id="line2d_6">
      <g>
       <use xlink:href="#maae85046c4" x="360.008833" y="245.877656" style="stroke: #000000; stroke-width: 0.8"/>
      </g>
     </g>
     <g id="text_3">
      <!-- 21:20 -->
      <g transform="translate(345.599458 260.475312) scale(0.1 -0.1)">
       <use xlink:href="#DejaVuSans-15"/>
       <use xlink:href="#DejaVuSans-14" transform="translate(63.625 0)"/>
       <use xlink:href="#DejaVuSans-1d" transform="translate(127.25 0)"/>
       <use xlink:href="#DejaVuSans-15" transform="translate(160.9375 0)"/>
       <use xlink:href="#DejaVuSans-13" transform="translate(224.5625 0)"/>
      </g>
     </g>
    </g>
    <g id="xtick_4">
     <g id="line2d_7">
      <path d="M 482.388833 245.877656 
L 482.388833 10.8 
" clip-path="url(#p8bc54108d1)" style="fill: none; stroke: #b0b0b0; stroke-opacity: 0.3; stroke-width: 0.8; stroke-linecap: square"/>
     </g>
     <g id="line2d_8">
      <g>
       <use xlink:href="#maae85046c4" x="482.388833" y="245.877656" style="stroke: #000000; stroke-width: 0.8"/>
      </g>
     </g>
     <g id="text_4">
      <!-- 21:30 -->
      <g transform="translate(467.979458 260.475312) scale(0.1 -0.1)">
       <defs>
        <path id="DejaVuSans-16" d="M 2597 2516 
Q 3050 2419 3304 2112 
Q 3559 1806 3559 1356 
Q 3559 666 3084 287 
Q 2609 -91 1734 -91 
Q 1441 -91 1130 -33 
Q 819 25 488 141 
L 488 750 
Q 750 597 1062 519 
Q 1375 441 1716 441 
Q 2309 441 2620 675 
Q 2931 909 2931 1356 
Q 2931 1769 2642 2001 
Q 2353 2234 1838 2234 
L 1294 2234 
L 1294 2753 
L 1863 2753 
Q 2328 2753 2575 2939 
Q 2822 3125 2822 3475 
Q 2822 3834 2567 4026 
Q 2313 4219 1838 4219 
Q 1578 4219 1281 4162 
Q 984 4106 628 3988 
L 628 4550 
Q 988 4650 1302 4700 
Q 1616 4750 1894 4750 
Q 2613 4750 3031 4423 
Q 3450 4097 3450 3541 
Q 3450 3153 3228 2886 
Q 3006 2619 2597 2516 
z
" transform="scale(0.015625)"/>
       </defs>
       <use xlink:href="#DejaVuSans-15"/>
       <use xlink:href="#DejaVuSans-14" transform="translate(63.625 0)"/>
       <use xlink:href="#DejaVuSans-1d" transform="translate(127.25 0)"/>
       <use xlink:href="#DejaVuSans-16" transform="translate(160.9375 0)"/>
       <use xlink:href="#DejaVuSans-13" transform="translate(224.5625 0)"/>
      </g>
     </g>
    </g>
    <g id="xtick_5">
     <g id="line2d_9">
      <path d="M 604.768833 245.877656 
L 604.768833 10.8 
" clip-path="url(#p8bc54108d1)" style="fill: none; stroke: #b0b0b0; stroke-opacity: 0.3; stroke-width: 0.8; stroke-linecap: square"/>
     </g>
     <g id="line2d_10">
      <g>
       <use xlink:href="#maae85046c4" x="604.768833" y="245.877656" style="stroke: #000000; stroke-width: 0.8"/>
      </g>
     </g>
     <g id="text_5">
      <!-- 21:40 -->
      <g transform="translate(590.359458 260.475312) scale(0.1 -0.1)">
       <defs>
        <path id="DejaVuSans-17" d="M 2419 4116 
L 825 1625 
L 2419 1625 
L 2419 4116 
z
M 2253 4666 
L 3047 4666 
L 3047 1625 
L 3713 1625 
L 3713 1100 
L 3047 1100 
L 3047 0 
L 2419 0 
L 2419 1100 
L 313 1100 
L 313 1709 
L 2253 4666 
z
" transform="scale(0.015625)"/>
       </defs>
       <use xlink:href="#DejaVuSans-15"/>
       <use xlink:href="#DejaVuSans-14" transform="translate(63.625 0)"/>
       <use xlink:href="#DejaVuSans-1d" transform="translate(127.25 0)"/>
       <use xlink:href="#DejaVuSans-17" transform="translate(160.9375 0)"/>
       <use xlink:href="#DejaVuSans-13" transform="translate(224.5625 0)"/>
      </g>
     </g>
    </g>
    <g id="xtick_6">
     <g id="line2d_11">
      <path d="M 727.148833 245.877656 
L 727.148833 10.8 
" clip-path="url(#p8bc54108d1)" style="fill: none; stroke: #b0b0b0; stroke-opacity: 0.3; stroke-width: 0.8; stroke-linecap: square"/>
     </g>
     <g id="line2d_12">
      <g>
       <use xlink:href="#maae85046c4" x="727.148833" y="245.877656" style="stroke: #000000; stroke-width: 0.8"/>
      </g>
     </g>
     <g id="text_6">
      <!-- 21:50 -->
      <g transform="translate(712.739458 260.475312) scale(0.1 -0.1)">
       <defs>
        <path id="DejaVuSans-18" d="M 691 4666 
L 3169 4666 
L 3169 4134 
L 1269 4134 
L 1269 2991 
Q 1406 3038 1543 3061 
Q 1681 3084 1819 3084 
Q 2600 3084 3056 2656 
Q 3513 2228 3513 1497 
Q 3513 744 3044 326 
Q 2575 -91 1722 -91 
Q 1428 -91 1123 -41 
Q 819 9 494 109 
L 494 744 
Q 775 591 1075 516 
Q 1375 441 1709 441 
Q 2250 441 2565 725 
Q 2881 1009 2881 1497 
Q 2881 1984 2565 2268 
Q 2250 2553 1709 2553 
Q 1456 2553 1204 2497 
Q 953 2441 691 2322 
L 691 4666 
z
" transform="scale(0.015625)"/>
       </defs>
       <use xlink:href="#DejaVuSans-15"/>
       <use xlink:href="#DejaVuSans-14" transform="translate(63.625 0)"/>
       <use xlink:href="#DejaVuSans-1d" transform="translate(127.25 0)"/>
       <use xlink:href="#DejaVuSans-18" transform="translate(160.9375 0)"/>
       <use xlink:href="#DejaVuSans-13" transform="translate(224.5625 0)"/>
      </g>
     </g>
    </g>
    <g id="text_7">
     <!-- time -->
     <g transform="translate(402.763906 274.476094) scale(0.1 -0.1)">
      <defs>
       <path id="DejaVuSans-57" d="M 1172 4494 
L 1172 3500 
L 2356 3500 
L 2356 3053 
L 1172 3053 
L 1172 1153 
Q 1172 725 1289 603 
Q 1406 481 1766 481 
L 2356 481 
L 2356 0 
L 1766 0 
Q 1100 0 847 248 
Q 594 497 594 1153 
L 594 3053 
L 172 3053 
L 172 3500 
L 594 3500 
L 594 4494 
L 1172 4494 
z
" transform="scale(0.015625)"/>
       <path id="DejaVuSans-4c" d="M 603 3500 
L 1178 3500 
L 1178 0 
L 603 0 
L 603 3500 
z
M 603 4863 
L 1178 4863 
L 1178 4134 
L 603 4134 
L 603 4863 
z
" transform="scale(0.015625)"/>
       <path id="DejaVuSans-50" d="M 3328 2828 
Q 3544 3216 3844 3400 
Q 4144 3584 4550 3584 
Q 5097 3584 5394 3201 
Q 5691 2819 5691 2113 
L 5691 0 
L 5113 0 
L 5113 2094 
Q 5113 2597 4934 2840 
Q 4756 3084 4391 3084 
Q 3944 3084 3684 2787 
Q 3425 2491 3425 1978 
L 3425 0 
L 2847 0 
L 2847 2094 
Q 2847 2600 2669 2842 
Q 2491 3084 2119 3084 
Q 1678 3084 1418 2786 
Q 1159 2488 1159 1978 
L 1159 0 
L 581 0 
L 581 3500 
L 1159 3500 
L 1159 2956 
Q 1356 3278 1631 3431 
Q 1906 3584 2284 3584 
Q 2666 3584 2933 3390 
Q 3200 3197 3328 2828 
z
" transform="scale(0.015625)"/>
       <path id="DejaVuSans-48" d="M 3597 1894 
L 3597 1613 
L 953 1613 
Q 991 1019 1311 708 
Q 1631 397 2203 397 
Q 2534 397 2845 478 
Q 3156 559 3463 722 
L 3463 178 
Q 3153 47 2828 -22 
Q 2503 -91 2169 -91 
Q 1331 -91 842 396 
Q 353 884 353 1716 
Q 353 2575 817 3079 
Q 1281 3584 2069 3584 
Q 2775 3584 3186 3129 
Q 3597 2675 3597 1894 
z
M 3022 2063 
Q 3016 2534 2758 2815 
Q 2500 3097 2075 3097 
Q 1594 3097 1305 2825 
Q 1016 2553 972 2059 
L 3022 2063 
z
" transform="scale(0.015625)"/>
      </defs>
      <use xlink:href="#DejaVuSans-57"/>
      <use xlink:href="#DejaVuSans-4c" transform="translate(39.203125 0)"/>
      <use xlink:href="#DejaVuSans-50" transform="translate(66.984375 0)"/>
      <use xlink:href="#DejaVuSans-48" transform="translate(164.390625 0)"/>
     </g>
    </g>
   </g>
   <g id="matplotlib.axis_2">
    <g id="ytick_1">
     <g id="line2d_13">
      <path d="M 46.92 231.704848 
L 781.2 231.704848 
" clip-path="url(#p8bc54108d1)" style="fill: none; stroke: #b0b0b0; stroke-opacity: 0.3; stroke-width: 0.8; stroke-linecap: square"/>
     </g>
     <g id="line2d_14">
      <defs>
       <path id="m4693ea2b20" d="M 0 0 
L -3.5 0 
" style="stroke: #000000; stroke-width: 0.8"/>
      </defs>
      <g>
       <use xlink:href="#m4693ea2b20" x="46.92" y="231.704848" style="stroke: #000000; stroke-width: 0.8"/>
      </g>
     </g>
     <g id="text_8">
      <!-- −5 -->
      <g transform="translate(25.177813 235.503677) scale(0.1 -0.1)">
       <defs>
        <path id="DejaVuSans-c9c" d="M 678 2272 
L 4684 2272 
L 4684 1741 
L 678 1741 
L 678 2272 
z
" transform="scale(0.015625)"/>
       </defs>
       <use xlink:href="#DejaVuSans-c9c"/>
       <use xlink:href="#DejaVuSans-18" transform="translate(83.796875 0)"/>
      </g>
     </g>
    </g>
    <g id="ytick_2">
     <g id="line2d_15">
      <path d="M 46.92 203.119113 
L 781.2 203.119113 
" clip-path="url(#p8bc54108d1)" style="fill: none; stroke: #b0b0b0; stroke-opacity: 0.3; stroke-width: 0.8; stroke-linecap: square"/>
     </g>
     <g id="line2d_16">
      <g>
       <use xlink:href="#m4693ea2b20" x="46.92" y="203.119113" style="stroke: #000000; stroke-width: 0.8"/>
      </g>
     </g>
     <g id="text_9">
      <!-- 0 -->
      <g transform="translate(33.5575 206.917941) scale(0.1 -0.1)">
       <use xlink:href="#DejaVuSans-13"/>
      </g>
     </g>
    </g>
    <g id="ytick_3">
     <g id="line2d_17">
      <path d="M 46.92 174.533377 
L 781.2 174.533377 
" clip-path="url(#p8bc54108d1)" style="fill: none; stroke: #b0b0b0; stroke-opacity: 0.3; stroke-width: 0.8; stroke-linecap: square"/>
     </g>
     <g id="line2d_18">
      <g>
       <use xlink:href="#m4693ea2b20" x="46.92" y="174.533377" style="stroke: #000000; stroke-width: 0.8"/>
      </g>
     </g>
     <g id="text_10">
      <!-- 5 -->
      <g transform="translate(33.5575 178.332205) scale(0.1 -0.1)">
       <use xlink:href="#DejaVuSans-18"/>
      </g>
     </g>
    </g>
    <g id="ytick_4">
     <g id="line2d_19">
      <path d="M 46.92 145.947641 
L 781.2 145.947641 
" clip-path="url(#p8bc54108d1)" style="fill: none; stroke: #b0b0b0; stroke-opacity: 0.3; stroke-width: 0.8; stroke-linecap: square"/>
     </g>
     <g id="line2d_20">
      <g>
       <use xlink:href="#m4693ea2b20" x="46.92" y="145.947641" style="stroke: #000000; stroke-width: 0.8"/>
      </g>
     </g>
     <g id="text_11">
      <!-- 10 -->
      <g transform="translate(27.195 149.746469) scale(0.1 -0.1)">
       <use xlink:href="#DejaVuSans-14"/>
       <use xlink:href="#DejaVuSans-13" transform="translate(63.625 0)"/>
      </g>
     </g>
    </g>
    <g id="ytick_5">
     <g id="line2d_21">
      <path d="M 46.92 117.361906 
L 781.2 117.361906 
" clip-path="url(#p8bc54108d1)" style="fill: none; stroke: #b0b0b0; stroke-opacity: 0.3; stroke-width: 0.8; stroke-linecap: square"/>
     </g>
     <g id="line2d_22">
      <g>
       <use xlink:href="#m4693ea2b20" x="46.92" y="117.361906" style="stroke: #000000; stroke-width: 0.8"/>
      </g>
     </g>
     <g id="text_12">
      <!-- 15 -->
      <g transform="translate(27.195 121.160734) scale(0.1 -0.1)">
       <use xlink:href="#DejaVuSans-14"/>
       <use xlink:href="#DejaVuSans-18" transform="translate(63.625 0)"/>
      </g>
     </g>
    </g>
    <g id="ytick_6">
     <g id="line2d_23">
      <path d="M 46.92 88.77617 
L 781.2 88.77617 
" clip-path="url(#p8bc54108d1)" style="fill: none; stroke: #b0b0b0; stroke-opacity: 0.3; stroke-width: 0.8; stroke-linecap: square"/>
     </g>
     <g id="line2d_24">
      <g>
       <use xlink:href="#m4693ea2b20" x="46.92" y="88.77617" style="stroke: #000000; stroke-width: 0.8"/>
      </g>
     </g>
     <g id="text_13">
      <!-- 20 -->
      <g transform="translate(27.195 92.574998) scale(0.1 -0.1)">
       <use xlink:href="#DejaVuSans-15"/>
       <use xlink:href="#DejaVuSans-13" transform="translate(63.625 0)"/>
      </g>
     </g>
    </g>
    <g id="ytick_7">
     <g id="line2d_25">
      <path d="M 46.92 60.190434 
L 781.2 60.190434 
" clip-path="url(#p8bc54108d1)" style="fill: none; stroke: #b0b0b0; stroke-opacity: 0.3; stroke-width: 0.8; stroke-linecap: square"/>
     </g>
     <g id="line2d_26">
      <g>
       <use xlink:href="#m4693ea2b20" x="46.92" y="60.190434" style="stroke: #000000; stroke-width: 0.8"/>
      </g>
     </g>
     <g id="text_14">
      <!-- 25 -->
      <g transform="translate(27.195 63.989262) scale(0.1 -0.1)">
       <use xlink:href="#DejaVuSans-15"/>
       <use xlink:href="#DejaVuSans-18" transform="translate(63.625 0)"/>
      </g>
     </g>
    </g>
    <g id="ytick_8">
     <g id="line2d_27">
      <path d="M 46.92 31.604698 
L 781.2 31.604698 
" clip-path="url(#p8bc54108d1)" style="fill: none; stroke: #b0b0b0; stroke-opacity: 0.3; stroke-width: 0.8; stroke-linecap: square"/>
     </g>
     <g id="line2d_28">
      <g>
       <use xlink:href="#m4693ea2b20" x="46.92" y="31.604698" style="stroke: #000000; stroke-width: 0.8"/>
      </g>
     </g>
     <g id="text_15">
      <!-- 30 -->
      <g transform="translate(27.195 35.403527) scale(0.1 -0.1)">
       <use xlink:href="#DejaVuSans-16"/>
       <use xlink:href="#DejaVuSans-13" transform="translate(63.625 0)"/>
      </g>
     </g>
    </g>
    <g id="text_16">
     <!-- grams -->
     <g transform="translate(18.775469 144.107578) rotate(-90) scale(0.1 -0.1)">
      <defs>
       <path id="DejaVuSans-4a" d="M 2906 1791 
Q 2906 2416 2648 2759 
Q 2391 3103 1925 3103 
Q 1463 3103 1205 2759 
Q 947 2416 947 1791 
Q 947 1169 1205 825 
Q 1463 481 1925 481 
Q 2391 481 2648 825 
Q 2906 1169 2906 1791 
z
M 3481 434 
Q 3481 -459 3084 -895 
Q 2688 -1331 1869 -1331 
Q 1566 -1331 1297 -1286 
Q 1028 -1241 775 -1147 
L 775 -588 
Q 1028 -725 1275 -790 
Q 1522 -856 1778 -856 
Q 2344 -856 2625 -561 
Q 2906 -266 2906 331 
L 2906 616 
Q 2728 306 2450 153 
Q 2172 0 1784 0 
Q 1141 0 747 490 
Q 353 981 353 1791 
Q 353 2603 747 3093 
Q 1141 3584 1784 3584 
Q 2172 3584 2450 3431 
Q 2728 3278 2906 2969 
L 2906 3500 
L 3481 3500 
L 3481 434 
z
" transform="scale(0.015625)"/>
       <path id="DejaVuSans-55" d="M 2631 2963 
Q 2534 3019 2420 3045 
Q 2306 3072 2169 3072 
Q 1681 3072 1420 2755 
Q 1159 2438 1159 1844 
L 1159 0 
L 581 0 
L 581 3500 
L 1159 3500 
L 1159 2956 
Q 1341 3275 1631 3429 
Q 1922 3584 2338 3584 
Q 2397 3584 2469 3576 
Q 2541 3569 2628 3553 
L 2631 2963 
z
" transform="scale(0.015625)"/>
       <path id="DejaVuSans-44" d="M 2194 1759 
Q 1497 1759 1228 1600 
Q 959 1441 959 1056 
Q 959 750 1161 570 
Q 1363 391 1709 391 
Q 2188 391 2477 730 
Q 2766 1069 2766 1631 
L 2766 1759 
L 2194 1759 
z
M 3341 1997 
L 3341 0 
L 2766 0 
L 2766 531 
Q 2569 213 2275 61 
Q 1981 -91 1556 -91 
Q 1019 -91 701 211 
Q 384 513 384 1019 
Q 384 1609 779 1909 
Q 1175 2209 1959 2209 
L 2766 2209 
L 2766 2266 
Q 2766 2663 2505 2880 
Q 2244 3097 1772 3097 
Q 1472 3097 1187 3025 
Q 903 2953 641 2809 
L 641 3341 
Q 956 3463 1253 3523 
Q 1550 3584 1831 3584 
Q 2591 3584 2966 3190 
Q 3341 2797 3341 1997 
z
" transform="scale(0.015625)"/>
       <path id="DejaVuSans-56" d="M 2834 3397 
L 2834 2853 
Q 2591 2978 2328 3040 
Q 2066 3103 1784 3103 
Q 1356 3103 1142 2972 
Q 928 2841 928 2578 
Q 928 2378 1081 2264 
Q 1234 2150 1697 2047 
L 1894 2003 
Q 2506 1872 2764 1633 
Q 3022 1394 3022 966 
Q 3022 478 2636 193 
Q 2250 -91 1575 -91 
Q 1294 -91 989 -36 
Q 684 19 347 128 
L 347 722 
Q 666 556 975 473 
Q 1284 391 1588 391 
Q 1994 391 2212 530 
Q 2431 669 2431 922 
Q 2431 1156 2273 1281 
Q 2116 1406 1581 1522 
L 1381 1569 
Q 847 1681 609 1914 
Q 372 2147 372 2553 
Q 372 3047 722 3315 
Q 1072 3584 1716 3584 
Q 2034 3584 2315 3537 
Q 2597 3491 2834 3397 
z
" transform="scale(0.015625)"/>
      </defs>
      <use xlink:href="#DejaVuSans-4a"/>
      <use xlink:href="#DejaVuSans-55" transform="translate(63.484375 0)"/>
      <use xlink:href="#DejaVuSans-44" transform="translate(104.59375 0)"/>
      <use xlink:href="#DejaVuSans-50" transform="translate(165.875 0)"/>
      <use xlink:href="#DejaVuSans-56" transform="translate(263.28125 0)"/>
     </g>
    </g>
   </g>
   <g id="line2d_29">
    <path d="M 46.92 203.119113 
L 47.123967 202.090026 
L 47.327933 202.547398 
L 47.5319 203.347799 
L 47.939833 200.889425 
L 48.1438 204.5484 
L 48.551733 202.090026 
L 48.7557 203.576485 
L 48.959667 204.205371 
L 49.163633 202.490227 
L 49.3676 206.149201 
L 49.571567 203.80517 
L 49.775533 206.720915 
L 49.9795 206.435058 
L 50.183467 207.464145 
L 50.387433 205.806172 
L 50.5914 206.092029 
L 50.795367 202.261541 
L 50.999333 201.175283 
L 51.2033 203.747999 
L 51.407267 199.51731 
L 51.611233 201.86134 
L 51.8152 201.975683 
L 52.019167 204.605571 
L 52.223133 199.803167 
L 52.4271 199.860339 
L 52.631067 200.889425 
L 52.835033 205.691829 
L 53.039 204.091028 
L 53.242967 203.862342 
L 53.446933 203.862342 
L 53.6509 202.60457 
L 53.854867 205.062943 
L 54.058833 204.033856 
L 54.2628 203.862342 
L 54.466767 204.148199 
L 54.670733 201.232454 
L 54.8747 204.491228 
L 55.078667 203.061941 
L 55.282633 202.661741 
L 55.4866 201.518312 
L 55.690567 204.662742 
L 55.894533 202.147198 
L 56.0985 203.061941 
L 56.302467 201.118111 
L 56.7104 203.290627 
L 56.914367 202.890427 
L 57.118333 206.034858 
L 57.3223 203.519313 
L 57.526267 204.662742 
L 57.730233 204.319714 
L 57.9342 204.719914 
L 58.138167 199.91751 
L 58.342133 202.147198 
L 58.5461 202.204369 
L 58.750067 201.804169 
L 58.954033 203.862342 
L 59.158 203.233456 
L 59.361967 201.632655 
L 59.565933 203.976685 
L 59.7699 204.662742 
L 59.973867 202.318712 
L 60.3818 206.606573 
L 60.789733 200.146196 
L 60.9937 204.091028 
L 61.197667 205.177286 
L 61.401633 202.718912 
L 61.6056 202.661741 
L 61.809567 203.462142 
L 62.013533 206.663744 
L 62.2175 201.46114 
L 62.421467 203.462142 
L 62.625433 202.776084 
L 62.8294 201.632655 
L 63.033367 206.263544 
L 63.237333 204.319714 
L 63.4413 199.402967 
L 63.645267 204.834257 
L 63.849233 202.433055 
L 64.257167 203.576485 
L 64.461133 203.061941 
L 64.6651 204.262542 
L 64.869067 202.890427 
L 65.073033 203.690827 
L 65.277 202.375884 
L 65.480967 203.862342 
L 65.684933 203.919513 
L 65.8889 204.148199 
L 66.092867 202.547398 
L 66.296833 203.00477 
L 66.5008 204.834257 
L 66.704767 201.232454 
L 66.908733 202.661741 
L 67.1127 202.661741 
L 67.316667 202.147198 
L 67.520633 203.462142 
L 67.7246 203.462142 
L 67.928567 203.233456 
L 68.132533 202.833255 
L 68.3365 204.891428 
L 68.540467 203.519313 
L 68.744433 201.003768 
L 68.9484 203.061941 
L 69.152367 199.745996 
L 69.356333 201.86134 
L 69.5603 201.346797 
L 69.764267 202.375884 
L 69.968233 205.863343 
L 70.1722 201.804169 
L 70.376167 205.806172 
L 70.580133 202.947598 
L 70.7841 202.375884 
L 70.988067 202.261541 
L 71.396 206.377887 
L 71.599967 205.234457 
L 71.803933 201.46114 
L 72.211867 206.549401 
L 72.6198 201.918512 
L 72.823767 206.320715 
L 73.027733 205.177286 
L 73.435667 201.175283 
L 73.8436 205.520315 
L 74.047567 202.490227 
L 74.251533 202.433055 
L 74.4555 201.118111 
L 74.659467 205.005771 
L 75.0674 202.204369 
L 75.271367 203.119113 
L 75.475333 203.233456 
L 75.6793 201.689826 
L 75.883267 201.346797 
L 76.087233 203.633656 
L 76.2912 203.976685 
L 76.495167 200.660739 
L 76.699133 201.06094 
L 76.9031 201.118111 
L 77.107067 203.233456 
L 77.311033 204.091028 
L 77.515 203.80517 
L 77.718967 205.749 
L 77.922933 200.089025 
L 78.1269 202.60457 
L 78.534833 203.119113 
L 78.7388 202.60457 
L 78.942767 203.119113 
L 79.146733 202.318712 
L 79.3507 203.119113 
L 79.554667 207.406973 
L 79.758633 205.005771 
L 79.9626 200.374882 
L 80.166567 203.862342 
L 80.370533 201.86134 
L 80.5745 203.80517 
L 80.778467 200.775082 
L 80.982433 204.834257 
L 81.1864 204.205371 
L 81.594333 202.090026 
L 81.7983 204.205371 
L 82.002267 203.976685 
L 82.206233 203.00477 
L 82.4102 202.947598 
L 82.614167 201.975683 
L 82.818133 201.86134 
L 83.226067 203.119113 
L 83.430033 204.434057 
L 83.634 201.118111 
L 83.837967 201.175283 
L 84.041933 203.862342 
L 84.2459 204.148199 
L 84.449867 203.862342 
L 84.653833 204.9486 
L 84.8578 207.006773 
L 85.265733 203.347799 
L 85.4697 201.289626 
L 85.673667 201.746997 
L 85.877633 203.519313 
L 86.0816 201.289626 
L 86.285567 205.977686 
L 86.489533 206.949601 
L 86.6935 202.318712 
L 86.897467 204.148199 
L 87.101433 203.519313 
L 87.3054 200.946597 
L 87.509367 205.463143 
L 87.713333 204.491228 
L 87.9173 201.118111 
L 88.121267 201.918512 
L 88.325233 204.262542 
L 88.5292 201.518312 
L 89.1411 204.205371 
L 89.345067 199.803167 
L 89.549033 205.062943 
L 89.753 205.520315 
L 89.956967 201.918512 
L 90.160933 201.346797 
L 90.3649 203.519313 
L 90.568867 203.462142 
L 90.772833 204.605571 
L 90.9768 205.005771 
L 91.180767 199.974682 
L 91.384733 202.318712 
L 91.5887 200.775082 
L 91.792667 198.202366 
L 91.996633 203.462142 
L 92.2006 202.776084 
L 92.608533 204.491228 
L 92.8125 203.119113 
L 93.016467 199.574482 
L 93.220433 203.290627 
L 93.4244 204.033856 
L 93.628367 203.862342 
L 93.832333 204.319714 
L 94.0363 204.091028 
L 94.240267 202.375884 
L 94.444233 201.804169 
L 94.6482 204.033856 
L 94.852167 204.262542 
L 95.056133 205.920515 
L 95.2601 202.776084 
L 95.464067 203.690827 
L 95.668033 205.920515 
L 96.075967 203.119113 
L 96.279933 205.577486 
L 96.4839 204.091028 
L 96.687867 204.5484 
L 96.891833 203.690827 
L 97.0958 203.862342 
L 97.299767 201.175283 
L 97.7077 204.719914 
L 97.911667 201.289626 
L 98.115633 203.347799 
L 98.3196 198.030852 
L 98.523567 200.489225 
L 98.727533 200.603568 
L 98.9315 203.061941 
L 99.135467 201.975683 
L 99.339433 205.520315 
L 99.747367 200.089025 
L 99.951333 202.375884 
L 100.1553 201.975683 
L 100.359267 203.747999 
L 100.563233 203.80517 
L 100.7672 202.833255 
L 100.971167 204.376885 
L 101.175133 201.746997 
L 101.3791 205.3488 
L 101.583067 206.206372 
L 101.787033 204.891428 
L 101.991 202.433055 
L 102.194967 203.233456 
L 102.398933 203.119113 
L 102.806867 200.889425 
L 103.010833 201.689826 
L 103.2148 200.717911 
L 103.418767 202.261541 
L 103.622733 202.776084 
L 103.8267 200.374882 
L 104.030667 199.803167 
L 104.234633 204.9486 
L 104.642567 202.433055 
L 104.846533 203.462142 
L 105.0505 201.403969 
L 105.254467 203.119113 
L 105.458433 200.775082 
L 105.6624 203.80517 
L 105.866367 202.833255 
L 106.070333 202.890427 
L 106.2743 203.862342 
L 106.478267 202.318712 
L 106.682233 203.00477 
L 106.8862 206.663744 
L 107.090167 205.120114 
L 107.294133 204.662742 
L 107.4981 201.975683 
L 107.702067 205.577486 
L 107.906033 206.263544 
L 108.313967 202.204369 
L 108.517933 201.403969 
L 108.7219 204.434057 
L 108.925867 203.00477 
L 109.129833 199.231453 
L 109.537767 202.718912 
L 109.741733 202.204369 
L 109.9457 204.376885 
L 110.149667 203.00477 
L 110.353633 200.146196 
L 110.5576 201.86134 
L 110.761567 205.234457 
L 111.1695 201.746997 
L 111.373467 201.746997 
L 111.577433 205.234457 
L 111.985367 203.119113 
L 112.189333 203.233456 
L 112.3933 206.49223 
L 112.597267 202.718912 
L 112.801233 203.862342 
L 113.0052 207.406973 
L 113.6171 202.947598 
L 113.821067 202.718912 
L 114.229 199.91751 
L 114.432967 203.862342 
L 114.636933 202.032855 
L 114.8409 201.518312 
L 115.044867 199.402967 
L 115.248833 200.146196 
L 115.4528 205.005771 
L 115.656767 202.204369 
L 115.860733 204.376885 
L 116.0647 204.5484 
L 116.472633 201.289626 
L 116.6766 203.462142 
L 116.880567 202.375884 
L 117.084533 201.918512 
L 117.2885 204.376885 
L 117.492467 203.919513 
L 117.696433 203.119113 
L 117.9004 204.033856 
L 118.104367 204.033856 
L 118.308333 202.890427 
L 118.5123 206.149201 
L 118.716267 202.890427 
L 118.920233 202.032855 
L 119.532133 204.605571 
L 119.7361 203.633656 
L 119.940067 201.232454 
L 120.144033 203.633656 
L 120.348 204.319714 
L 120.551967 203.061941 
L 120.755933 200.432054 
L 121.163867 203.80517 
L 121.367833 201.346797 
L 121.775767 204.491228 
L 121.979733 203.633656 
L 122.1837 203.862342 
L 122.387667 205.3488 
L 122.591633 202.60457 
L 122.7956 201.975683 
L 122.999567 206.835258 
L 123.4075 203.00477 
L 123.611467 202.147198 
L 123.815433 202.490227 
L 124.0194 203.862342 
L 124.223367 200.603568 
L 124.427333 200.546397 
L 124.6313 202.147198 
L 124.835267 201.346797 
L 125.2432 94.893517 
L 125.447167 88.318798 
L 125.651133 68.480298 
L 125.8551 127.309742 
L 126.059067 112.673845 
L 126.263033 42.695964 
L 126.467 64.192437 
L 126.670967 21.485348 
L 126.874933 102.840352 
L 127.282867 42.524449 
L 127.486833 49.213512 
L 127.6908 38.465275 
L 127.894767 138.629693 
L 127.894767 203.176284 
L 128.098733 203.919513 
L 128.3027 202.490227 
L 128.506667 202.490227 
L 128.710633 199.860339 
L 128.9146 203.061941 
L 129.118567 203.061941 
L 129.322533 203.347799 
L 129.5265 202.833255 
L 129.730467 164.585541 
L 129.934433 183.96667 
L 130.1384 171.388946 
L 130.342367 188.711902 
L 130.546333 180.307696 
L 130.7503 180.47921 
L 130.954267 168.701887 
L 131.3622 203.119113 
L 131.566167 204.605571 
L 131.770133 210.036861 
L 132.178067 201.975683 
L 132.382033 188.883416 
L 132.586 194.943592 
L 132.789967 186.196357 
L 132.993933 193.514306 
L 133.1979 196.087022 
L 133.401867 195.572479 
L 133.8098 178.13518 
L 134.013767 179.735981 
L 134.4217 233.934536 
L 134.625667 235.192308 
L 134.829633 230.275562 
L 135.0336 233.763021 
L 135.0336 233.591507 
L 135.237567 233.477164 
L 135.237567 231.418991 
L 135.441533 231.36182 
L 135.441533 229.875361 
L 135.441533 230.847276 
L 135.6455 230.961619 
L 135.6455 230.847276 
L 135.6455 229.646676 
L 135.849467 228.960618 
L 135.849467 200.603568 
L 135.849467 203.40497 
L 136.053433 203.576485 
L 136.053433 205.062943 
L 136.053433 205.062943 
L 136.2574 206.320715 
L 136.2574 206.320715 
L 136.2574 207.406973 
L 136.2574 207.406973 
L 136.461367 206.320715 
L 136.461367 205.177286 
L 136.461367 207.521316 
L 136.461367 206.320715 
L 136.665333 205.691829 
L 136.665333 204.605571 
L 136.8693 204.605571 
L 136.8693 202.090026 
L 136.8693 204.319714 
L 137.073267 204.319714 
L 137.073267 205.806172 
L 137.073267 205.806172 
L 137.277233 204.719914 
L 137.277233 201.003768 
L 137.4812 201.003768 
L 137.4812 201.06094 
L 137.4812 203.061941 
L 137.685167 203.061941 
L 137.685167 202.661741 
L 137.685167 203.519313 
L 137.685167 203.119113 
L 137.889133 201.118111 
L 137.889133 201.175283 
L 137.889133 205.234457 
L 137.889133 201.175283 
L 138.0931 200.089025 
L 138.0931 91.005857 
L 138.297067 89.062027 
L 138.297067 79.743077 
L 138.501033 67.108182 
L 138.705 99.581578 
L 138.908967 91.177372 
L 139.112933 88.204455 
L 139.3169 49.327855 
L 139.520867 37.49336 
L 139.724833 75.398046 
L 140.132767 39.151333 
L 140.336733 28.403096 
L 140.744667 68.994841 
L 140.948633 64.478295 
L 141.1526 201.689826 
L 141.356567 203.80517 
L 141.7645 201.575483 
L 142.172433 202.833255 
L 142.3764 202.890427 
L 142.580367 202.718912 
L 142.784333 201.403969 
L 142.9883 200.889425 
L 143.192267 201.175283 
L 143.6002 204.205371 
L 144.008133 202.776084 
L 144.2121 203.976685 
L 144.416067 203.919513 
L 144.620033 203.462142 
L 144.824 203.347799 
L 145.027967 202.375884 
L 145.231933 202.433055 
L 145.4359 200.832254 
L 145.639867 206.778087 
L 145.843833 201.289626 
L 146.0478 201.86134 
L 146.251767 204.719914 
L 146.455733 201.86134 
L 146.6597 201.746997 
L 146.863667 202.433055 
L 147.067633 203.747999 
L 147.2716 203.119113 
L 147.475567 204.719914 
L 147.679533 204.605571 
L 147.8835 200.660739 
L 148.291433 205.520315 
L 148.4954 205.520315 
L 148.699367 205.920515 
L 148.903333 202.60457 
L 149.1073 205.463143 
L 149.7192 200.946597 
L 149.923167 201.804169 
L 150.127133 201.632655 
L 150.535067 200.031853 
L 151.146967 204.605571 
L 151.350933 204.605571 
L 151.758867 202.090026 
L 151.962833 202.090026 
L 152.370767 204.5484 
L 152.574733 203.462142 
L 152.7787 206.263544 
L 152.982667 203.747999 
L 153.186633 203.119113 
L 153.594567 203.976685 
L 153.798533 201.918512 
L 154.206467 203.633656 
L 154.6144 201.118111 
L 154.818367 202.318712 
L 155.022333 200.946597 
L 155.2263 203.00477 
L 155.430267 201.403969 
L 155.634233 202.718912 
L 155.8382 202.718912 
L 156.042167 204.9486 
L 156.246133 200.889425 
L 156.4501 200.089025 
L 156.654067 203.00477 
L 156.858033 203.119113 
L 157.062 205.062943 
L 157.265967 200.489225 
L 157.469933 199.91751 
L 157.877867 205.005771 
L 158.081833 205.405972 
L 158.2858 204.205371 
L 158.489767 203.747999 
L 158.693733 201.689826 
L 158.8977 203.862342 
L 159.101667 202.433055 
L 159.305633 206.263544 
L 159.5096 202.890427 
L 159.917533 206.89243 
L 160.1215 201.975683 
L 160.325467 201.232454 
L 160.7334 203.290627 
L 160.937367 206.263544 
L 161.3453 202.833255 
L 161.549267 206.835258 
L 161.753233 201.918512 
L 161.9572 205.634658 
L 162.365133 201.632655 
L 162.977033 203.976685 
L 163.181 203.576485 
L 163.588933 203.633656 
L 163.996867 205.062943 
L 164.200833 202.032855 
L 164.4048 202.375884 
L 164.608767 198.831252 
L 164.812733 203.290627 
L 165.0167 202.833255 
L 165.220667 205.005771 
L 165.424633 201.232454 
L 165.6286 204.033856 
L 165.832567 202.776084 
L 166.036533 202.947598 
L 166.2405 205.062943 
L 166.648433 201.346797 
L 166.8524 202.547398 
L 166.8524 202.547398 
" clip-path="url(#p8bc54108d1)" style="fill: none; stroke: #1f77b4; stroke-linecap: square"/>
   </g>
   <g id="line2d_30">
    <path d="M 46.92 203.108427 
L 49.571567 203.044309 
L 50.5914 203.290093 
L 50.795367 206.111265 
L 52.4271 205.918912 
L 52.631067 204.305287 
L 54.466767 204.433522 
L 54.670733 205.299109 
L 56.302467 205.26705 
L 56.506433 204.871659 
L 58.138167 204.967835 
L 58.342133 205.320482 
L 60.177833 205.245678 
L 60.3818 204.615189 
L 61.401633 204.66862 
L 62.013533 204.679306 
L 62.2175 205.576952 
L 63.849233 205.512834 
L 64.0532 204.8396 
L 65.480967 204.850286 
L 65.8889 204.860973 
L 66.092867 205.26705 
L 69.764267 205.074698 
L 69.968233 204.49764 
L 70.580133 204.58313 
L 71.396 204.604502 
L 71.599967 204.647247 
L 71.803933 205.384599 
L 72.6198 205.427344 
L 73.435667 205.470089 
L 73.639633 205.779991 
L 77.311033 205.683814 
L 77.515 205.170874 
L 80.778467 205.234992 
L 81.1864 205.256364 
L 81.390367 205.651756 
L 83.0221 205.587638 
L 83.226067 205.031953 
L 83.837967 204.999894 
L 84.8578 205.053325 
L 85.061767 205.106756 
L 85.265733 205.737246 
L 88.937133 205.587638 
L 89.1411 205.844108 
L 90.772833 205.854794 
L 90.9768 206.218127 
L 91.792667 206.111265 
L 92.404567 206.057833 
L 92.608533 206.06852 
L 92.8125 205.031953 
L 93.4244 204.999894 
L 94.6482 205.021266 
L 94.852167 205.416658 
L 96.4839 205.555579 
L 96.687867 206.560087 
L 97.7077 206.58146 
L 98.523567 206.442538 
L 98.727533 206.2395 
L 99.339433 206.2395 
L 99.951333 206.218127 
L 100.359267 206.186068 
L 100.563233 205.470089 
L 102.194967 205.566265 
L 102.398933 206.58146 
L 104.234633 206.346362 
L 104.4386 205.213619 
L 105.458433 205.160188 
L 106.070333 205.160188 
L 106.2743 204.92509 
L 107.702067 205.01058 
L 108.11 205.085384 
L 108.313967 206.357048 
L 109.741733 206.2395 
L 109.9457 206.218127 
L 110.149667 205.384599 
L 111.7814 205.320482 
L 111.985367 204.946463 
L 113.821067 205.160188 
L 114.025033 206.41048 
L 114.636933 206.335676 
L 115.656767 206.2395 
L 115.860733 204.711365 
L 116.472633 204.75411 
L 117.2885 204.700679 
L 117.492467 204.722051 
L 117.696433 205.064011 
L 119.532133 205.160188 
L 119.7361 205.833422 
L 121.367833 205.779991 
L 121.5718 205.138815 
L 123.4075 205.277737 
L 123.611467 205.929598 
L 124.6313 205.833422 
L 126.263033 205.769304 
L 129.730467 205.662442 
L 129.934433 205.52352 
L 130.7503 204.091562 
L 131.158233 203.749602 
L 131.3622 181.650424 
L 131.770133 181.725228 
L 132.178067 181.874835 
L 132.586 181.682483 
L 132.993933 181.255032 
L 133.1979 181.126797 
L 133.401867 175.879845 
L 133.605833 175.708865 
L 134.217733 174.89671 
L 134.4217 175.292101 
L 134.625667 175.366905 
L 135.0336 176.414158 
L 135.0336 176.488962 
L 135.237567 176.649256 
L 135.237567 177.023275 
L 135.441533 177.162196 
L 135.441533 177.429353 
L 135.6455 177.568274 
L 135.6455 177.846117 
L 135.849467 177.985038 
L 135.849467 205.138815 
L 135.849467 205.128129 
L 136.461367 205.213619 
L 136.461367 205.234992 
L 136.461367 205.245678 
L 137.685167 205.309795 
L 137.685167 205.309795 
L 137.685167 206.528029 
L 141.7645 206.421166 
L 143.396233 206.260872 
L 143.6002 204.999894 
L 145.231933 205.021266 
L 145.4359 205.170874 
L 146.863667 205.138815 
L 147.067633 205.128129 
L 147.2716 204.689992 
L 149.1073 204.818228 
L 149.311267 206.186068 
L 150.943 206.025774 
L 151.146967 204.957149 
L 152.7787 205.021266 
L 152.982667 205.031953 
L 153.186633 205.662442 
L 154.818367 205.60901 
L 155.022333 205.202933 
L 155.8382 205.160188 
L 156.654067 205.128129 
L 156.858033 204.348032 
L 158.489767 204.422836 
L 158.693733 204.401464 
L 158.8977 204.893031 
L 159.713567 204.92509 
L 160.325467 204.989208 
L 160.529433 204.946463 
L 160.7334 204.66862 
L 162.5691 204.807541 
L 162.773067 205.587638 
L 164.4048 205.651756 
L 164.608767 206.06852 
L 165.424633 206.036461 
L 166.2405 206.047147 
L 166.444467 205.801363 
L 166.8524 205.758618 
L 166.8524 205.758618 
" clip-path="url(#p8bc54108d1)" style="fill: none; stroke: #ff7f0e; stroke-linecap: square"/>
   </g>
   <g id="line2d_31">
    <path d="M 46.92 203.119113 
L 47.123967 202.433055 
L 47.5319 202.547398 
L 47.735867 202.261541 
L 47.939833 201.746997 
L 48.551733 201.804169 
L 48.7557 201.86134 
L 49.3676 201.632655 
L 49.571567 201.632655 
L 49.775533 201.346797 
L 49.9795 201.346797 
L 50.387433 201.175283 
L 50.5914 201.232454 
L 50.795367 201.118111 
L 51.407267 201.175283 
L 53.6509 201.232454 
L 54.670733 201.403969 
L 55.894533 201.46114 
L 56.914367 201.632655 
L 57.3223 201.575483 
L 57.9342 201.632655 
L 58.954033 201.632655 
L 59.361967 201.746997 
L 59.7699 201.746997 
L 60.585767 201.689826 
L 61.401633 201.575483 
L 62.013533 201.632655 
L 63.033367 201.575483 
L 64.0532 201.403969 
L 64.869067 201.46114 
L 65.480967 201.518312 
L 67.316667 201.518312 
L 67.7246 201.632655 
L 69.152367 201.575483 
L 69.5603 201.518312 
L 69.968233 201.689826 
L 71.192033 201.689826 
L 71.599967 201.518312 
L 72.211867 201.46114 
L 73.027733 201.346797 
L 75.883267 201.403969 
L 76.2912 201.518312 
L 77.515 201.575483 
L 77.922933 201.575483 
L 78.7388 201.632655 
L 79.3507 201.746997 
L 80.166567 201.632655 
L 80.778467 201.689826 
L 83.634 201.632655 
L 84.2459 201.575483 
L 85.265733 201.518312 
L 85.877633 201.46114 
L 86.0816 201.46114 
L 86.285567 201.575483 
L 86.6935 201.46114 
L 89.1411 201.403969 
L 89.956967 201.289626 
L 90.3649 201.346797 
L 90.9768 201.403969 
L 92.8125 201.346797 
L 93.016467 201.232454 
L 93.4244 201.346797 
L 94.444233 201.403969 
L 94.852167 201.46114 
L 95.2601 201.403969 
L 95.872 201.46114 
L 99.135467 201.403969 
L 99.5434 201.346797 
L 99.747367 201.518312 
L 101.991 201.46114 
L 102.6029 201.403969 
L 103.418767 201.518312 
L 105.0505 201.518312 
L 105.254467 201.632655 
L 105.6624 201.632655 
L 106.070333 201.689826 
L 106.682233 201.746997 
L 107.4981 201.632655 
L 108.313967 201.689826 
L 108.925867 201.746997 
L 109.741733 201.689826 
L 110.5576 201.575483 
L 111.985367 201.632655 
L 112.3933 201.632655 
L 113.413133 201.403969 
L 114.025033 201.46114 
L 119.532133 201.46114 
L 119.940067 201.689826 
L 121.979733 201.746997 
L 122.387667 201.804169 
L 123.203533 201.689826 
L 124.0194 201.804169 
L 124.835267 201.689826 
L 125.039233 199.402967 
L 125.2432 203.119113 
L 128.3027 203.119113 
L 128.506667 202.776084 
L 128.710633 201.689826 
L 128.9146 201.918512 
L 129.5265 202.032855 
L 129.934433 192.085019 
L 130.1384 190.19836 
L 130.342367 190.655732 
L 130.7503 189.969674 
L 130.954267 188.940588 
L 131.158233 188.997759 
L 132.178067 190.598561 
L 132.586 190.369875 
L 132.789967 189.79816 
L 132.993933 189.626646 
L 133.1979 189.683817 
L 133.401867 189.512303 
L 133.605833 189.112102 
L 134.013767 187.282615 
L 134.217733 187.45413 
L 134.4217 187.225444 
L 134.625667 186.825243 
L 135.441533 186.425043 
L 135.441533 186.425043 
L 135.849467 186.482215 
L 135.849467 186.482215 
L 135.849467 186.539386 
L 135.849467 186.539386 
L 136.2574 186.539386 
L 136.2574 186.482215 
L 136.2574 186.3107 
L 136.461367 186.196357 
L 136.461367 186.196357 
L 136.461367 186.024843 
L 136.665333 185.9105 
L 136.665333 185.681814 
L 136.8693 185.681814 
L 136.8693 185.624643 
L 136.8693 185.453128 
L 136.8693 185.453128 
L 137.073267 185.281614 
L 137.073267 185.281614 
L 137.073267 185.167271 
L 137.685167 185.110099 
L 137.685167 185.110099 
L 137.685167 185.167271 
L 137.685167 185.110099 
L 137.889133 185.110099 
L 137.889133 185.052928 
L 137.889133 184.938585 
L 137.889133 184.938585 
L 138.0931 184.938585 
L 138.0931 184.938585 
L 138.0931 182.937583 
L 138.297067 203.119113 
L 138.297067 203.119113 
L 141.560533 203.119113 
L 141.7645 202.547398 
L 143.396233 202.204369 
L 144.416067 202.261541 
L 145.027967 202.318712 
L 145.4359 202.261541 
L 145.843833 202.090026 
L 148.291433 202.032855 
L 149.1073 201.918512 
L 150.943 201.86134 
L 151.758867 201.746997 
L 153.186633 201.804169 
L 153.798533 201.86134 
L 156.4501 201.804169 
L 157.062 201.746997 
L 157.265967 201.746997 
L 157.6739 201.632655 
L 157.877867 201.746997 
L 158.489767 201.689826 
L 159.713567 201.689826 
L 159.917533 201.518312 
L 160.325467 201.518312 
L 160.7334 201.403969 
L 161.3453 201.346797 
L 161.9572 201.289626 
L 163.996867 201.346797 
L 164.4048 201.518312 
L 164.812733 201.403969 
L 166.8524 201.46114 
L 166.8524 201.46114 
" clip-path="url(#p8bc54108d1)" style="fill: none; stroke: #ff0000; stroke-linecap: square"/>
   </g>
   <g id="line2d_32">
    <path d="M 46.92 157.381936 
L 135.0336 157.381936 
L 135.0336 153.951647 
L 135.237567 153.094075 
L 135.237567 147.948643 
L 135.441533 147.091071 
L 135.441533 142.80321 
L 135.6455 141.945638 
L 135.6455 137.657778 
L 135.849467 136.800206 
L 135.849467 131.654773 
L 136.053433 130.797201 
L 136.053433 126.509341 
L 136.2574 125.651769 
L 136.2574 120.506337 
L 136.461367 119.648764 
L 136.461367 115.360904 
L 136.665333 114.503332 
L 136.665333 111.644758 
L 136.665333 111.644758 
L 138.297067 111.644758 
L 138.297067 157.381936 
L 166.8524 157.381936 
L 166.8524 157.381936 
" clip-path="url(#p8bc54108d1)" style="fill: none; stroke: #008000; stroke-linecap: square"/>
   </g>
   <g id="line2d_33">
    <path d="M 46.92 157.381936 
L 781.2 157.381936 
" clip-path="url(#p8bc54108d1)" style="fill: none; stroke-dasharray: 5.55,2.4; stroke-dashoffset: 0; stroke: #808080; stroke-opacity: 0.7; stroke-width: 1.5"/>
   </g>
   <g id="line2d_34">
    <path d="M 46.92 171.103089 
L 781.2 171.103089 
" clip-path="url(#p8bc54108d1)" style="fill: none; stroke-dasharray: 5.55,2.4; stroke-dashoffset: 0; stroke: #008000; stroke-opacity: 0.7; stroke-width: 1.5"/>
   </g>
   <g id="line2d_35">
    <path d="M 131.3622 245.877656 
L 131.3622 10.8 
" clip-path="url(#p8bc54108d1)" style="fill: none; stroke-dasharray: 1.5,2.475; stroke-dashoffset: 0; stroke: #1f77b4; stroke-opacity: 0.8; stroke-width: 1.5"/>
   </g>
   <g id="line2d_36">
    <path d="M 135.849467 245.877656 
L 135.849467 10.8 
" clip-path="url(#p8bc54108d1)" style="fill: none; stroke-dasharray: 1.5,2.475; stroke-dashoffset: 0; stroke: #1f77b4; stroke-opacity: 0.8; stroke-width: 1.5"/>
   </g>
   <g id="patch_9">
    <path d="M 46.92 245.877656 
L 46.92 10.8 
" style="fill: none; stroke: #000000; stroke-width: 0.8; stroke-linejoin: miter; stroke-linecap: square"/>
   </g>
   <g id="patch_10">
    <path d="M 781.2 245.877656 
L 781.2 10.8 
" style="fill: none; stroke: #000000; stroke-width: 0.8; stroke-linejoin: miter; stroke-linecap: square"/>
   </g>
   <g id="patch_11">
    <path d="M 46.92 245.877656 
L 781.2 245.877656 
" style="fill: none; stroke: #000000; stroke-width: 0.8; stroke-linejoin: miter; stroke-linecap: square"/>
   </g>
   <g id="patch_12">
    <path d="M 46.92 10.8 
L 781.2 10.8 
" style="fill: none; stroke: #000000; stroke-width: 0.8; stroke-linejoin: miter; stroke-linecap: square"/>
   </g>
   <g id="legend_1">
    <g id="patch_13">
     <path d="M 53.92 108.804688 
L 168.916875 108.804688 
Q 170.916875 108.804688 170.916875 106.804688 
L 170.916875 17.8 
Q 170.916875 15.8 168.916875 15.8 
L 53.92 15.8 
Q 51.92 15.8 51.92 17.8 
L 51.92 106.804688 
Q 51.92 108.804688 53.92 108.804688 
z
" style="fill: #ffffff; opacity: 0.8; stroke: #cccccc; stroke-linejoin: miter"/>
    </g>
    <g id="line2d_37">
     <path d="M 55.92 23.898438 
L 65.92 23.898438 
L 75.92 23.898438 
" style="fill: none; stroke: #1f77b4; stroke-linecap: square"/>
    </g>
    <g id="text_17">
     <!-- weight -->
     <g transform="translate(83.92 27.398438) scale(0.1 -0.1)">
      <defs>
       <path id="DejaVuSans-5a" d="M 269 3500 
L 844 3500 
L 1563 769 
L 2278 3500 
L 2956 3500 
L 3675 769 
L 4391 3500 
L 4966 3500 
L 4050 0 
L 3372 0 
L 2619 2869 
L 1863 0 
L 1184 0 
L 269 3500 
z
" transform="scale(0.015625)"/>
       <path id="DejaVuSans-4b" d="M 3513 2113 
L 3513 0 
L 2938 0 
L 2938 2094 
Q 2938 2591 2744 2837 
Q 2550 3084 2163 3084 
Q 1697 3084 1428 2787 
Q 1159 2491 1159 1978 
L 1159 0 
L 581 0 
L 581 4863 
L 1159 4863 
L 1159 2956 
Q 1366 3272 1645 3428 
Q 1925 3584 2291 3584 
Q 2894 3584 3203 3211 
Q 3513 2838 3513 2113 
z
" transform="scale(0.015625)"/>
      </defs>
      <use xlink:href="#DejaVuSans-5a"/>
      <use xlink:href="#DejaVuSans-48" transform="translate(81.78125 0)"/>
      <use xlink:href="#DejaVuSans-4c" transform="translate(143.3125 0)"/>
      <use xlink:href="#DejaVuSans-4a" transform="translate(171.09375 0)"/>
      <use xlink:href="#DejaVuSans-4b" transform="translate(234.578125 0)"/>
      <use xlink:href="#DejaVuSans-57" transform="translate(297.953125 0)"/>
     </g>
    </g>
    <g id="line2d_38">
     <path d="M 55.92 38.899219 
L 65.92 38.899219 
L 75.92 38.899219 
" style="fill: none; stroke: #ff7f0e; stroke-linecap: square"/>
    </g>
    <g id="text_18">
     <!-- offset drift (g) -->
     <g transform="translate(83.92 42.399219) scale(0.1 -0.1)">
      <defs>
       <path id="DejaVuSans-52" d="M 1959 3097 
Q 1497 3097 1228 2736 
Q 959 2375 959 1747 
Q 959 1119 1226 758 
Q 1494 397 1959 397 
Q 2419 397 2687 759 
Q 2956 1122 2956 1747 
Q 2956 2369 2687 2733 
Q 2419 3097 1959 3097 
z
M 1959 3584 
Q 2709 3584 3137 3096 
Q 3566 2609 3566 1747 
Q 3566 888 3137 398 
Q 2709 -91 1959 -91 
Q 1206 -91 779 398 
Q 353 888 353 1747 
Q 353 2609 779 3096 
Q 1206 3584 1959 3584 
z
" transform="scale(0.015625)"/>
       <path id="DejaVuSans-13ae" d="M 4531 4863 
L 4531 4384 
L 3981 4384 
Q 3672 4384 3551 4259 
Q 3431 4134 3431 3809 
L 3431 3500 
L 4378 3500 
L 4378 3053 
L 3431 3053 
L 3431 0 
L 2853 0 
L 2853 3053 
L 1275 3053 
L 1275 0 
L 697 0 
L 697 3053 
L 147 3053 
L 147 3500 
L 697 3500 
L 697 3744 
Q 697 4328 969 4595 
Q 1241 4863 1831 4863 
L 2375 4863 
L 2375 4384 
L 1825 4384 
Q 1516 4384 1394 4259 
Q 1275 4134 1275 3809 
L 1275 3500 
L 2853 3500 
L 2853 3744 
Q 2853 4328 3125 4595 
Q 3397 4863 3988 4863 
L 4531 4863 
z
" transform="scale(0.015625)"/>
       <path id="DejaVuSans-3" transform="scale(0.015625)"/>
       <path id="DejaVuSans-47" d="M 2906 2969 
L 2906 4863 
L 3481 4863 
L 3481 0 
L 2906 0 
L 2906 525 
Q 2725 213 2448 61 
Q 2172 -91 1784 -91 
Q 1150 -91 751 415 
Q 353 922 353 1747 
Q 353 2572 751 3078 
Q 1150 3584 1784 3584 
Q 2172 3584 2448 3432 
Q 2725 3281 2906 2969 
z
M 947 1747 
Q 947 1113 1208 752 
Q 1469 391 1925 391 
Q 2381 391 2643 752 
Q 2906 1113 2906 1747 
Q 2906 2381 2643 2742 
Q 2381 3103 1925 3103 
Q 1469 3103 1208 2742 
Q 947 2381 947 1747 
z
" transform="scale(0.015625)"/>
       <path id="DejaVuSans-49" d="M 2375 4863 
L 2375 4384 
L 1825 4384 
Q 1516 4384 1395 4259 
Q 1275 4134 1275 3809 
L 1275 3500 
L 2222 3500 
L 2222 3053 
L 1275 3053 
L 1275 0 
L 697 0 
L 697 3053 
L 147 3053 
L 147 3500 
L 697 3500 
L 697 3744 
Q 697 4328 969 4595 
Q 1241 4863 1831 4863 
L 2375 4863 
z
" transform="scale(0.015625)"/>
       <path id="DejaVuSans-b" d="M 1984 4856 
Q 1566 4138 1362 3434 
Q 1159 2731 1159 2009 
Q 1159 1288 1364 580 
Q 1569 -128 1984 -844 
L 1484 -844 
Q 1016 -109 783 600 
Q 550 1309 550 2009 
Q 550 2706 781 3412 
Q 1013 4119 1484 4856 
L 1984 4856 
z
" transform="scale(0.015625)"/>
       <path id="DejaVuSans-c" d="M 513 4856 
L 1013 4856 
Q 1481 4119 1714 3412 
Q 1947 2706 1947 2009 
Q 1947 1309 1714 600 
Q 1481 -109 1013 -844 
L 513 -844 
Q 928 -128 1133 580 
Q 1338 1288 1338 2009 
Q 1338 2731 1133 3434 
Q 928 4138 513 4856 
z
" transform="scale(0.015625)"/>
      </defs>
      <use xlink:href="#DejaVuSans-52"/>
      <use xlink:href="#DejaVuSans-13ae" transform="translate(61.1875 0)"/>
      <use xlink:href="#DejaVuSans-56" transform="translate(130.078125 0)"/>
      <use xlink:href="#DejaVuSans-48" transform="translate(182.171875 0)"/>
      <use xlink:href="#DejaVuSans-57" transform="translate(243.703125 0)"/>
      <use xlink:href="#DejaVuSans-3" transform="translate(282.90625 0)"/>
      <use xlink:href="#DejaVuSans-47" transform="translate(314.6875 0)"/>
      <use xlink:href="#DejaVuSans-55" transform="translate(378.171875 0)"/>
      <use xlink:href="#DejaVuSans-4c" transform="translate(419.28125 0)"/>
      <use xlink:href="#DejaVuSans-49" transform="translate(447.0625 0)"/>
      <use xlink:href="#DejaVuSans-57" transform="translate(480.515625 0)"/>
      <use xlink:href="#DejaVuSans-3" transform="translate(519.71875 0)"/>
      <use xlink:href="#DejaVuSans-b" transform="translate(551.5 0)"/>
      <use xlink:href="#DejaVuSans-4a" transform="translate(590.515625 0)"/>
      <use xlink:href="#DejaVuSans-c" transform="translate(654 0)"/>
     </g>
    </g>
    <g id="line2d_39">
     <path d="M 55.92 53.9 
L 65.92 53.9 
L 75.92 53.9 
" style="fill: none; stroke: #ff0000; stroke-linecap: square"/>
    </g>
    <g id="text_19">
     <!-- sigma -->
     <g transform="translate(83.92 57.4) scale(0.1 -0.1)">
      <use xlink:href="#DejaVuSans-56"/>
      <use xlink:href="#DejaVuSans-4c" transform="translate(52.09375 0)"/>
      <use xlink:href="#DejaVuSans-4a" transform="translate(79.875 0)"/>
      <use xlink:href="#DejaVuSans-50" transform="translate(143.359375 0)"/>
      <use xlink:href="#DejaVuSans-44" transform="translate(240.765625 0)"/>
     </g>
    </g>
    <g id="line2d_40">
     <path d="M 55.92 68.900781 
L 65.92 68.900781 
L 75.92 68.900781 
" style="fill: none; stroke: #008000; stroke-linecap: square"/>
    </g>
    <g id="text_20">
     <!-- threshold -->
     <g transform="translate(83.92 72.400781) scale(0.1 -0.1)">
      <defs>
       <path id="DejaVuSans-4f" d="M 603 4863 
L 1178 4863 
L 1178 0 
L 603 0 
L 603 4863 
z
" transform="scale(0.015625)"/>
      </defs>
      <use xlink:href="#DejaVuSans-57"/>
      <use xlink:href="#DejaVuSans-4b" transform="translate(39.203125 0)"/>
      <use xlink:href="#DejaVuSans-55" transform="translate(102.578125 0)"/>
      <use xlink:href="#DejaVuSans-48" transform="translate(141.484375 0)"/>
      <use xlink:href="#DejaVuSans-56" transform="translate(203.015625 0)"/>
      <use xlink:href="#DejaVuSans-4b" transform="translate(255.109375 0)"/>
      <use xlink:href="#DejaVuSans-52" transform="translate(318.484375 0)"/>
      <use xlink:href="#DejaVuSans-4f" transform="translate(379.671875 0)"/>
      <use xlink:href="#DejaVuSans-47" transform="translate(407.453125 0)"/>
     </g>
    </g>
    <g id="line2d_41">
     <path d="M 55.92 83.901563 
L 65.92 83.901563 
L 75.92 83.901563 
" style="fill: none; stroke-dasharray: 5.55,2.4; stroke-dashoffset: 0; stroke: #808080; stroke-opacity: 0.7; stroke-width: 1.5"/>
    </g>
    <g id="text_21">
     <!-- weightThreshold -->
     <g transform="translate(83.92 87.401563) scale(0.1 -0.1)">
      <defs>
       <path id="DejaVuSans-37" d="M -19 4666 
L 3928 4666 
L 3928 4134 
L 2272 4134 
L 2272 0 
L 1638 0 
L 1638 4134 
L -19 4134 
L -19 4666 
z
" transform="scale(0.015625)"/>
      </defs>
      <use xlink:href="#DejaVuSans-5a"/>
      <use xlink:href="#DejaVuSans-48" transform="translate(81.78125 0)"/>
      <use xlink:href="#DejaVuSans-4c" transform="translate(143.3125 0)"/>
      <use xlink:href="#DejaVuSans-4a" transform="translate(171.09375 0)"/>
      <use xlink:href="#DejaVuSans-4b" transform="translate(234.578125 0)"/>
      <use xlink:href="#DejaVuSans-57" transform="translate(297.953125 0)"/>
      <use xlink:href="#DejaVuSans-37" transform="translate(337.15625 0)"/>
      <use xlink:href="#DejaVuSans-4b" transform="translate(398.234375 0)"/>
      <use xlink:href="#DejaVuSans-55" transform="translate(461.609375 0)"/>
      <use xlink:href="#DejaVuSans-48" transform="translate(500.515625 0)"/>
      <use xlink:href="#DejaVuSans-56" transform="translate(562.046875 0)"/>
      <use xlink:href="#DejaVuSans-4b" transform="translate(614.140625 0)"/>
      <use xlink:href="#DejaVuSans-52" transform="translate(677.515625 0)"/>
      <use xlink:href="#DejaVuSans-4f" transform="translate(738.703125 0)"/>
      <use xlink:href="#DejaVuSans-47" transform="translate(766.484375 0)"/>
     </g>
    </g>
    <g id="line2d_42">
     <path d="M 55.92 98.902344 
L 65.92 98.902344 
L 75.92 98.902344 
" style="fill: none; stroke-dasharray: 5.55,2.4; stroke-dashoffset: 0; stroke: #008000; stroke-opacity: 0.7; stroke-width: 1.5"/>
    </g>
    <g id="text_22">
     <!-- threshold_off -->
     <g transform="translate(83.92 102.402344) scale(0.1 -0.1)">
      <defs>
       <path id="DejaVuSans-42" d="M 3263 -1063 
L 3263 -1509 
L -63 -1509 
L -63 -1063 
L 3263 -1063 
z
" transform="scale(0.015625)"/>
      </defs>
      <use xlink:href="#DejaVuSans-57"/>
      <use xlink:href="#DejaVuSans-4b" transform="translate(39.203125 0)"/>
      <use xlink:href="#DejaVuSans-55" transform="translate(102.578125 0)"/>
      <use xlink:href="#DejaVuSans-48" transform="translate(141.484375 0)"/>
      <use xlink:href="#DejaVuSans-56" transform="translate(203.015625 0)"/>
      <use xlink:href="#DejaVuSans-4b" transform="translate(255.109375 0)"/>
      <use xlink:href="#DejaVuSans-52" transform="translate(318.484375 0)"/>
      <use xlink:href="#DejaVuSans-4f" transform="translate(379.671875 0)"/>
      <use xlink:href="#DejaVuSans-47" transform="translate(407.453125 0)"/>
      <use xlink:href="#DejaVuSans-42" transform="translate(470.9375 0)"/>
      <use xlink:href="#DejaVuSans-52" transform="translate(520.9375 0)"/>
      <use xlink:href="#DejaVuSans-13ae" transform="translate(582.125 0)"/>
     </g>
    </g>
   </g>
  </g>
 </g>
 <defs>
  <clipPath id="p8bc54108d1">
   <rect x="46.92" y="10.8" width="734.28" height="235.077656"/>
  </clipPath>
 </defs>
</svg>
