<?xml version="1.0" encoding="utf-8" standalone="no"?>
<!DOCTYPE svg PUBLIC "-//W3C//DTD SVG 1.1//EN"
  "http://www.w3.org/Graphics/SVG/1.1/DTD/svg11.dtd">
<svg xmlns:xlink="http://www.w3.org/1999/xlink" width="792pt" height="288pt" viewBox="0 0 792 288" xmlns="http://www.w3.org/2000/svg" version="1.1">
 <metadata>
  <rdf:RDF xmlns:dc="http://purl.org/dc/elements/1.1/" xmlns:cc="http://creativecommons.org/ns#" xmlns:rdf="http://www.w3.org/1999/02/22-rdf-syntax-ns#">
   <cc:Work>
    <dc:type rdf:resource="http://purl.org/dc/dcmitype/StillImage"/>
    <dc:date>2026-09-15T15:53:30.963552</dc:date>
    <dc:format>image/svg+xml</dc:format>
    <dc:creator>
     <cc:Agent>
      <dc:title>Matplotlib v3.11.1, https://matplotlib.org/</dc:title>
     </cc:Agent>
    </dc:creator>
   </cc:Work>
  </rdf:RDF>
 </metadata>
 <defs>
  <style type="text/css">*{stroke-linejoin: round; stroke-linecap: butt}</style>
 </defs>
 <g id="figure_1">
  <g id="patch_1">
   <path d="M 0 288 
L 792 288 
L 792 0 
L 0 0 
z
" style="fill: #ffffff"/>
  </g>
  <g id="axes_1">
   <g id="patch_2">
    <path d="M 46.92 245.877656 
L 781.2 245.877656 
L 781.2 10.8 
L 46.92 10.8 
z
" style="fill: #ffffff"/>
   </g>
   <g id="patch_3">
    <path d="M 53.6509 245.877656 
L 53.854867 245.877656 
L 53.854867 10.8 
L 53.6509 10.8 
z
" clip-path="url(#p3caead1ebb)" style="fill: #1f77b4; opacity: 0.08"/>
   </g>
   <g id="patch_4">
    <path d="M 72.6198 245.877656 
L 72.823767 245.877656 
L 72.823767 10.8 
L 72.6198 10.8 
z
" clip-path="url(#p3caead1ebb)" style="fill: #1f77b4; opacity: 0.08"/>
   </g>
   <g id="patch_5">
    <path d="M 73.027733 245.877656 
L 75.883267 245.877656 
L 75.883267 10.8 
L 73.027733 10.8 
z
" clip-path="url(#p3caead1ebb)" style="fill: #1f77b4; opacity: 0.08"/>
   </g>
   <g id="patch_6">
    <path d="M 75.883267 245.877656 
L 76.2912 245.877656 
L 76.2912 10.8 
L 75.883267 10.8 
z
" clip-path="url(#p3caead1ebb)" style="fill: #1f77b4; opacity: 0.08"/>
   </g>
   <g id="patch_7">
    <path d="M 77.922933 245.877656 
L 78.1269 245.877656 
L 78.1269 10.8 
L 77.922933 10.8 
z
" clip-path="url(#p3caead1ebb)" style="fill: #1f77b4; opacity: 0.08"/>
   </g>
   <g id="patch_8">
    <path d="M 78.330867 245.877656 
L 79.146733 245.877656 
L 79.146733 10.8 
L 78.330867 10.8 
z
" clip-path="url(#p3caead1ebb)" style="fill: #1f77b4; opacity: 0.08"/>
   </g>
   <g id="patch_9">
    <path d="M 79.146733 245.877656 
L 79.554667 245.877656 
L 79.554667 10.8 
L 79.146733 10.8 
z
" clip-path="url(#p3caead1ebb)" style="fill: #1f77b4; opacity: 0.08"/>
   </g>
   <g id="patch_10">
    <path d="M 86.489533 245.877656 
L 86.6935 245.877656 
L 86.6935 10.8 
L 86.489533 10.8 
z
" clip-path="url(#p3caead1ebb)" style="fill: #1f77b4; opacity: 0.08"/>
   </g>
   <g id="patch_11">
    <path d="M 86.897467 245.877656 
L 87.509367 245.877656 
L 87.509367 10.8 
L 86.897467 10.8 
z
" clip-path="url(#p3caead1ebb)" style="fill: #1f77b4; opacity: 0.08"/>
   </g>
   <g id="patch_12">
    <path d="M 87.509367 245.877656 
L 87.9173 245.877656 
L 87.9173 10.8 
L 87.509367 10.8 
z
" clip-path="url(#p3caead1ebb)" style="fill: #1f77b4; opacity: 0.08"/>
   </g>
   <g id="patch_13">
    <path d="M 90.160933 245.877656 
L 90.160933 245.877656 
L 90.160933 10.8 
L 90.160933 10.8 
z
" clip-path="url(#p3caead1ebb)" style="fill: #1f77b4; opacity: 0.08"/>
   </g>
   <g id="matplotlib.axis_1">
    <g id="xtick_1">
     <g id="line2d_1">
      <path d="M 50.183467 245.877656 
L 50.183467 10.8 
" clip-path="url(#p3caead1ebb)" style="fill: none; stroke: #b0b0b0; stroke-opacity: 0.3; stroke-width: 0.8; stroke-linecap: square"/>
     </g>
     <g id="line2d_2">
      <defs>
       <path id="mad4062390a" d="M 0 0 
L 0 3.5 
" style="stroke: #000000; stroke-width: 0.8"/>
      </defs>
      <g>
       <use xlink:href="#mad4062390a" x="50.183467" y="245.877656" style="stroke: #000000; stroke-width: 0.8"/>
      </g>
     </g>
     <g id="text_1">
      <!-- 15:50 -->
      <g transform="translate(35.774092 260.475312) scale(0.1 -0.1)">
       <defs>
        <path id="DejaVuSans-14" d="M 794 531 
L 1825 531 
L 1825 4091 
L 703 3866 
L 703 4441 
L 1819 4666 
L 2450 4666 
L 2450 531 
L 3481 531 
L 3481 0 
L 794 0 
L 794 531 
z
" transform="scale(0.015625)"/>
        <path id="DejaVuSans-18" d="M 691 4666 
L 3169 4666 
L 3169 4134 
L 1269 4134 
L 1269 2991 
Q 1406 3038 1543 3061 
Q 1681 3084 1819 3084 
Q 2600 3084 3056 2656 
Q 3513 2228 3513 1497 
Q 3513 744 3044 326 
Q 2575 -91 1722 -91 
Q 1428 -91 1123 -41 
Q 819 9 494 109 
L 494 744 
Q 775 591 1075 516 
Q 1375 441 1709 441 
Q 2250 441 2565 725 
Q 2881 1009 2881 1497 
Q 2881 1984 2565 2268 
Q 2250 2553 1709 2553 
Q 1456 2553 1204 2497 
Q 953 2441 691 2322 
L 691 4666 
z
" transform="scale(0.015625)"/>
        <path id="DejaVuSans-1d" d="M 750 794 
L 1409 794 
L 1409 0 
L 750 0 
L 750 794 
z
M 750 3309 
L 1409 3309 
L 1409 2516 
L 750 2516 
L 750 3309 
z
" transform="scale(0.015625)"/>
        <path id="DejaVuSans-13" d="M 2034 4250 
Q 1547 4250 1301 3770 
Q 1056 3291 1056 2328 
Q 1056 1369 1301 889 
Q 1547 409 2034 409 
Q 2525 409 2770 889 
Q 3016 1369 3016 2328 
Q 3016 3291 2770 3770 
Q 2525 4250 2034 4250 
z
M 2034 4750 
Q 2819 4750 3233 4129 
Q 3647 3509 3647 2328 
Q 3647 1150 3233 529 
Q 2819 -91 2034 -91 
Q 1250 -91 836 529 
Q 422 1150 422 2328 
Q 422 3509 836 4129 
Q 1250 4750 2034 4750 
z
" transform="scale(0.015625)"/>
       </defs>
       <use xlink:href="#DejaVuSans-14"/>
       <use xlink:href="#DejaVuSans-18" transform="translate(63.625 0)"/>
       <use xlink:href="#DejaVuSans-1d" transform="translate(127.25 0)"/>
       <use xlink:href="#DejaVuSans-18" transform="translate(160.9375 0)"/>
       <use xlink:href="#DejaVuSans-13" transform="translate(224.5625 0)"/>
      </g>
     </g>
    </g>
    <g id="xtick_2">
     <g id="line2d_3">
      <path d="M 172.563467 245.877656 
L 172.563467 10.8 
" clip-path="url(#p3caead1ebb)" style="fill: none; stroke: #b0b0b0; stroke-opacity: 0.3; stroke-width: 0.8; stroke-linecap: square"/>
     </g>
     <g id="line2d_4">
      <g>
       <use xlink:href="#mad4062390a" x="172.563467" y="245.877656" style="stroke: #000000; stroke-width: 0.8"/>
      </g>
     </g>
     <g id="text_2">
      <!-- 16:00 -->
      <g transform="translate(158.154092 260.475312) scale(0.1 -0.1)">
       <defs>
        <path id="DejaVuSans-19" d="M 2113 2584 
Q 1688 2584 1439 2293 
Q 1191 2003 1191 1497 
Q 1191 994 1439 701 
Q 1688 409 2113 409 
Q 2538 409 2786 701 
Q 3034 994 3034 1497 
Q 3034 2003 2786 2293 
Q 2538 2584 2113 2584 
z
M 3366 4563 
L 3366 3988 
Q 3128 4100 2886 4159 
Q 2644 4219 2406 4219 
Q 1781 4219 1451 3797 
Q 1122 3375 1075 2522 
Q 1259 2794 1537 2939 
Q 1816 3084 2150 3084 
Q 2853 3084 3261 2657 
Q 3669 2231 3669 1497 
Q 3669 778 3244 343 
Q 2819 -91 2113 -91 
Q 1303 -91 875 529 
Q 447 1150 447 2328 
Q 447 3434 972 4092 
Q 1497 4750 2381 4750 
Q 2619 4750 2861 4703 
Q 3103 4656 3366 4563 
z
" transform="scale(0.015625)"/>
       </defs>
       <use xlink:href="#DejaVuSans-14"/>
       <use xlink:href="#DejaVuSans-19" transform="translate(63.625 0)"/>
       <use xlink:href="#DejaVuSans-1d" transform="translate(127.25 0)"/>
       <use xlink:href="#DejaVuSans-13" transform="translate(160.9375 0)"/>
       <use xlink:href="#DejaVuSans-13" transform="translate(224.5625 0)"/>
      </g>
     </g>
    </g>
    <g id="xtick_3">
     <g id="line2d_5">
      <path d="M 294.943467 245.877656 
L 294.943467 10.8 
" clip-path="url(#p3caead1ebb)" style="fill: none; stroke: #b0b0b0; stroke-opacity: 0.3; stroke-width: 0.8; stroke-linecap: square"/>
     </g>
     <g id="line2d_6">
      <g>
       <use xlink:href="#mad4062390a" x="294.943467" y="245.877656" style="stroke: #000000; stroke-width: 0.8"/>
      </g>
     </g>
     <g id="text_3">
      <!-- 16:10 -->
      <g transform="translate(280.534092 260.475312) scale(0.1 -0.1)">
       <use xlink:href="#DejaVuSans-14"/>
       <use xlink:href="#DejaVuSans-19" transform="translate(63.625 0)"/>
       <use xlink:href="#DejaVuSans-1d" transform="translate(127.25 0)"/>
       <use xlink:href="#DejaVuSans-14" transform="translate(160.9375 0)"/>
       <use xlink:href="#DejaVuSans-13" transform="translate(224.5625 0)"/>
      </g>
     </g>
    </g>
    <g id="xtick_4">
     <g id="line2d_7">
      <path d="M 417.323467 245.877656 
L 417.323467 10.8 
" clip-path="url(#p3caead1ebb)" style="fill: none; stroke: #b0b0b0; stroke-opacity: 0.3; stroke-width: 0.8; stroke-linecap: square"/>
     </g>
     <g id="line2d_8">
      <g>
       <use xlink:href="#mad4062390a" x="417.323467" y="245.877656" style="stroke: #000000; stroke-width: 0.8"/>
      </g>
     </g>
     <g id="text_4">
      <!-- 16:20 -->
      <g transform="translate(402.914092 260.475312) scale(0.1 -0.1)">
       <defs>
        <path id="DejaVuSans-15" d="M 1228 531 
L 3431 531 
L 3431 0 
L 469 0 
L 469 531 
Q 828 903 1448 1529 
Q 2069 2156 2228 2338 
Q 2531 2678 2651 2914 
Q 2772 3150 2772 3378 
Q 2772 3750 2511 3984 
Q 2250 4219 1831 4219 
Q 1534 4219 1204 4116 
Q 875 4013 500 3803 
L 500 4441 
Q 881 4594 1212 4672 
Q 1544 4750 1819 4750 
Q 2544 4750 2975 4387 
Q 3406 4025 3406 3419 
Q 3406 3131 3298 2873 
Q 3191 2616 2906 2266 
Q 2828 2175 2409 1742 
Q 1991 1309 1228 531 
z
" transform="scale(0.015625)"/>
       </defs>
       <use xlink:href="#DejaVuSans-14"/>
       <use xlink:href="#DejaVuSans-19" transform="translate(63.625 0)"/>
       <use xlink:href="#DejaVuSans-1d" transform="translate(127.25 0)"/>
       <use xlink:href="#DejaVuSans-15" transform="translate(160.9375 0)"/>
       <use xlink:href="#DejaVuSans-13" transform="translate(224.5625 0)"/>
      </g>
     </g>
    </g>
    <g id="xtick_5">
     <g id="line2d_9">
      <path d="M 539.703467 245.877656 
L 539.703467 10.8 
" clip-path="url(#p3caead1ebb)" style="fill: none; stroke: #b0b0b0; stroke-opacity: 0.3; stroke-width: 0.8; stroke-linecap: square"/>
     </g>
     <g id="line2d_10">
      <g>
       <use xlink:href="#mad4062390a" x="539.703467" y="245.877656" style="stroke: #000000; stroke-width: 0.8"/>
      </g>
     </g>
     <g id="text_5">
      <!-- 16:30 -->
      <g transform="translate(525.294092 260.475312) scale(0.1 -0.1)">
       <defs>
        <path id="DejaVuSans-16" d="M 2597 2516 
Q 3050 2419 3304 2112 
Q 3559 1806 3559 1356 
Q 3559 666 3084 287 
Q 2609 -91 1734 -91 
Q 1441 -91 1130 -33 
Q 819 25 488 141 
L 488 750 
Q 750 597 1062 519 
Q 1375 441 1716 441 
Q 2309 441 2620 675 
Q 2931 909 2931 1356 
Q 2931 1769 2642 2001 
Q 2353 2234 1838 2234 
L 1294 2234 
L 1294 2753 
L 1863 2753 
Q 2328 2753 2575 2939 
Q 2822 3125 2822 3475 
Q 2822 3834 2567 4026 
Q 2313 4219 1838 4219 
Q 1578 4219 1281 4162 
Q 984 4106 628 3988 
L 628 4550 
Q 988 4650 1302 4700 
Q 1616 4750 1894 4750 
Q 2613 4750 3031 4423 
Q 3450 4097 3450 3541 
Q 3450 3153 3228 2886 
Q 3006 2619 2597 2516 
z
" transform="scale(0.015625)"/>
       </defs>
       <use xlink:href="#DejaVuSans-14"/>
       <use xlink:href="#DejaVuSans-19" transform="translate(63.625 0)"/>
       <use xlink:href="#DejaVuSans-1d" transform="translate(127.25 0)"/>
       <use xlink:href="#DejaVuSans-16" transform="translate(160.9375 0)"/>
       <use xlink:href="#DejaVuSans-13" transform="translate(224.5625 0)"/>
      </g>
     </g>
    </g>
    <g id="xtick_6">
     <g id="line2d_11">
      <path d="M 662.083467 245.877656 
L 662.083467 10.8 
" clip-path="url(#p3caead1ebb)" style="fill: none; stroke: #b0b0b0; stroke-opacity: 0.3; stroke-width: 0.8; stroke-linecap: square"/>
     </g>
     <g id="line2d_12">
      <g>
       <use xlink:href="#mad4062390a" x="662.083467" y="245.877656" style="stroke: #000000; stroke-width: 0.8"/>
      </g>
     </g>
     <g id="text_6">
      <!-- 16:40 -->
      <g transform="translate(647.674092 260.475312) scale(0.1 -0.1)">
       <defs>
        <path id="DejaVuSans-17" d="M 2419 4116 
L 825 1625 
L 2419 1625 
L 2419 4116 
z
M 2253 4666 
L 3047 4666 
L 3047 1625 
L 3713 1625 
L 3713 1100 
L 3047 1100 
L 3047 0 
L 2419 0 
L 2419 1100 
L 313 1100 
L 313 1709 
L 2253 4666 
z
" transform="scale(0.015625)"/>
       </defs>
       <use xlink:href="#DejaVuSans-14"/>
       <use xlink:href="#DejaVuSans-19" transform="translate(63.625 0)"/>
       <use xlink:href="#DejaVuSans-1d" transform="translate(127.25 0)"/>
       <use xlink:href="#DejaVuSans-17" transform="translate(160.9375 0)"/>
       <use xlink:href="#DejaVuSans-13" transform="translate(224.5625 0)"/>
      </g>
     </g>
    </g>
    <g id="text_7">
     <!-- time -->
     <g transform="translate(402.763906 274.476094) scale(0.1 -0.1)">
      <defs>
       <path id="DejaVuSans-57" d="M 1172 4494 
L 1172 3500 
L 2356 3500 
L 2356 3053 
L 1172 3053 
L 1172 1153 
Q 1172 725 1289 603 
Q 1406 481 1766 481 
L 2356 481 
L 2356 0 
L 1766 0 
Q 1100 0 847 248 
Q 594 497 594 1153 
L 594 3053 
L 172 3053 
L 172 3500 
L 594 3500 
L 594 4494 
L 1172 4494 
z
" transform="scale(0.015625)"/>
       <path id="DejaVuSans-4c" d="M 603 3500 
L 1178 3500 
L 1178 0 
L 603 0 
L 603 3500 
z
M 603 4863 
L 1178 4863 
L 1178 4134 
L 603 4134 
L 603 4863 
z
" transform="scale(0.015625)"/>
       <path id="DejaVuSans-50" d="M 3328 2828 
Q 3544 3216 3844 3400 
Q 4144 3584 4550 3584 
Q 5097 3584 5394 3201 
Q 5691 2819 5691 2113 
L 5691 0 
L 5113 0 
L 5113 2094 
Q 5113 2597 4934 2840 
Q 4756 3084 4391 3084 
Q 3944 3084 3684 2787 
Q 3425 2491 3425 1978 
L 3425 0 
L 2847 0 
L 2847 2094 
Q 2847 2600 2669 2842 
Q 2491 3084 2119 3084 
Q 1678 3084 1418 2786 
Q 1159 2488 1159 1978 
L 1159 0 
L 581 0 
L 581 3500 
L 1159 3500 
L 1159 2956 
Q 1356 3278 1631 3431 
Q 1906 3584 2284 3584 
Q 2666 3584 2933 3390 
Q 3200 3197 3328 2828 
z
" transform="scale(0.015625)"/>
       <path id="DejaVuSans-48" d="M 3597 1894 
L 3597 1613 
L 953 1613 
Q 991 1019 1311 708 
Q 1631 397 2203 397 
Q 2534 397 2845 478 
Q 3156 559 3463 722 
L 3463 178 
Q 3153 47 2828 -22 
Q 2503 -91 2169 -91 
Q 1331 -91 842 396 
Q 353 884 353 1716 
Q 353 2575 817 3079 
Q 1281 3584 2069 3584 
Q 2775 3584 3186 3129 
Q 3597 2675 3597 1894 
z
M 3022 2063 
Q 3016 2534 2758 2815 
Q 2500 3097 2075 3097 
Q 1594 3097 1305 2825 
Q 1016 2553 972 2059 
L 3022 2063 
z
" transform="scale(0.015625)"/>
      </defs>
      <use xlink:href="#DejaVuSans-57"/>
      <use xlink:href="#DejaVuSans-4c" transform="translate(39.203125 0)"/>
      <use xlink:href="#DejaVuSans-50" transform="translate(66.984375 0)"/>
      <use xlink:href="#DejaVuSans-48" transform="translate(164.390625 0)"/>
     </g>
    </g>
   </g>
   <g id="matplotlib.axis_2">
    <g id="ytick_1">
     <g id="line2d_13">
      <path d="M 46.92 236.019753 
L 781.2 236.019753 
" clip-path="url(#p3caead1ebb)" style="fill: none; stroke: #b0b0b0; stroke-opacity: 0.3; stroke-width: 0.8; stroke-linecap: square"/>
     </g>
     <g id="line2d_14">
      <defs>
       <path id="m6e5a60b32b" d="M 0 0 
L -3.5 0 
" style="stroke: #000000; stroke-width: 0.8"/>
      </defs>
      <g>
       <use xlink:href="#m6e5a60b32b" x="46.92" y="236.019753" style="stroke: #000000; stroke-width: 0.8"/>
      </g>
     </g>
     <g id="text_8">
      <!-- −5 -->
      <g transform="translate(25.177813 239.818581) scale(0.1 -0.1)">
       <defs>
        <path id="DejaVuSans-c9c" d="M 678 2272 
L 4684 2272 
L 4684 1741 
L 678 1741 
L 678 2272 
z
" transform="scale(0.015625)"/>
       </defs>
       <use xlink:href="#DejaVuSans-c9c"/>
       <use xlink:href="#DejaVuSans-18" transform="translate(83.796875 0)"/>
      </g>
     </g>
    </g>
    <g id="ytick_2">
     <g id="line2d_15">
      <path d="M 46.92 208.438256 
L 781.2 208.438256 
" clip-path="url(#p3caead1ebb)" style="fill: none; stroke: #b0b0b0; stroke-opacity: 0.3; stroke-width: 0.8; stroke-linecap: square"/>
     </g>
     <g id="line2d_16">
      <g>
       <use xlink:href="#m6e5a60b32b" x="46.92" y="208.438256" style="stroke: #000000; stroke-width: 0.8"/>
      </g>
     </g>
     <g id="text_9">
      <!-- 0 -->
      <g transform="translate(33.5575 212.237084) scale(0.1 -0.1)">
       <use xlink:href="#DejaVuSans-13"/>
      </g>
     </g>
    </g>
    <g id="ytick_3">
     <g id="line2d_17">
      <path d="M 46.92 180.856758 
L 781.2 180.856758 
" clip-path="url(#p3caead1ebb)" style="fill: none; stroke: #b0b0b0; stroke-opacity: 0.3; stroke-width: 0.8; stroke-linecap: square"/>
     </g>
     <g id="line2d_18">
      <g>
       <use xlink:href="#m6e5a60b32b" x="46.92" y="180.856758" style="stroke: #000000; stroke-width: 0.8"/>
      </g>
     </g>
     <g id="text_10">
      <!-- 5 -->
      <g transform="translate(33.5575 184.655586) scale(0.1 -0.1)">
       <use xlink:href="#DejaVuSans-18"/>
      </g>
     </g>
    </g>
    <g id="ytick_4">
     <g id="line2d_19">
      <path d="M 46.92 153.27526 
L 781.2 153.27526 
" clip-path="url(#p3caead1ebb)" style="fill: none; stroke: #b0b0b0; stroke-opacity: 0.3; stroke-width: 0.8; stroke-linecap: square"/>
     </g>
     <g id="line2d_20">
      <g>
       <use xlink:href="#m6e5a60b32b" x="46.92" y="153.27526" style="stroke: #000000; stroke-width: 0.8"/>
      </g>
     </g>
     <g id="text_11">
      <!-- 10 -->
      <g transform="translate(27.195 157.074088) scale(0.1 -0.1)">
       <use xlink:href="#DejaVuSans-14"/>
       <use xlink:href="#DejaVuSans-13" transform="translate(63.625 0)"/>
      </g>
     </g>
    </g>
    <g id="ytick_5">
     <g id="line2d_21">
      <path d="M 46.92 125.693762 
L 781.2 125.693762 
" clip-path="url(#p3caead1ebb)" style="fill: none; stroke: #b0b0b0; stroke-opacity: 0.3; stroke-width: 0.8; stroke-linecap: square"/>
     </g>
     <g id="line2d_22">
      <g>
       <use xlink:href="#m6e5a60b32b" x="46.92" y="125.693762" style="stroke: #000000; stroke-width: 0.8"/>
      </g>
     </g>
     <g id="text_12">
      <!-- 15 -->
      <g transform="translate(27.195 129.492591) scale(0.1 -0.1)">
       <use xlink:href="#DejaVuSans-14"/>
       <use xlink:href="#DejaVuSans-18" transform="translate(63.625 0)"/>
      </g>
     </g>
    </g>
    <g id="ytick_6">
     <g id="line2d_23">
      <path d="M 46.92 98.112265 
L 781.2 98.112265 
" clip-path="url(#p3caead1ebb)" style="fill: none; stroke: #b0b0b0; stroke-opacity: 0.3; stroke-width: 0.8; stroke-linecap: square"/>
     </g>
     <g id="line2d_24">
      <g>
       <use xlink:href="#m6e5a60b32b" x="46.92" y="98.112265" style="stroke: #000000; stroke-width: 0.8"/>
      </g>
     </g>
     <g id="text_13">
      <!-- 20 -->
      <g transform="translate(27.195 101.911093) scale(0.1 -0.1)">
       <use xlink:href="#DejaVuSans-15"/>
       <use xlink:href="#DejaVuSans-13" transform="translate(63.625 0)"/>
      </g>
     </g>
    </g>
    <g id="ytick_7">
     <g id="line2d_25">
      <path d="M 46.92 70.530767 
L 781.2 70.530767 
" clip-path="url(#p3caead1ebb)" style="fill: none; stroke: #b0b0b0; stroke-opacity: 0.3; stroke-width: 0.8; stroke-linecap: square"/>
     </g>
     <g id="line2d_26">
      <g>
       <use xlink:href="#m6e5a60b32b" x="46.92" y="70.530767" style="stroke: #000000; stroke-width: 0.8"/>
      </g>
     </g>
     <g id="text_14">
      <!-- 25 -->
      <g transform="translate(27.195 74.329595) scale(0.1 -0.1)">
       <use xlink:href="#DejaVuSans-15"/>
       <use xlink:href="#DejaVuSans-18" transform="translate(63.625 0)"/>
      </g>
     </g>
    </g>
    <g id="ytick_8">
     <g id="line2d_27">
      <path d="M 46.92 42.949269 
L 781.2 42.949269 
" clip-path="url(#p3caead1ebb)" style="fill: none; stroke: #b0b0b0; stroke-opacity: 0.3; stroke-width: 0.8; stroke-linecap: square"/>
     </g>
     <g id="line2d_28">
      <g>
       <use xlink:href="#m6e5a60b32b" x="46.92" y="42.949269" style="stroke: #000000; stroke-width: 0.8"/>
      </g>
     </g>
     <g id="text_15">
      <!-- 30 -->
      <g transform="translate(27.195 46.748098) scale(0.1 -0.1)">
       <use xlink:href="#DejaVuSans-16"/>
       <use xlink:href="#DejaVuSans-13" transform="translate(63.625 0)"/>
      </g>
     </g>
    </g>
    <g id="ytick_9">
     <g id="line2d_29">
      <path d="M 46.92 15.367772 
L 781.2 15.367772 
" clip-path="url(#p3caead1ebb)" style="fill: none; stroke: #b0b0b0; stroke-opacity: 0.3; stroke-width: 0.8; stroke-linecap: square"/>
     </g>
     <g id="line2d_30">
      <g>
       <use xlink:href="#m6e5a60b32b" x="46.92" y="15.367772" style="stroke: #000000; stroke-width: 0.8"/>
      </g>
     </g>
     <g id="text_16">
      <!-- 35 -->
      <g transform="translate(27.195 19.1666) scale(0.1 -0.1)">
       <use xlink:href="#DejaVuSans-16"/>
       <use xlink:href="#DejaVuSans-18" transform="translate(63.625 0)"/>
      </g>
     </g>
    </g>
    <g id="text_17">
     <!-- grams -->
     <g transform="translate(18.775469 144.107578) rotate(-90) scale(0.1 -0.1)">
      <defs>
       <path id="DejaVuSans-4a" d="M 2906 1791 
Q 2906 2416 2648 2759 
Q 2391 3103 1925 3103 
Q 1463 3103 1205 2759 
Q 947 2416 947 1791 
Q 947 1169 1205 825 
Q 1463 481 1925 481 
Q 2391 481 2648 825 
Q 2906 1169 2906 1791 
z
M 3481 434 
Q 3481 -459 3084 -895 
Q 2688 -1331 1869 -1331 
Q 1566 -1331 1297 -1286 
Q 1028 -1241 775 -1147 
L 775 -588 
Q 1028 -725 1275 -790 
Q 1522 -856 1778 -856 
Q 2344 -856 2625 -561 
Q 2906 -266 2906 331 
L 2906 616 
Q 2728 306 2450 153 
Q 2172 0 1784 0 
Q 1141 0 747 490 
Q 353 981 353 1791 
Q 353 2603 747 3093 
Q 1141 3584 1784 3584 
Q 2172 3584 2450 3431 
Q 2728 3278 2906 2969 
L 2906 3500 
L 3481 3500 
L 3481 434 
z
" transform="scale(0.015625)"/>
       <path id="DejaVuSans-55" d="M 2631 2963 
Q 2534 3019 2420 3045 
Q 2306 3072 2169 3072 
Q 1681 3072 1420 2755 
Q 1159 2438 1159 1844 
L 1159 0 
L 581 0 
L 581 3500 
L 1159 3500 
L 1159 2956 
Q 1341 3275 1631 3429 
Q 1922 3584 2338 3584 
Q 2397 3584 2469 3576 
Q 2541 3569 2628 3553 
L 2631 2963 
z
" transform="scale(0.015625)"/>
       <path id="DejaVuSans-44" d="M 2194 1759 
Q 1497 1759 1228 1600 
Q 959 1441 959 1056 
Q 959 750 1161 570 
Q 1363 391 1709 391 
Q 2188 391 2477 730 
Q 2766 1069 2766 1631 
L 2766 1759 
L 2194 1759 
z
M 3341 1997 
L 3341 0 
L 2766 0 
L 2766 531 
Q 2569 213 2275 61 
Q 1981 -91 1556 -91 
Q 1019 -91 701 211 
Q 384 513 384 1019 
Q 384 1609 779 1909 
Q 1175 2209 1959 2209 
L 2766 2209 
L 2766 2266 
Q 2766 2663 2505 2880 
Q 2244 3097 1772 3097 
Q 1472 3097 1187 3025 
Q 903 2953 641 2809 
L 641 3341 
Q 956 3463 1253 3523 
Q 1550 3584 1831 3584 
Q 2591 3584 2966 3190 
Q 3341 2797 3341 1997 
z
" transform="scale(0.015625)"/>
       <path id="DejaVuSans-56" d="M 2834 3397 
L 2834 2853 
Q 2591 2978 2328 3040 
Q 2066 3103 1784 3103 
Q 1356 3103 1142 2972 
Q 928 2841 928 2578 
Q 928 2378 1081 2264 
Q 1234 2150 1697 2047 
L 1894 2003 
Q 2506 1872 2764 1633 
Q 3022 1394 3022 966 
Q 3022 478 2636 193 
Q 2250 -91 1575 -91 
Q 1294 -91 989 -36 
Q 684 19 347 128 
L 347 722 
Q 666 556 975 473 
Q 1284 391 1588 391 
Q 1994 391 2212 530 
Q 2431 669 2431 922 
Q 2431 1156 2273 1281 
Q 2116 1406 1581 1522 
L 1381 1569 
Q 847 1681 609 1914 
Q 372 2147 372 2553 
Q 372 3047 722 3315 
Q 1072 3584 1716 3584 
Q 2034 3584 2315 3537 
Q 2597 3491 2834 3397 
z
" transform="scale(0.015625)"/>
      </defs>
      <use xlink:href="#DejaVuSans-4a"/>
      <use xlink:href="#DejaVuSans-55" transform="translate(63.484375 0)"/>
      <use xlink:href="#DejaVuSans-44" transform="translate(104.59375 0)"/>
      <use xlink:href="#DejaVuSans-50" transform="translate(165.875 0)"/>
      <use xlink:href="#DejaVuSans-56" transform="translate(263.28125 0)"/>
     </g>
    </g>
   </g>
   <g id="line2d_31">
    <path d="M 46.92 217.760802 
L 47.123967 213.789066 
L 47.327933 196.247234 
L 47.5319 195.143974 
L 48.1438 214.340696 
L 48.347767 192.330661 
L 48.551733 211.913524 
L 48.7557 217.650476 
L 48.959667 195.088811 
L 49.163633 195.585278 
L 49.3676 196.909189 
L 49.571567 196.909189 
L 49.775533 197.129841 
L 49.9795 193.59941 
L 50.183467 213.292599 
L 50.387433 171.589375 
L 50.5914 206.231736 
L 50.795367 201.487718 
L 50.999333 210.755101 
L 51.2033 191.061912 
L 51.407267 199.446687 
L 51.611233 183.945886 
L 51.8152 203.197771 
L 52.019167 187.145339 
L 52.223133 199.998317 
L 52.4271 199.115709 
L 52.631067 181.684203 
L 52.835033 197.84696 
L 53.039 170.541278 
L 53.242967 186.704035 
L 53.446933 156.529877 
L 53.6509 162.597806 
L 54.058833 195.143974 
L 54.2628 195.088811 
L 54.466767 196.909189 
L 54.670733 189.241533 
L 54.8747 200.384458 
L 55.078667 185.87659 
L 55.282633 197.571145 
L 55.4866 218.09178 
L 55.690567 190.786097 
L 55.894533 202.590978 
L 56.0985 161.053243 
L 56.302467 182.566811 
L 56.506433 175.450784 
L 56.7104 220.629277 
L 56.914367 191.061912 
L 57.118333 198.564079 
L 57.3223 196.578212 
L 57.526267 187.365991 
L 57.730233 201.432555 
L 57.9342 191.889357 
L 58.138167 198.343427 
L 58.342133 195.364626 
L 58.5461 182.290996 
L 58.750067 187.200502 
L 58.954033 184.497516 
L 59.158 198.288264 
L 59.361967 201.487718 
L 59.565933 202.204837 
L 59.7699 183.28393 
L 60.177833 216.271401 
L 60.3818 174.237198 
L 60.585767 167.066009 
L 60.789733 197.791797 
L 60.9937 183.83556 
L 61.197667 204.852661 
L 61.401633 203.749401 
L 61.6056 173.630405 
L 61.809567 200.329295 
L 62.013533 210.92059 
L 62.2175 190.786097 
L 62.625433 180.305128 
L 62.8294 190.28963 
L 63.033367 179.367357 
L 63.4413 187.035013 
L 63.645267 187.365991 
L 63.849233 193.985551 
L 64.0532 206.011084 
L 64.257167 181.187736 
L 64.461133 214.064881 
L 64.6651 203.252934 
L 64.869067 217.815965 
L 65.073033 205.459454 
L 65.277 181.07741 
L 65.480967 183.008115 
L 65.684933 183.008115 
L 65.8889 197.681471 
L 66.092867 195.80593 
L 66.296833 206.783366 
L 66.5008 183.83556 
L 66.908733 213.071947 
L 67.1127 191.448053 
L 67.316667 195.530115 
L 67.520633 195.695604 
L 67.7246 193.102943 
L 67.928567 208.107278 
L 68.132533 208.107278 
L 68.3365 192.054846 
L 68.540467 204.411357 
L 68.744433 178.650238 
L 68.9484 191.613542 
L 69.152367 186.97985 
L 69.356333 203.252934 
L 69.5603 198.343427 
L 69.764267 187.917621 
L 69.968233 207.114344 
L 70.1722 194.868159 
L 70.376167 202.480652 
L 70.580133 230.06215 
L 70.7841 224.601013 
L 71.192033 202.039348 
L 71.396 216.216238 
L 71.599967 216.878194 
L 71.803933 208.217604 
L 72.0079 193.268432 
L 72.211867 205.349128 
L 72.415833 197.515982 
L 72.6198 48.30008 
L 72.823767 60.325613 
L 73.2317 53.706054 
L 73.2317 53.706054 
L 73.8436 38.481067 
L 74.047567 54.919639 
L 74.251533 215.223304 
L 74.4555 111.516873 
L 74.863433 73.288917 
L 75.0674 82.280485 
L 75.271367 64.352512 
L 75.475333 217.374661 
L 75.6793 192.110009 
L 75.883267 189.131207 
L 75.883267 201.432555 
L 76.2912 190.234467 
L 76.495167 199.832828 
L 76.699133 203.583912 
L 76.9031 190.013815 
L 77.107067 199.336361 
L 77.311033 191.39289 
L 77.515 178.650238 
L 77.718967 180.911921 
L 77.922933 155.205965 
L 78.1269 157.633137 
L 78.330867 157.13667 
L 78.534833 149.855154 
L 78.534833 176.002414 
L 78.7388 210.755101 
L 78.942767 191.558379 
L 79.3507 224.931991 
L 79.554667 219.801833 
L 79.758633 202.977119 
L 80.166567 206.066247 
L 80.370533 205.514617 
L 80.5745 207.114344 
L 80.982433 202.149674 
L 81.1864 185.049145 
L 81.390367 190.951586 
L 81.594333 204.521683 
L 81.7983 204.521683 
L 82.002267 199.887991 
L 82.206233 211.637709 
L 82.4102 199.777665 
L 82.614167 208.107278 
L 82.818133 199.887991 
L 83.0221 208.603744 
L 83.226067 211.417057 
L 83.430033 199.226035 
L 83.634 202.480652 
L 83.837967 215.168141 
L 84.041933 235.192308 
L 84.2459 204.576846 
L 84.449867 193.323595 
L 84.653833 194.757833 
L 84.8578 218.808899 
L 85.061767 194.482018 
L 85.265733 207.831463 
L 85.4697 199.115709 
L 85.673667 226.973022 
L 85.877633 208.493418 
L 86.0816 221.7877 
L 86.285567 197.736634 
L 86.489533 159.563842 
L 86.897467 168.389921 
L 87.101433 192.827128 
L 87.3054 191.779031 
L 87.509367 199.391524 
L 87.509367 188.303762 
L 87.713333 188.303762 
L 87.9173 183.614908 
L 88.121267 200.274132 
L 88.5292 192.937454 
L 88.733167 210.755101 
L 88.937133 198.729568 
L 89.1411 196.412723 
L 89.345067 192.330661 
L 89.549033 190.675771 
L 89.753 183.449419 
L 89.956967 186.042079 
L 90.160933 163.425251 
L 90.3649 217.209172 
L 90.568867 208.052115 
L 90.772833 217.926291 
L 90.9768 217.815965 
L 91.180767 226.973022 
L 91.384733 220.077648 
L 91.5887 207.390159 
L 91.792667 204.356194 
L 91.792667 204.356194 
" clip-path="url(#p3caead1ebb)" style="fill: none; stroke: #1f77b4; stroke-linecap: square"/>
   </g>
   <g id="line2d_32">
    <path d="M 46.92 208.438256 
L 91.792667 208.438256 
L 91.792667 208.438256 
" clip-path="url(#p3caead1ebb)" style="fill: none; stroke: #ff7f0e; stroke-linecap: square"/>
   </g>
   <g id="line2d_33">
    <path d="M 46.92 208.438256 
L 47.123967 205.624943 
L 47.327933 199.722502 
L 47.5319 200.108643 
L 47.735867 201.432555 
L 47.939833 201.929022 
L 48.347767 200.715436 
L 48.551733 200.05348 
L 48.7557 199.887991 
L 48.959667 199.391524 
L 49.163633 199.281198 
L 49.3676 197.736634 
L 49.571567 197.84696 
L 49.775533 198.233101 
L 50.183467 198.233101 
L 50.387433 196.964352 
L 50.5914 196.688537 
L 50.999333 197.185004 
L 51.611233 197.571145 
L 51.8152 197.129841 
L 52.4271 197.405656 
L 52.835033 197.515982 
L 53.039 197.460819 
L 53.242967 197.626308 
L 53.854867 194.647507 
L 54.670733 194.812996 
L 54.8747 195.199137 
L 55.078667 195.033648 
L 55.282633 195.199137 
L 55.4866 195.199137 
L 55.894533 195.474952 
L 56.302467 194.647507 
L 56.506433 194.647507 
L 56.7104 194.371692 
L 57.118333 194.812996 
L 57.3223 195.309463 
L 57.730233 195.530115 
L 58.138167 195.474952 
L 59.361967 195.695604 
L 59.7699 195.474952 
L 60.177833 195.585278 
L 60.3818 196.35756 
L 60.585767 196.633374 
L 61.401633 196.302397 
L 61.6056 195.750767 
L 61.809567 195.861093 
L 62.013533 195.474952 
L 62.2175 195.80593 
L 62.421467 195.916256 
L 62.625433 195.364626 
L 63.033367 196.247234 
L 63.4413 196.467886 
L 63.645267 196.7437 
L 63.849233 196.578212 
L 64.0532 196.578212 
L 65.277 194.316529 
L 65.684933 194.206203 
L 66.092867 192.992617 
L 66.704767 193.04778 
L 67.316667 193.930388 
L 68.132533 194.040714 
L 68.540467 194.70267 
L 69.152367 194.812996 
L 69.356333 195.2543 
L 69.968233 195.474952 
L 70.376167 195.695604 
L 70.580133 195.585278 
L 70.7841 193.930388 
L 70.988067 193.820062 
L 71.192033 194.15104 
L 71.396 194.206203 
L 71.599967 193.820062 
L 71.803933 193.985551 
L 72.415833 194.978485 
L 73.2317 159.288027 
L 73.435667 156.750529 
L 74.047567 144.118203 
L 74.4555 143.51141 
L 75.0674 140.642934 
L 75.271367 138.491577 
L 75.6793 137.939947 
L 76.087233 137.884784 
L 76.2912 138.215762 
L 77.311033 138.601903 
L 77.515 139.980978 
L 77.922933 141.360053 
L 78.534833 144.890485 
L 78.7388 144.449181 
L 78.942767 144.394018 
L 79.146733 144.118203 
L 79.146733 143.897551 
L 79.3507 144.06304 
L 79.554667 144.559507 
L 79.758633 145.828256 
L 80.166567 150.51711 
L 80.982433 163.314925 
L 81.1864 163.866555 
L 81.594333 171.754864 
L 82.206233 188.910555 
L 82.4102 188.855392 
L 82.614167 188.358925 
L 83.0221 188.358925 
L 83.430033 188.138273 
L 83.634 188.193436 
L 83.837967 188.08311 
L 84.041933 187.255665 
L 84.2459 187.365991 
L 84.449867 187.696969 
L 84.8578 190.565445 
L 85.265733 198.453753 
L 85.4697 198.39859 
L 85.673667 198.067612 
L 85.877633 197.957286 
L 86.285567 198.233101 
L 86.6935 194.206203 
L 87.101433 192.275498 
L 87.101433 192.275498 
L 87.3054 192.220335 
L 87.509367 192.330661 
L 87.509367 192.220335 
L 87.713333 192.220335 
L 87.9173 191.834194 
L 89.1411 191.94452 
L 89.345067 192.275498 
L 89.956967 192.165172 
L 90.3649 190.896423 
L 90.568867 190.84126 
L 90.772833 191.558379 
L 91.180767 191.006749 
L 91.384733 190.510282 
L 91.5887 190.620608 
L 91.792667 190.565445 
L 91.792667 190.565445 
" clip-path="url(#p3caead1ebb)" style="fill: none; stroke: #ff0000; stroke-linecap: square"/>
   </g>
   <g id="line2d_34">
    <path d="M 46.92 164.307859 
L 47.123967 164.307859 
L 47.735867 163.425251 
L 48.347767 162.652969 
L 53.6509 154.102705 
L 53.854867 154.213031 
L 54.2628 153.661401 
L 55.282633 151.896185 
L 55.894533 150.958414 
L 56.0985 150.572273 
L 56.302467 150.461947 
L 57.730233 148.310591 
L 60.3818 144.890485 
L 61.197667 144.118203 
L 63.237333 142.022009 
L 65.073033 140.422282 
L 65.684933 139.870652 
L 66.092867 139.65 
L 69.5603 136.947014 
L 70.7841 136.174732 
L 71.599967 135.623102 
L 72.6198 135.071472 
L 74.251533 137.939947 
L 75.0674 139.208696 
L 76.2912 141.084238 
L 76.495167 141.139401 
L 77.515 140.20163 
L 77.718967 139.980978 
L 77.922933 140.036141 
L 79.146733 141.801357 
L 79.146733 141.911683 
L 79.554667 142.40815 
L 79.758633 142.352987 
L 81.390367 140.698097 
L 83.0221 139.263859 
L 83.430033 138.877718 
L 83.837967 138.54674 
L 85.061767 137.608969 
L 86.489533 137.277992 
L 87.509367 138.932881 
L 87.509367 139.208696 
L 87.713333 139.263859 
L 88.121267 139.815489 
L 88.733167 139.263859 
L 90.160933 138.105436 
L 90.3649 138.326088 
L 91.792667 137.222829 
L 91.792667 137.222829 
" clip-path="url(#p3caead1ebb)" style="fill: none; stroke: #008000; stroke-linecap: square"/>
   </g>
   <g id="line2d_35">
    <path d="M 46.92 164.307859 
L 781.2 164.307859 
" clip-path="url(#p3caead1ebb)" style="fill: none; stroke-dasharray: 5.55,2.4; stroke-dashoffset: 0; stroke: #808080; stroke-opacity: 0.7; stroke-width: 1.5"/>
   </g>
   <g id="line2d_36">
    <path d="M 46.92 177.546978 
L 781.2 177.546978 
" clip-path="url(#p3caead1ebb)" style="fill: none; stroke-dasharray: 5.55,2.4; stroke-dashoffset: 0; stroke: #008000; stroke-opacity: 0.7; stroke-width: 1.5"/>
   </g>
   <g id="LineCollection_1">
    <path d="M 73.2317 208.438256 
L 73.2317 21.485348 
" clip-path="url(#p3caead1ebb)" style="fill: none; stroke: #0000ff; stroke-opacity: 0.6"/>
    <path d="M 78.534833 208.438256 
L 78.534833 21.485348 
" clip-path="url(#p3caead1ebb)" style="fill: none; stroke: #0000ff; stroke-opacity: 0.6"/>
    <path d="M 87.101433 208.438256 
L 87.101433 21.485348 
" clip-path="url(#p3caead1ebb)" style="fill: none; stroke: #0000ff; stroke-opacity: 0.6"/>
   </g>
   <g id="patch_14">
    <path d="M 46.92 245.877656 
L 46.92 10.8 
" style="fill: none; stroke: #000000; stroke-width: 0.8; stroke-linejoin: miter; stroke-linecap: square"/>
   </g>
   <g id="patch_15">
    <path d="M 781.2 245.877656 
L 781.2 10.8 
" style="fill: none; stroke: #000000; stroke-width: 0.8; stroke-linejoin: miter; stroke-linecap: square"/>
   </g>
   <g id="patch_16">
    <path d="M 46.92 245.877656 
L 781.2 245.877656 
" style="fill: none; stroke: #000000; stroke-width: 0.8; stroke-linejoin: miter; stroke-linecap: square"/>
   </g>
   <g id="patch_17">
    <path d="M 46.92 10.8 
L 781.2 10.8 
" style="fill: none; stroke: #000000; stroke-width: 0.8; stroke-linejoin: miter; stroke-linecap: square"/>
   </g>
   <g id="legend_1">
    <g id="patch_18">
     <path d="M 650.275 123.805469 
L 774.2 123.805469 
Q 776.2 123.805469 776.2 121.805469 
L 776.2 17.8 
Q 776.2 15.8 774.2 15.8 
L 650.275 15.8 
Q 648.275 15.8 648.275 17.8 
L 648.275 121.805469 
Q 648.275 123.805469 650.275 123.805469 
z
" style="fill: #ffffff; opacity: 0.4; stroke: #cccccc; stroke-linejoin: miter"/>
    </g>
    <g id="line2d_37">
     <path d="M 652.275 23.898438 
L 662.275 23.898438 
L 672.275 23.898438 
" style="fill: none; stroke: #1f77b4; stroke-linecap: square"/>
    </g>
    <g id="text_18">
     <!-- weight -->
     <g transform="translate(680.275 27.398438) scale(0.1 -0.1)">
      <defs>
       <path id="DejaVuSans-5a" d="M 269 3500 
L 844 3500 
L 1563 769 
L 2278 3500 
L 2956 3500 
L 3675 769 
L 4391 3500 
L 4966 3500 
L 4050 0 
L 3372 0 
L 2619 2869 
L 1863 0 
L 1184 0 
L 269 3500 
z
" transform="scale(0.015625)"/>
       <path id="DejaVuSans-4b" d="M 3513 2113 
L 3513 0 
L 2938 0 
L 2938 2094 
Q 2938 2591 2744 2837 
Q 2550 3084 2163 3084 
Q 1697 3084 1428 2787 
Q 1159 2491 1159 1978 
L 1159 0 
L 581 0 
L 581 4863 
L 1159 4863 
L 1159 2956 
Q 1366 3272 1645 3428 
Q 1925 3584 2291 3584 
Q 2894 3584 3203 3211 
Q 3513 2838 3513 2113 
z
" transform="scale(0.015625)"/>
      </defs>
      <use xlink:href="#DejaVuSans-5a"/>
      <use xlink:href="#DejaVuSans-48" transform="translate(81.78125 0)"/>
      <use xlink:href="#DejaVuSans-4c" transform="translate(143.3125 0)"/>
      <use xlink:href="#DejaVuSans-4a" transform="translate(171.09375 0)"/>
      <use xlink:href="#DejaVuSans-4b" transform="translate(234.578125 0)"/>
      <use xlink:href="#DejaVuSans-57" transform="translate(297.953125 0)"/>
     </g>
    </g>
    <g id="line2d_38">
     <path d="M 652.275 38.899219 
L 662.275 38.899219 
L 672.275 38.899219 
" style="fill: none; stroke: #ff7f0e; stroke-linecap: square"/>
    </g>
    <g id="text_19">
     <!-- offset drift (g) -->
     <g transform="translate(680.275 42.399219) scale(0.1 -0.1)">
      <defs>
       <path id="DejaVuSans-52" d="M 1959 3097 
Q 1497 3097 1228 2736 
Q 959 2375 959 1747 
Q 959 1119 1226 758 
Q 1494 397 1959 397 
Q 2419 397 2687 759 
Q 2956 1122 2956 1747 
Q 2956 2369 2687 2733 
Q 2419 3097 1959 3097 
z
M 1959 3584 
Q 2709 3584 3137 3096 
Q 3566 2609 3566 1747 
Q 3566 888 3137 398 
Q 2709 -91 1959 -91 
Q 1206 -91 779 398 
Q 353 888 353 1747 
Q 353 2609 779 3096 
Q 1206 3584 1959 3584 
z
" transform="scale(0.015625)"/>
       <path id="DejaVuSans-13ae" d="M 4531 4863 
L 4531 4384 
L 3981 4384 
Q 3672 4384 3551 4259 
Q 3431 4134 3431 3809 
L 3431 3500 
L 4378 3500 
L 4378 3053 
L 3431 3053 
L 3431 0 
L 2853 0 
L 2853 3053 
L 1275 3053 
L 1275 0 
L 697 0 
L 697 3053 
L 147 3053 
L 147 3500 
L 697 3500 
L 697 3744 
Q 697 4328 969 4595 
Q 1241 4863 1831 4863 
L 2375 4863 
L 2375 4384 
L 1825 4384 
Q 1516 4384 1394 4259 
Q 1275 4134 1275 3809 
L 1275 3500 
L 2853 3500 
L 2853 3744 
Q 2853 4328 3125 4595 
Q 3397 4863 3988 4863 
L 4531 4863 
z
" transform="scale(0.015625)"/>
       <path id="DejaVuSans-3" transform="scale(0.015625)"/>
       <path id="DejaVuSans-47" d="M 2906 2969 
L 2906 4863 
L 3481 4863 
L 3481 0 
L 2906 0 
L 2906 525 
Q 2725 213 2448 61 
Q 2172 -91 1784 -91 
Q 1150 -91 751 415 
Q 353 922 353 1747 
Q 353 2572 751 3078 
Q 1150 3584 1784 3584 
Q 2172 3584 2448 3432 
Q 2725 3281 2906 2969 
z
M 947 1747 
Q 947 1113 1208 752 
Q 1469 391 1925 391 
Q 2381 391 2643 752 
Q 2906 1113 2906 1747 
Q 2906 2381 2643 2742 
Q 2381 3103 1925 3103 
Q 1469 3103 1208 2742 
Q 947 2381 947 1747 
z
" transform="scale(0.015625)"/>
       <path id="DejaVuSans-49" d="M 2375 4863 
L 2375 4384 
L 1825 4384 
Q 1516 4384 1395 4259 
Q 1275 4134 1275 3809 
L 1275 3500 
L 2222 3500 
L 2222 3053 
L 1275 3053 
L 1275 0 
L 697 0 
L 697 3053 
L 147 3053 
L 147 3500 
L 697 3500 
L 697 3744 
Q 697 4328 969 4595 
Q 1241 4863 1831 4863 
L 2375 4863 
z
" transform="scale(0.015625)"/>
       <path id="DejaVuSans-b" d="M 1984 4856 
Q 1566 4138 1362 3434 
Q 1159 2731 1159 2009 
Q 1159 1288 1364 580 
Q 1569 -128 1984 -844 
L 1484 -844 
Q 1016 -109 783 600 
Q 550 1309 550 2009 
Q 550 2706 781 3412 
Q 1013 4119 1484 4856 
L 1984 4856 
z
" transform="scale(0.015625)"/>
       <path id="DejaVuSans-c" d="M 513 4856 
L 1013 4856 
Q 1481 4119 1714 3412 
Q 1947 2706 1947 2009 
Q 1947 1309 1714 600 
Q 1481 -109 1013 -844 
L 513 -844 
Q 928 -128 1133 580 
Q 1338 1288 1338 2009 
Q 1338 2731 1133 3434 
Q 928 4138 513 4856 
z
" transform="scale(0.015625)"/>
      </defs>
      <use xlink:href="#DejaVuSans-52"/>
      <use xlink:href="#DejaVuSans-13ae" transform="translate(61.1875 0)"/>
      <use xlink:href="#DejaVuSans-56" transform="translate(130.078125 0)"/>
      <use xlink:href="#DejaVuSans-48" transform="translate(182.171875 0)"/>
      <use xlink:href="#DejaVuSans-57" transform="translate(243.703125 0)"/>
      <use xlink:href="#DejaVuSans-3" transform="translate(282.90625 0)"/>
      <use xlink:href="#DejaVuSans-47" transform="translate(314.6875 0)"/>
      <use xlink:href="#DejaVuSans-55" transform="translate(378.171875 0)"/>
      <use xlink:href="#DejaVuSans-4c" transform="translate(419.28125 0)"/>
      <use xlink:href="#DejaVuSans-49" transform="translate(447.0625 0)"/>
      <use xlink:href="#DejaVuSans-57" transform="translate(480.515625 0)"/>
      <use xlink:href="#DejaVuSans-3" transform="translate(519.71875 0)"/>
      <use xlink:href="#DejaVuSans-b" transform="translate(551.5 0)"/>
      <use xlink:href="#DejaVuSans-4a" transform="translate(590.515625 0)"/>
      <use xlink:href="#DejaVuSans-c" transform="translate(654 0)"/>
     </g>
    </g>
    <g id="line2d_39">
     <path d="M 652.275 53.9 
L 662.275 53.9 
L 672.275 53.9 
" style="fill: none; stroke: #ff0000; stroke-linecap: square"/>
    </g>
    <g id="text_20">
     <!-- sigma -->
     <g transform="translate(680.275 57.4) scale(0.1 -0.1)">
      <use xlink:href="#DejaVuSans-56"/>
      <use xlink:href="#DejaVuSans-4c" transform="translate(52.09375 0)"/>
      <use xlink:href="#DejaVuSans-4a" transform="translate(79.875 0)"/>
      <use xlink:href="#DejaVuSans-50" transform="translate(143.359375 0)"/>
      <use xlink:href="#DejaVuSans-44" transform="translate(240.765625 0)"/>
     </g>
    </g>
    <g id="line2d_40">
     <path d="M 652.275 68.900781 
L 662.275 68.900781 
L 672.275 68.900781 
" style="fill: none; stroke: #008000; stroke-linecap: square"/>
    </g>
    <g id="text_21">
     <!-- threshold -->
     <g transform="translate(680.275 72.400781) scale(0.1 -0.1)">
      <defs>
       <path id="DejaVuSans-4f" d="M 603 4863 
L 1178 4863 
L 1178 0 
L 603 0 
L 603 4863 
z
" transform="scale(0.015625)"/>
      </defs>
      <use xlink:href="#DejaVuSans-57"/>
      <use xlink:href="#DejaVuSans-4b" transform="translate(39.203125 0)"/>
      <use xlink:href="#DejaVuSans-55" transform="translate(102.578125 0)"/>
      <use xlink:href="#DejaVuSans-48" transform="translate(141.484375 0)"/>
      <use xlink:href="#DejaVuSans-56" transform="translate(203.015625 0)"/>
      <use xlink:href="#DejaVuSans-4b" transform="translate(255.109375 0)"/>
      <use xlink:href="#DejaVuSans-52" transform="translate(318.484375 0)"/>
      <use xlink:href="#DejaVuSans-4f" transform="translate(379.671875 0)"/>
      <use xlink:href="#DejaVuSans-47" transform="translate(407.453125 0)"/>
     </g>
    </g>
    <g id="line2d_41">
     <path d="M 652.275 83.901563 
L 662.275 83.901563 
L 672.275 83.901563 
" style="fill: none; stroke-dasharray: 5.55,2.4; stroke-dashoffset: 0; stroke: #808080; stroke-opacity: 0.7; stroke-width: 1.5"/>
    </g>
    <g id="text_22">
     <!-- weightThreshold -->
     <g transform="translate(680.275 87.401563) scale(0.1 -0.1)">
      <defs>
       <path id="DejaVuSans-37" d="M -19 4666 
L 3928 4666 
L 3928 4134 
L 2272 4134 
L 2272 0 
L 1638 0 
L 1638 4134 
L -19 4134 
L -19 4666 
z
" transform="scale(0.015625)"/>
      </defs>
      <use xlink:href="#DejaVuSans-5a"/>
      <use xlink:href="#DejaVuSans-48" transform="translate(81.78125 0)"/>
      <use xlink:href="#DejaVuSans-4c" transform="translate(143.3125 0)"/>
      <use xlink:href="#DejaVuSans-4a" transform="translate(171.09375 0)"/>
      <use xlink:href="#DejaVuSans-4b" transform="translate(234.578125 0)"/>
      <use xlink:href="#DejaVuSans-57" transform="translate(297.953125 0)"/>
      <use xlink:href="#DejaVuSans-37" transform="translate(337.15625 0)"/>
      <use xlink:href="#DejaVuSans-4b" transform="translate(398.234375 0)"/>
      <use xlink:href="#DejaVuSans-55" transform="translate(461.609375 0)"/>
      <use xlink:href="#DejaVuSans-48" transform="translate(500.515625 0)"/>
      <use xlink:href="#DejaVuSans-56" transform="translate(562.046875 0)"/>
      <use xlink:href="#DejaVuSans-4b" transform="translate(614.140625 0)"/>
      <use xlink:href="#DejaVuSans-52" transform="translate(677.515625 0)"/>
      <use xlink:href="#DejaVuSans-4f" transform="translate(738.703125 0)"/>
      <use xlink:href="#DejaVuSans-47" transform="translate(766.484375 0)"/>
     </g>
    </g>
    <g id="line2d_42">
     <path d="M 652.275 98.902344 
L 662.275 98.902344 
L 672.275 98.902344 
" style="fill: none; stroke-dasharray: 5.55,2.4; stroke-dashoffset: 0; stroke: #008000; stroke-opacity: 0.7; stroke-width: 1.5"/>
    </g>
    <g id="text_23">
     <!-- threshold_off -->
     <g transform="translate(680.275 102.402344) scale(0.1 -0.1)">
      <defs>
       <path id="DejaVuSans-42" d="M 3263 -1063 
L 3263 -1509 
L -63 -1509 
L -63 -1063 
L 3263 -1063 
z
" transform="scale(0.015625)"/>
      </defs>
      <use xlink:href="#DejaVuSans-57"/>
      <use xlink:href="#DejaVuSans-4b" transform="translate(39.203125 0)"/>
      <use xlink:href="#DejaVuSans-55" transform="translate(102.578125 0)"/>
      <use xlink:href="#DejaVuSans-48" transform="translate(141.484375 0)"/>
      <use xlink:href="#DejaVuSans-56" transform="translate(203.015625 0)"/>
      <use xlink:href="#DejaVuSans-4b" transform="translate(255.109375 0)"/>
      <use xlink:href="#DejaVuSans-52" transform="translate(318.484375 0)"/>
      <use xlink:href="#DejaVuSans-4f" transform="translate(379.671875 0)"/>
      <use xlink:href="#DejaVuSans-47" transform="translate(407.453125 0)"/>
      <use xlink:href="#DejaVuSans-42" transform="translate(470.9375 0)"/>
      <use xlink:href="#DejaVuSans-52" transform="translate(520.9375 0)"/>
      <use xlink:href="#DejaVuSans-13ae" transform="translate(582.125 0)"/>
     </g>
    </g>
    <g id="line2d_43">
     <path d="M 652.275 113.903125 
L 672.275 113.903125 
" style="fill: none; stroke: #0000ff; stroke-opacity: 0.6"/>
    </g>
    <g id="text_24">
     <!-- CAMERA_TRIGGER -->
     <g transform="translate(680.275 117.403125) scale(0.1 -0.1)">
      <defs>
       <path id="DejaVuSans-26" d="M 4122 4306 
L 4122 3641 
Q 3803 3938 3442 4084 
Q 3081 4231 2675 4231 
Q 1875 4231 1450 3742 
Q 1025 3253 1025 2328 
Q 1025 1406 1450 917 
Q 1875 428 2675 428 
Q 3081 428 3442 575 
Q 3803 722 4122 1019 
L 4122 359 
Q 3791 134 3420 21 
Q 3050 -91 2638 -91 
Q 1578 -91 968 557 
Q 359 1206 359 2328 
Q 359 3453 968 4101 
Q 1578 4750 2638 4750 
Q 3056 4750 3426 4639 
Q 3797 4528 4122 4306 
z
" transform="scale(0.015625)"/>
       <path id="DejaVuSans-24" d="M 2188 4044 
L 1331 1722 
L 3047 1722 
L 2188 4044 
z
M 1831 4666 
L 2547 4666 
L 4325 0 
L 3669 0 
L 3244 1197 
L 1141 1197 
L 716 0 
L 50 0 
L 1831 4666 
z
" transform="scale(0.015625)"/>
       <path id="DejaVuSans-30" d="M 628 4666 
L 1569 4666 
L 2759 1491 
L 3956 4666 
L 4897 4666 
L 4897 0 
L 4281 0 
L 4281 4097 
L 3078 897 
L 2444 897 
L 1241 4097 
L 1241 0 
L 628 0 
L 628 4666 
z
" transform="scale(0.015625)"/>
       <path id="DejaVuSans-28" d="M 628 4666 
L 3578 4666 
L 3578 4134 
L 1259 4134 
L 1259 2753 
L 3481 2753 
L 3481 2222 
L 1259 2222 
L 1259 531 
L 3634 531 
L 3634 0 
L 628 0 
L 628 4666 
z
" transform="scale(0.015625)"/>
       <path id="DejaVuSans-35" d="M 2841 2188 
Q 3044 2119 3236 1894 
Q 3428 1669 3622 1275 
L 4263 0 
L 3584 0 
L 2988 1197 
Q 2756 1666 2539 1819 
Q 2322 1972 1947 1972 
L 1259 1972 
L 1259 0 
L 628 0 
L 628 4666 
L 2053 4666 
Q 2853 4666 3247 4331 
Q 3641 3997 3641 3322 
Q 3641 2881 3436 2590 
Q 3231 2300 2841 2188 
z
M 1259 4147 
L 1259 2491 
L 2053 2491 
Q 2509 2491 2742 2702 
Q 2975 2913 2975 3322 
Q 2975 3731 2742 3939 
Q 2509 4147 2053 4147 
L 1259 4147 
z
" transform="scale(0.015625)"/>
       <path id="DejaVuSans-2c" d="M 628 4666 
L 1259 4666 
L 1259 0 
L 628 0 
L 628 4666 
z
" transform="scale(0.015625)"/>
       <path id="DejaVuSans-2a" d="M 3809 666 
L 3809 1919 
L 2778 1919 
L 2778 2438 
L 4434 2438 
L 4434 434 
Q 4069 175 3628 42 
Q 3188 -91 2688 -91 
Q 1594 -91 976 548 
Q 359 1188 359 2328 
Q 359 3472 976 4111 
Q 1594 4750 2688 4750 
Q 3144 4750 3555 4637 
Q 3966 4525 4313 4306 
L 4313 3634 
Q 3963 3931 3569 4081 
Q 3175 4231 2741 4231 
Q 1884 4231 1454 3753 
Q 1025 3275 1025 2328 
Q 1025 1384 1454 906 
Q 1884 428 2741 428 
Q 3075 428 3337 486 
Q 3600 544 3809 666 
z
" transform="scale(0.015625)"/>
      </defs>
      <use xlink:href="#DejaVuSans-26"/>
      <use xlink:href="#DejaVuSans-24" transform="translate(69.828125 0)"/>
      <use xlink:href="#DejaVuSans-30" transform="translate(138.234375 0)"/>
      <use xlink:href="#DejaVuSans-28" transform="translate(224.515625 0)"/>
      <use xlink:href="#DejaVuSans-35" transform="translate(287.703125 0)"/>
      <use xlink:href="#DejaVuSans-24" transform="translate(353.140625 0)"/>
      <use xlink:href="#DejaVuSans-42" transform="translate(421.546875 0)"/>
      <use xlink:href="#DejaVuSans-37" transform="translate(471.546875 0)"/>
      <use xlink:href="#DejaVuSans-35" transform="translate(532.625 0)"/>
      <use xlink:href="#DejaVuSans-2c" transform="translate(602.109375 0)"/>
      <use xlink:href="#DejaVuSans-2a" transform="translate(631.609375 0)"/>
      <use xlink:href="#DejaVuSans-2a" transform="translate(709.09375 0)"/>
      <use xlink:href="#DejaVuSans-28" transform="translate(786.578125 0)"/>
      <use xlink:href="#DejaVuSans-35" transform="translate(849.765625 0)"/>
     </g>
    </g>
   </g>
  </g>
 </g>
 <defs>
  <clipPath id="p3caead1ebb">
   <rect x="46.92" y="10.8" width="734.28" height="235.077656"/>
  </clipPath>
 </defs>
</svg>
