<?xml version="1.0" standalone="no"?>
<svg xmlns="http://www.w3.org/2000/svg" version="1.1" width="64" height="48" viewBox="0 0 64 48">
<path
         d="M 3.35,41.1 H 45.04 c 1.56,0 2.82,-1.26 2.82,-2.82 V 3.35 c 0,-1.56 -1.26,-2.82 -2.82,-2.82 H 3.35 c -1.56,0 -2.82,1.26 -2.82,2.82 V 38.28 c 0,1.56 1.26,2.82 2.82,2.82 z"
         style="display:inline;fill:#ff0000;fill-opacity:1;stroke:#2f636d;stroke-width:1.05833;stroke-linecap:butt;stroke-linejoin:miter;stroke-miterlimit:10;stroke-dasharray:none;stroke-opacity:1"
/>
<path
         style="display:inline;opacity:1;fill:#2f636d;fill-opacity:1;stroke:none;stroke-width:0.264583px;stroke-linecap:butt;stroke-linejoin:miter;stroke-opacity:1"
         d="M 7.4,41.48 7.84,40.07 8.19,37.78 V 35.31 L 8.01,31.79 7.49,28.27 l 0.62,-3.17 1.59,-2.55 2.29,-1.85 3.96,-1.76 3.17,-0.79 h 2.91 l 1.85,0.62 0.35,0.26 -1.23,2.99 4.05,0.7 -1.23,0.97 -0.97,0.97 -0.18,0.88 0.26,1.76 0.09,2.29 -0.88,2.03 -1.14,1.94 -1.23,1.23 -1.85,1.14 -0.62,0.26 -0.18,0.79 0.18,2.03 v 1.94 z"
/>
<circle
         style="display:inline;opacity:1;fill:#ffffff;fill-opacity:1;stroke:none;stroke-width:0.268486;stroke-linejoin:round;stroke-dasharray:none;stroke-opacity:1"
         cx="16.86"
         cy="28.0"
         r="6.7"
/>
<circle
         style="display:inline;opacity:1;fill:#2f636d;fill-opacity:1;stroke:none;stroke-width:0.29862;stroke-linejoin:round;stroke-dasharray:none"
         cx="17.0"
         cy="25.1"
         r="1.75"
/>
<path
         style="display:inline;fill:#60898b;fill-opacity:1;stroke:none;stroke-width:0.265;stroke-linecap:butt;stroke-linejoin:miter;stroke-dasharray:none;stroke-opacity:1"
         d="m 19.81,41.04 v -1.67 l -0.18,-2.47 2.2,-1.32 1.94,-1.94 1.06,-1.32 0.7,1.14 0.44,1.59 0.53,1.59 0.53,2.64 0.18,1.85 z"
/>
<circle
         style="display:inline;opacity:1;fill:#2f636d;fill-opacity:1;stroke:none;stroke-width:0.29862;stroke-linejoin:round;stroke-dasharray:none"
         cx="30.0"
         cy="17.8"
         r="1.75"
/>
<path
         style="fill:none;stroke:#2f636d;stroke-width:1.5875;stroke-linecap:round;stroke-linejoin:miter;stroke-dasharray:none;stroke-opacity:1"
         d="m 29.06,9.33 c 1.11,0.07 2.2,0.27 3.26,0.62 1.6,0.52 3.12,1.37 4.23,2.64 1.41,1.62 2.04,3.88 1.67,5.99"
/>
<path
         style="display:inline;fill:none;stroke:#2f636d;stroke-width:1.5875;stroke-linecap:round;stroke-linejoin:miter;stroke-dasharray:none;stroke-opacity:1"
         d="m 29.32,12.95 c 0.95,0.06 1.89,0.33 2.73,0.79 0.88,0.49 1.66,1.21 2.11,2.11 0.43,0.86 0.56,1.88 0.35,2.82"
/>
<path
         style="display:inline;fill:none;stroke:#2f636d;stroke-width:1.5875;stroke-linecap:round;stroke-linejoin:miter;stroke-dasharray:none;stroke-opacity:1"
         d="m 29.06,5.46 c 1.93,-0.06 3.88,0.33 5.64,1.14 2.1,0.97 3.93,2.55 5.2,4.49 1.41,2.15 2.12,4.74 2.03,7.31"
/>
</svg>
