<?xml version="1.0" standalone="no"?>
<svg xmlns="http://www.w3.org/2000/svg" version="1.1" width="24" height="26" viewBox="0 0 24 26">
<path fill-rule="evenodd" clip-rule="evenodd" 
d="M 12,0 
C 5,0 0,6 0,13 0,19 3,23 8,25 9,25 9,25 9,24 9,24 9,23 9,22 6,23 5,20 5,20 4,19 4,18 4,18 3,17 4,17 4,17 
c 1,0 2,1 2,1 1,2 3,1 3,1 0,-1 0,-1 1,-2 C 7,17 5,16 5,11 5,10 5,8 6,8 6,8 5,6 6,5 6,5 7,5 9,6 a 12,12 0 0 1 3,0 
c 1,0 2,0 3,0 2,-2 3,-1 3,-1 1,2 0,3 0,3 1,1 1,2 1,3 0,5 -3,6 -5,6 0,0 1,1 1,2 0,2 0,3 0,3 0,0 0,1 1,1 5,0 8,-5 8,-10 
C 24,6 19,0 12,0 Z" fill="#24292f"/>
</svg>